<svg xmlns="http://www.w3.org/2000/svg" width="79.6" height="46.778" viewBox="0 0 79.6 46.778">
  <path id="Icon_awesome-signature" data-name="Icon awesome-signature" d="M77.536,20.093c-6.445.426-15.639,6.663-20.293,8.71-3.621,1.6-6.743,2.972-9.468,2.972-2.812,0-3.235-1.973-2.65-6.322.137-.975,1.456-9.648-5.313-9.27-3.123.183-8,3.021-21.089,15.349L23.887,18.9C27.669,9.653,17.268.444,7.75,6.377L.919,10.872a1.935,1.935,0,0,0-.61,2.692l2.14,3.289a2,2,0,0,0,2.75.6l7.216-4.739a2.757,2.757,0,0,1,4.068,3.3L4.266,45.93a3.9,3.9,0,0,0,3.7,5.348,3.978,3.978,0,0,0,2.812-1.145c5.25-5.141,19.247-18.357,26.277-23.851-.274,3.472-.261,7.175,2.563,10.208,1.9,2.046,4.641,3.082,8.149,3.082,4.429,0,8.46-1.778,12.728-3.654,4.106-1.8,12.317-7.626,17.219-8.015A1.975,1.975,0,0,0,79.6,25.976v-3.91a1.955,1.955,0,0,0-2.065-1.973Z" transform="translate(-0.002 -4.499)" fill="#009138"/>
</svg>
