<svg xmlns="http://www.w3.org/2000/svg" width="60.655" height="69.319" viewBox="0 0 60.655 69.319">
  <path id="Icon_material-timer-off" data-name="Icon material-timer-off" d="M57.1,12.686,52.63,17.16a28.386,28.386,0,0,0-33.3-1.544l4.6,4.6A22.022,22.022,0,0,1,54.016,50.307l4.569,4.569a28.216,28.216,0,0,0-1.512-33.242l4.474-4.474ZM44.374,1.5H25.469V7.8H44.374Zm-12.6,26.593,6.3,6.3V23.556h-6.3ZM6.627,10.953l-4,4,8.665,8.7A28.346,28.346,0,0,0,34.922,67.669a28.24,28.24,0,0,0,15.691-4.726l7.877,7.877,4-4L38.2,42.525ZM34.922,61.367A22.054,22.054,0,0,1,15.859,28.22L45.981,58.342A21.635,21.635,0,0,1,34.922,61.367Z" transform="translate(-2.625 -1.5)" fill="#bec0ca"/>
</svg>
