<svg xmlns="http://www.w3.org/2000/svg" width="79.139" height="79.139" viewBox="0 0 79.139 79.139">
  <g id="MDI_camera-off" data-name="MDI / camera-off" opacity="0.6">
    <g id="Boundary" fill="#8b8b8b" stroke="rgba(0,0,0,0)" stroke-width="1" opacity="0">
      <rect width="79.139" height="79.139" stroke="none"/>
      <rect x="0.5" y="0.5" width="78.139" height="78.139" fill="none"/>
    </g>
    <path id="Path_camera-off" data-name="Path / camera-off" d="M1.2,10.145,5.487,5.957,63.192,63.729,59,67.949,52.41,61.354H10.433A6.6,6.6,0,0,1,3.838,54.76V15.19a7.206,7.206,0,0,1,.33-2.077L1.2,10.145m19.125-1.55L26.92,2H46.705L53.3,8.595h9.892a6.6,6.6,0,0,1,6.595,6.595V54.76a6.537,6.537,0,0,1-2.242,4.946L51.091,43.218A16.22,16.22,0,0,0,53.3,34.975,16.487,16.487,0,0,0,36.813,18.487,16.22,16.22,0,0,0,28.569,20.7L16.434,8.595h3.891m0,26.38A16.487,16.487,0,0,0,36.813,51.462a16.658,16.658,0,0,0,4.946-.758l-5.869-5.837A10.1,10.1,0,0,1,26.92,35.9l-5.837-5.869a16.659,16.659,0,0,0-.758,4.946m16.487-9.892a9.9,9.9,0,0,1,9.332,13.19L33.515,25.643A9.89,9.89,0,0,1,36.813,25.082Z" transform="translate(4.076 4.595)" fill="#8b8b8b"/>
  </g>
</svg>
