<svg id="MDI_notebook-edit-outline" data-name="MDI / notebook-edit-outline" xmlns="http://www.w3.org/2000/svg" width="21.457" height="21.457" viewBox="0 0 21.457 21.457">
  <g id="Boundary" fill="#fff" stroke="rgba(0,0,0,0)" stroke-width="1" opacity="0">
    <rect width="21.457" height="21.457" stroke="none"/>
    <rect x="0.5" y="0.5" width="20.457" height="20.457" fill="none"/>
  </g>
  <path id="Path_notebook-edit-outline" data-name="Path / notebook-edit-outline" d="M17.367,13.515,19.2,15.348l-5.418,5.427H11.94V18.933l5.427-5.418m1.761-1.565a.477.477,0,0,1,.34.152l1.144,1.144a.475.475,0,0,1,0,.688l-.894.894L17.886,13l.894-.894a.5.5,0,0,1,.349-.152M15.517,3.788V9.152L13.729,7.364,11.94,9.152V3.788H8.364v14.3h1.788v1.788H6.576a1.854,1.854,0,0,1-1.788-1.788V17.2H3V15.411H4.788V11.834H3V10.046H4.788V6.47H3V4.682H4.788V3.788A1.788,1.788,0,0,1,6.576,2H17.3a1.854,1.854,0,0,1,1.788,1.788V9.152L17.3,10.94V3.788H15.517M4.788,4.682V6.47H6.576V4.682H4.788m0,5.364v1.788H6.576V10.046H4.788m0,5.364V17.2H6.576V15.411Z" transform="translate(-1.212 -0.212)" fill="#fff"/>
</svg>
