<svg xmlns="http://www.w3.org/2000/svg" xmlns:xlink="http://www.w3.org/1999/xlink" width="176.543" height="203.311" viewBox="0 0 176.543 203.311">
  <defs>
    <filter id="Rectangle_11854" x="93.632" y="6.682" width="77.246" height="60.344" filterUnits="userSpaceOnUse">
      <feOffset dy="3" input="SourceAlpha"/>
      <feGaussianBlur stdDeviation="3" result="blur"/>
      <feFlood flood-opacity="0.161"/>
      <feComposite operator="in" in2="blur"/>
      <feComposite in="SourceGraphic"/>
    </filter>
    <clipPath id="clip-path">
      <rect id="Rectangle_11783" data-name="Rectangle 11783" width="174.103" height="179.359" fill="none"/>
    </clipPath>
    <clipPath id="clip-path-3">
      <rect id="Rectangle_11791" data-name="Rectangle 11791" width="53.573" height="62.326" fill="none"/>
    </clipPath>
    <clipPath id="clip-path-5">
      <rect id="Rectangle_11794" data-name="Rectangle 11794" width="53.573" height="27.458" fill="none"/>
    </clipPath>
    <clipPath id="clip-path-7">
      <rect id="Rectangle_11796" data-name="Rectangle 11796" width="14.115" height="9.442" fill="none"/>
    </clipPath>
    <clipPath id="clip-path-8">
      <rect id="Rectangle_11797" data-name="Rectangle 11797" width="19.473" height="28.077" fill="none"/>
    </clipPath>
    <clipPath id="clip-path-9">
      <rect id="Rectangle_11798" data-name="Rectangle 11798" width="6.839" height="8.84" fill="none"/>
    </clipPath>
    <clipPath id="clip-path-10">
      <g transform="matrix(1, 0, 0, 1, 0, 0)" filter="url(#Rectangle_11854)">
        <rect id="Rectangle_11854-2" data-name="Rectangle 11854" width="59.246" height="42.344" fill="none"/>
      </g>
    </clipPath>
  </defs>
  <g id="Group_41908" data-name="Group 41908" transform="translate(-6670.729 3349)">
    <g id="Group_41905" data-name="Group 41905" transform="translate(1040.746 701)">
      <rect id="Rectangle_11859" data-name="Rectangle 11859" width="174.104" height="203.311" transform="translate(5629.982 -4050)" fill="none"/>
      <g id="Group_41897" data-name="Group 41897" transform="translate(5629.982 -4026.049)">
        <g id="Group_41701" data-name="Group 41701" clip-path="url(#clip-path)">
          <path id="Path_106186" data-name="Path 106186" d="M176.692,379.036c0,6.069-38.541,10.989-86.085,10.989s-86.085-4.92-86.085-10.989,38.541-10.989,86.085-10.989,86.085,4.92,86.085,10.989" transform="translate(-2.588 -210.666)" fill="#eaebef"/>
        </g>
      </g>
      <path id="Path_106397" data-name="Path 106397" d="M80.622,154.548V5.514A5.513,5.513,0,0,1,86.135,0H182.2a5.513,5.513,0,0,1,5.513,5.514V154.548a5.513,5.513,0,0,1-5.513,5.513H86.135a5.513,5.513,0,0,1-5.513-5.513" transform="translate(5583.835 -4026.049)" fill="#263238"/>
      <path id="Path_106398" data-name="Path 106398" d="M0,0H97.927V137.753H0V0Z" transform="translate(5669.099 -4014.846)" fill="#fff"/>
      <path id="Path_106399" data-name="Path 106399" d="M178.586,14.386v-.6a.535.535,0,0,1,.535-.535h22.236a.535.535,0,0,1,.535.535v.6a.535.535,0,0,1-.535.535H179.121a.535.535,0,0,1-.535-.535" transform="translate(5527.761 -4033.636)" fill="#37474f"/>
      <path id="Path_106400" data-name="Path 106400" d="M201.8,359.978a3.014,3.014,0,1,1,3.014-3.014,3.014,3.014,0,0,1-3.014,3.014" transform="translate(5516.199 -4228.646)" fill="#37474f"/>
      <rect id="Rectangle_11860" data-name="Rectangle 11860" width="67.749" height="0.954" transform="translate(5684.189 -3902.857)" fill="#ebebeb"/>
      <rect id="Rectangle_11861" data-name="Rectangle 11861" width="67.749" height="0.954" transform="translate(5684.189 -3899.9)" fill="#ebebeb"/>
      <rect id="Rectangle_11862" data-name="Rectangle 11862" width="67.749" height="0.954" transform="translate(5684.189 -3995.928)" fill="#ebebeb"/>
      <rect id="Rectangle_11863" data-name="Rectangle 11863" width="67.749" height="0.954" transform="translate(5684.189 -3992.971)" fill="#ebebeb"/>
      <rect id="Rectangle_11864" data-name="Rectangle 11864" width="174.103" height="179.359" transform="translate(5629.982 -4026.049)" fill="none"/>
      <path id="Path_106401" data-name="Path 106401" d="M196.769,189.127H143.2V143.808L169.978,126.8l26.791,17.008Z" transform="translate(5548.019 -4098.627)" fill="#ffc727"/>
      <g id="Group_41898" data-name="Group 41898" transform="translate(5629.982 -4026.049)">
        <g id="Group_41708" data-name="Group 41708" clip-path="url(#clip-path)">
          <g id="Group_41707" data-name="Group 41707" transform="translate(61.232 54.221)" opacity="0.2">
            <g id="Group_41706" data-name="Group 41706">
              <g id="Group_41705" data-name="Group 41705" clip-path="url(#clip-path-3)">
                <path id="Path_106201" data-name="Path 106201" d="M196.769,189.127H143.2V143.808L169.978,126.8l26.791,17.008Z" transform="translate(-143.196 -126.8)"/>
              </g>
            </g>
          </g>
        </g>
      </g>
      <rect id="Rectangle_11865" data-name="Rectangle 11865" width="47.531" height="61.015" transform="translate(5694.236 -3973.983)" fill="#ebebeb"/>
      <g id="Group_41899" data-name="Group 41899" transform="translate(5629.982 -4026.049)">
        <g id="Group_41713" data-name="Group 41713" clip-path="url(#clip-path)">
          <path id="Path_106203" data-name="Path 106203" d="M196.768,193.1v33.975H143.2V193.1c2.3,1.3,4.562,2.671,6.838,4.006,2.269,1.36,4.538,2.72,6.79,4.1q3.765,2.293,7.522,4.65c.024-.016.056-.032.08-.048-.024.016-.04.04-.064.056q2.811,1.75,5.624,3.516c1.867-1.175,3.741-2.357,5.615-3.516-.024-.016-.04-.04-.064-.056a.389.389,0,0,0,.08.04q3.753-2.341,7.522-4.65,3.38-2.063,6.782-4.1c2.285-1.335,4.546-2.7,6.847-4.006" transform="translate(-81.963 -110.529)" fill="#ffc727"/>
          <g id="Group_41712" data-name="Group 41712" transform="translate(61.232 82.573)" opacity="0.2">
            <g id="Group_41711" data-name="Group 41711">
              <g id="Group_41710" data-name="Group 41710" clip-path="url(#clip-path-5)">
                <path id="Path_106204" data-name="Path 106204" d="M196.768,193.1c-2.164,1.521-4.368,2.977-6.549,4.473q-3.294,2.2-6.613,4.377-3.464,2.269-6.943,4.5c-.072.048-.137.1-.209.145q-3.078,1.967-6.171,3.934l-.306.185-.3-.185q-3.089-1.967-6.163-3.942c-.072-.04-.145-.089-.217-.137q-3.487-2.233-6.951-4.505c-2.2-1.44-4.409-2.9-6.605-4.368-2.18-1.5-4.385-2.953-6.549-4.473,2.3,1.3,4.562,2.671,6.838,4.006,2.269,1.36,4.538,2.72,6.79,4.1q3.765,2.293,7.522,4.65c.008,0,.008,0,.016.008q2.811,1.75,5.624,3.516c1.867-1.175,3.741-2.357,5.615-3.516.008-.016.008-.016.016-.016q3.753-2.341,7.522-4.65,3.38-2.063,6.782-4.1c2.285-1.335,4.546-2.7,6.847-4.006" transform="translate(-143.195 -193.102)"/>
                <path id="Path_106205" data-name="Path 106205" d="M164.6,222.829c-.024.016-.04.04-.064.056-.282.241-.563.482-.845.716-1.344,1.134-2.719,2.221-4.119,3.275-1.705,1.3-3.451,2.55-5.205,3.789-1.762,1.215-3.532,2.422-5.342,3.58s-3.637,2.293-5.527,3.331c1.625-1.424,3.315-2.752,5.02-4.047s3.459-2.55,5.205-3.789c1.77-1.223,3.54-2.429,5.35-3.588,1.44-.925,2.9-1.834,4.4-2.687.346-.2.692-.394,1.046-.587.024-.016.056-.032.08-.048" transform="translate(-143.368 -210.117)"/>
                <path id="Path_106206" data-name="Path 106206" d="M239.932,237.575c-1.891-1.038-3.725-2.172-5.527-3.331s-3.58-2.366-5.351-3.58c-1.754-1.239-3.5-2.486-5.2-3.789-1.392-1.054-2.767-2.132-4.1-3.266-.29-.241-.571-.483-.854-.724-.024-.016-.04-.04-.064-.056a.373.373,0,0,0,.081.04c.354.2.7.394,1.046.6,1.5.853,2.952,1.762,4.4,2.687,1.81,1.158,3.58,2.365,5.342,3.588,1.754,1.239,3.5,2.486,5.206,3.789s3.4,2.623,5.028,4.047" transform="translate(-186.488 -210.117)"/>
              </g>
            </g>
          </g>
        </g>
      </g>
      <g id="Group_41900" data-name="Group 41900" transform="translate(5629.982 -4026.049)">
        <g id="Group_41724" data-name="Group 41724" clip-path="url(#clip-path)">
          <path id="Path_106215" data-name="Path 106215" d="M86.445,368.731c-.923.3-27.232-.043-28.225-.693-.381-.24-.555-4.077-.632-8.719,0-.048,0-.1,0-.145-.018-.956-.03-1.941-.032-2.94,0-.137,0-.275,0-.412l1.276-13.649,17.6.176L74.689,355.87l-.02.535-.106,2.8-.01.288s10.012,4.635,11.029,5.464,1.787,3.48.863,3.774" transform="translate(-32.941 -195.856)" fill="#f7a9a0"/>
          <path id="Path_106216" data-name="Path 106216" d="M86.445,387c-.923.3-27.232-.043-28.225-.693-.381-.24-.555-4.077-.632-8.719,0-.048,0-.1,0-.145-.018-.956-.03-1.941-.032-2.94,0-.137,0-.275,0-.412l17.139.048-.02.535-.106,2.8-.01.288s10.012,4.635,11.029,5.464,1.787,3.48.863,3.774" transform="translate(-32.941 -214.126)" fill="#ebebeb"/>
          <path id="Path_106217" data-name="Path 106217" d="M86.283,391.848c-.93.3-27.48.047-28.487-.6-.383-.244-.571-4.113-.666-8.794l17.118.114s10.121,4.644,11.149,5.475,1.817,3.506.886,3.807" transform="translate(-32.701 -218.911)" fill="#00a134"/>
          <path id="Path_106218" data-name="Path 106218" d="M88.5,401.62c-4.449-.152-22.41-.345-26.82-.157-.036,0-.036.026,0,.028,4.407.247,22.369.294,26.82.2.094,0,.094-.07,0-.073" transform="translate(-35.291 -229.749)" fill="#263238"/>
          <path id="Path_106219" data-name="Path 106219" d="M114.32,393.245a3.576,3.576,0,0,0-2.673,1.061,3.463,3.463,0,0,0-1.017,2.366c0,.026.05.028.054,0a4.131,4.131,0,0,1,3.636-3.373.028.028,0,0,0,0-.056" transform="translate(-63.323 -225.087)" fill="#263238"/>
          <path id="Path_106220" data-name="Path 106220" d="M94.514,383.789a6.2,6.2,0,0,0-4.973,2.013c-.044.056.037.117.09.09a24.644,24.644,0,0,1,4.912-1.884.112.112,0,0,0-.029-.219" transform="translate(-51.245 -219.676)" fill="#263238"/>
          <path id="Path_106221" data-name="Path 106221" d="M97.718,385.074a6.2,6.2,0,0,0-4.974,2.013c-.043.056.037.117.09.09a24.635,24.635,0,0,1,4.912-1.884.112.112,0,0,0-.029-.219" transform="translate(-53.079 -220.411)" fill="#263238"/>
          <path id="Path_106222" data-name="Path 106222" d="M100.922,386.358a6.2,6.2,0,0,0-4.973,2.013c-.044.056.037.117.09.09a24.649,24.649,0,0,1,4.912-1.884.112.112,0,0,0-.029-.219" transform="translate(-54.913 -221.146)" fill="#263238"/>
          <path id="Path_106223" data-name="Path 106223" d="M104.126,387.643a6.2,6.2,0,0,0-4.973,2.013c-.044.056.037.117.09.09a24.633,24.633,0,0,1,4.912-1.884.112.112,0,0,0-.029-.219" transform="translate(-56.747 -221.882)" fill="#263238"/>
          <path id="Path_106224" data-name="Path 106224" d="M62.443,391.707a1.554,1.554,0,0,0-.021,3.106,1.554,1.554,0,0,0,.021-3.106" transform="translate(-34.877 -224.209)" fill="#fff"/>
          <path id="Path_106225" data-name="Path 106225" d="M100.09,372.29c-.895-.756-2.038-.036-2.6.735a9.351,9.351,0,0,0-1.662,4.539.047.047,0,0,0,.055.051.217.217,0,0,0,.319.147,15.561,15.561,0,0,0,3.722-2.863c.568-.719,1.013-1.894.167-2.61m-2.222,3.765c-.617.441-1.253.848-1.854,1.312a27.958,27.958,0,0,1,1.029-2.63,10.082,10.082,0,0,1,.662-1.2c.393-.585,2.156-2.057,2.314-.117.088,1.069-1.415,2.1-2.151,2.63" transform="translate(-54.85 -212.911)" fill="#263238"/>
          <path id="Path_106226" data-name="Path 106226" d="M82.925,382.37a15.553,15.553,0,0,0,4.679-.4.217.217,0,0,0,.137-.323.047.047,0,0,0,.006-.075,9.349,9.349,0,0,0-4.288-2.232c-.936-.189-2.265.05-2.416,1.211-.142,1.1.979,1.667,1.883,1.815m-1.066-1.024c-1.19-1.54,1.1-1.641,1.788-1.473a10.025,10.025,0,0,1,1.3.436,28.052,28.052,0,0,1,2.533,1.249c-.756.063-1.5.19-2.254.281-.9.108-2.706.357-3.362-.492" transform="translate(-46.381 -217.099)" fill="#263238"/>
          <g id="Group_41717" data-name="Group 41717" transform="translate(24.429 163.538)" opacity="0.1">
            <g id="Group_41716" data-name="Group 41716">
              <g id="Group_41715" data-name="Group 41715" clip-path="url(#clip-path-7)">
                <path id="Path_106227" data-name="Path 106227" d="M71.243,391.889c-6.6-.115-12.965-.333-13.448-.646-.385-.244-.573-4.114-.667-8.8l2.437.017c2.694,2.189,8.394,6.778,11.678,9.424" transform="translate(-57.128 -382.447)"/>
              </g>
            </g>
          </g>
          <path id="Path_106228" data-name="Path 106228" d="M63.192,257.815H44.244s3.816-44.256,3.667-45.028c-.189-.99-1.308-5.47-2.8-11.321-.467-1.831-.97-3.8-1.493-5.832-1.412-5.506-2.97-11.523-4.327-16.759-2.036-7.844-3.626-13.938-3.626-13.938H51.726s1.872,5.932,4.23,13.652C59.8,191.134,64.935,208.4,65.442,212.6c.821,6.777-2.25,45.217-2.25,45.217" transform="translate(-20.415 -94.408)" fill="#37474f"/>
          <path id="Path_106229" data-name="Path 106229" d="M75.284,374.394c-2.894-.06-2.062-.084-4.957-.112-1.416-.014-10.724-.095-12.047.124a.031.031,0,0,0,0,.059c1.323.219,10.63.138,12.047.124,2.894-.028,2.063-.051,4.957-.112a.042.042,0,0,0,0-.084" transform="translate(-33.347 -214.22)" fill="#263238"/>
          <path id="Path_106230" data-name="Path 106230" d="M55.864,215.465c-.621-2.739-1.55-5.423-2.358-8.112q-2.463-8.194-4.956-16.38-1.244-4.094-2.5-8.184-.636-2.064-1.278-4.127c-.422-1.345-.9-2.678-1.282-4.035-.155-.552-.239-.249-.041.452.4,1.413.794,2.828,1.206,4.238q1.224,4.188,2.464,8.371,2.464,8.327,4.971,16.641,1.251,4.17,2.508,8.338a34.08,34.08,0,0,1,1.024,4.034,18.588,18.588,0,0,1,.168,4.315c-.182,2.9-.518,5.794-.786,8.686s-.536,5.8-.8,8.7q-.8,8.652-1.587,17.3c-.066.731-.13,1.463-.186,2.195-.019.245.351.226.377-.009.624-5.7,1.1-11.425,1.638-17.138q.8-8.526,1.6-17.053c.133-1.427.285-2.856.286-4.292a17.727,17.727,0,0,0-.461-3.941" transform="translate(-24.803 -99.792)" fill="#263238"/>
          <path id="Path_106231" data-name="Path 106231" d="M49.9,164.937c-1.115,8.625-3.24,24.8-4.789,36.528-3.622-14.215-9.446-36.528-9.446-36.528Z" transform="translate(-20.416 -94.408)" fill="#263238"/>
          <path id="Path_106232" data-name="Path 106232" d="M39.434,369.464c-.922.3-27.232.056-28.227-.59-.382-.239-.57-4.075-.664-8.716v-.145c-.022-.957-.038-1.942-.043-2.94,0-.138,0-.275-.006-.412-.062-6.7.422-13.649.422-13.649l17.2.112-.48,13.523-.018.535-.1,2.8-.009.288s10.029,4.6,11.049,5.424,1.8,3.474.877,3.771" transform="translate(-6.002 -196.336)" fill="#f7a9a0"/>
          <path id="Path_106233" data-name="Path 106233" d="M39.441,387.716c-.922.3-27.232.056-28.227-.59-.382-.239-.57-4.075-.664-8.716v-.145c-.022-.957-.038-1.942-.043-2.94,0-.138,0-.275-.006-.412l17.14-.015-.018.535-.1,2.8-.009.288s10.029,4.6,11.049,5.424,1.8,3.473.877,3.771" transform="translate(-6.01 -214.588)" fill="#ebebeb"/>
          <path id="Path_106234" data-name="Path 106234" d="M39.4,392.166c-.93.3-27.48.047-28.486-.6-.384-.244-.572-4.113-.667-8.794l17.118.114s10.121,4.644,11.149,5.475,1.817,3.506.886,3.808" transform="translate(-5.866 -219.093)" fill="#00a134"/>
          <path id="Path_106235" data-name="Path 106235" d="M41.621,401.938c-4.449-.152-22.41-.345-26.82-.156-.036,0-.036.026,0,.028,4.407.247,22.368.294,26.82.2.094,0,.095-.07,0-.073" transform="translate(-8.457 -229.931)" fill="#263238"/>
          <path id="Path_106236" data-name="Path 106236" d="M67.438,393.563a3.577,3.577,0,0,0-2.673,1.061,3.463,3.463,0,0,0-1.017,2.366c0,.026.05.028.054,0a4.131,4.131,0,0,1,3.636-3.373.028.028,0,0,0,0-.056" transform="translate(-36.488 -225.269)" fill="#263238"/>
          <path id="Path_106237" data-name="Path 106237" d="M47.632,384.107a6.2,6.2,0,0,0-4.973,2.013c-.044.056.037.117.09.09a24.62,24.62,0,0,1,4.912-1.884.112.112,0,0,0-.029-.22" transform="translate(-24.411 -219.858)" fill="#263238"/>
          <path id="Path_106238" data-name="Path 106238" d="M50.836,385.392a6.2,6.2,0,0,0-4.974,2.014c-.043.056.037.117.09.09a24.639,24.639,0,0,1,4.912-1.884.112.112,0,0,0-.029-.219" transform="translate(-26.244 -220.593)" fill="#263238"/>
          <path id="Path_106239" data-name="Path 106239" d="M54.04,386.676a6.2,6.2,0,0,0-4.973,2.014c-.044.056.037.117.09.09a24.635,24.635,0,0,1,4.912-1.884.112.112,0,0,0-.029-.219" transform="translate(-28.078 -221.328)" fill="#263238"/>
          <path id="Path_106240" data-name="Path 106240" d="M57.244,387.961a6.2,6.2,0,0,0-4.973,2.013c-.044.056.037.117.09.09a24.648,24.648,0,0,1,4.912-1.884.112.112,0,0,0-.029-.219" transform="translate(-29.912 -222.064)" fill="#263238"/>
          <path id="Path_106241" data-name="Path 106241" d="M15.561,392.025a1.554,1.554,0,0,0-.021,3.106,1.554,1.554,0,0,0,.021-3.106" transform="translate(-8.042 -224.391)" fill="#fff"/>
          <path id="Path_106242" data-name="Path 106242" d="M53.208,372.608c-.895-.756-2.038-.036-2.6.735a9.351,9.351,0,0,0-1.662,4.54.047.047,0,0,0,.055.052.217.217,0,0,0,.319.147,15.555,15.555,0,0,0,3.722-2.863c.568-.719,1.013-1.894.167-2.61m-2.222,3.765c-.617.441-1.253.848-1.854,1.312a28.007,28.007,0,0,1,1.029-2.63,10.076,10.076,0,0,1,.662-1.2c.393-.585,2.156-2.057,2.314-.117.088,1.069-1.415,2.1-2.151,2.63" transform="translate(-28.015 -213.093)" fill="#263238"/>
          <path id="Path_106243" data-name="Path 106243" d="M36.043,382.688a15.555,15.555,0,0,0,4.679-.4.217.217,0,0,0,.137-.323.047.047,0,0,0,.006-.075,9.349,9.349,0,0,0-4.289-2.232c-.936-.189-2.265.05-2.416,1.211-.142,1.1.979,1.667,1.883,1.815m-1.066-1.024c-1.19-1.54,1.1-1.641,1.788-1.474a10,10,0,0,1,1.295.436,27.949,27.949,0,0,1,2.533,1.249c-.756.063-1.5.19-2.254.281-.9.108-2.706.357-3.362-.492" transform="translate(-19.546 -217.281)" fill="#263238"/>
          <path id="Path_106244" data-name="Path 106244" d="M34.85,164.937a71.1,71.1,0,0,1-2.129,13.769c-.141.5-.294,1-.459,1.473a28.568,28.568,0,0,0-4.628,2.379s-.185,6.182-.37,13.076c-.205,7.707-.418,16.3-.374,18.127.161,6.822-.853,44.332-.853,44.332l-18.944.077s3.425-41.889,3.4-44.388c-.036-4.017.918-21.77,1.654-34.717.451-7.977.821-14.127.821-14.127Z" transform="translate(-4.059 -94.408)" fill="#37474f"/>
          <path id="Path_106245" data-name="Path 106245" d="M27.087,374.775c-2.894-.048-2.063-.075-4.957-.091-1.416-.008-10.724-.049-12.046.176a.031.031,0,0,0,0,.059c1.324.213,10.631.093,12.047.073,2.894-.04,2.063-.06,4.956-.133a.042.042,0,0,0,0-.084" transform="translate(-5.759 -214.461)" fill="#263238"/>
          <path id="Path_106246" data-name="Path 106246" d="M18.143,171.267c-.349,10.569-.718,21.139-1.191,31.7-.474,10.6-1.113,21.2-2,31.773-.5,5.908-.963,14.218-1.6,20.113,0,.039.056.054.062.013,1.379-10.484,2.148-23.448,2.827-34s1.138-21.116,1.5-31.68c.2-5.976.359-11.954.538-17.931,0-.085-.129-.077-.132.007" transform="translate(-7.642 -97.993)" fill="#263238"/>
          <path id="Path_106247" data-name="Path 106247" d="M60.505,199.5a35.128,35.128,0,0,0-5.416,2.837.063.063,0,0,0,.056.112c1.828-.888,3.694-1.743,5.47-2.73a.122.122,0,0,0-.111-.218" transform="translate(-31.514 -114.184)" fill="#263238"/>
          <path id="Path_106248" data-name="Path 106248" d="M63.431,184.23c-.126.673-.289,1.34-.434,2.009-.136.628-.236,1.269-.4,1.89a3.219,3.219,0,0,1-.88,1.583c-.247.229-.518.432-.781.641-.142.113-.3.222-.442.336.019-.089.035-.179.051-.271q.067-.383.13-.767.143-.851.273-1.7c.17-1.117.328-2.246.561-3.352a.036.036,0,0,0-.07-.018c-.278,1.1-.586,2.18-.828,3.286-.119.542-.543,3.219-.562,3.408s-.035.392-.042.588a2.339,2.339,0,0,0,0,.6c.012.049.07.041.091.008l0,0a2.369,2.369,0,0,0,.171-.582c.049-.191.092-.384.127-.579.013-.07.023-.142.032-.213.264-.16.509-.372.756-.55.266-.192.536-.38.788-.591a3.017,3.017,0,0,0,.961-1.5,10.986,10.986,0,0,0,.316-1.923c.085-.761.147-1.525.253-2.283.006-.045-.061-.064-.069-.018" transform="translate(-34.334 -105.436)" fill="#263238"/>
          <path id="Path_106249" data-name="Path 106249" d="M50.433,115.051c1.469,4.42,8.035,18.463,10.8,19.444,2.873,1.02,13.97,2.291,16.433.35,1.206-.95,1.623-11.1,0-10.858s-11.412.611-12.574.194-8.941-11.736-12.1-14.476c-5.442-4.726-3.35,2.965-2.558,5.346" transform="translate(-28.26 -61.932)" fill="#f7a9a0"/>
          <path id="Path_106250" data-name="Path 106250" d="M74.831,123.786l-.162,12.651s-11.377.03-14.41-1.565-9.447-16.215-11.049-21.809.961-6.46,5.036-2.354,10.2,12.707,10.931,12.886,9.653.192,9.653.192" transform="translate(-27.891 -61.902)" fill="#00a134"/>
          <path id="Path_106251" data-name="Path 106251" d="M63.056,125.75a23.191,23.191,0,0,0-6.722,2.224c-.128.064-.257.133-.385.2-.1.047-.192.1-.286.154-.188.1-.372.2-.556.312-.026-.068-.056-.137-.081-.205.128-.077.261-.154.389-.227.094-.051.188-.1.282-.15.175-.1.355-.2.535-.287a21.439,21.439,0,0,1,3.382-1.4,22.505,22.505,0,0,1,3.3-.8l.141.18m2.54,3.194a6.767,6.767,0,0,1-.62.286,6.348,6.348,0,0,1-1.732.453c-.3.034-.6.086-.9.1l-.9.026a9.95,9.95,0,0,1-3.515-.744c-.671-.261-1.326-.577-1.98-.894-.086-.034-.167-.077-.252-.115-.205-.094-.411-.192-.62-.282-.064-.03-.133-.06-.2-.086s-.124-.056-.188-.081c.026.06.047.12.073.18s.043.1.06.154h0a.106.106,0,0,1,.038.017c.184.081.368.162.552.248.081.038.162.081.248.12.71.338,1.424.7,2.168.988a10.231,10.231,0,0,0,3.609.765l.924-.021c.308-.017.616-.073.919-.107a6.7,6.7,0,0,0,1.8-.466,6.841,6.841,0,0,0,.7-.321c-.06-.073-.12-.15-.18-.222M61.218,123.5a23.006,23.006,0,0,0-2.33,1.249,30.407,30.407,0,0,0-4.011,2.946c-.038.034-.077.064-.115.1.021.051.043.1.06.154h0a.294.294,0,0,1,.013.034c.009-.009.017-.017.026-.017.073-.064.141-.128.214-.184a30.363,30.363,0,0,1,3.93-2.839,26.574,26.574,0,0,1,2.365-1.257c-.051-.06-.1-.124-.154-.184" transform="translate(-31.303 -70.688)" fill="#fff"/>
          <path id="Path_106252" data-name="Path 106252" d="M101.962,151.27c.009-1,.074-5.01.167-6,0-.016.027-.019.029,0,.1.966.149,4.923.142,5.926a54.735,54.735,0,0,1-.222,6c0,.035-.062.043-.065,0-.149-1.972-.068-3.954-.05-5.929" transform="translate(-58.34 -83.141)" fill="#263238"/>
          <g id="Group_41720" data-name="Group 41720" transform="translate(20.835 46.247)" opacity="0.1">
            <g id="Group_41719" data-name="Group 41719">
              <g id="Group_41718" data-name="Group 41718" clip-path="url(#clip-path-8)">
                <path id="Path_106253" data-name="Path 106253" d="M49.207,113.064c1.6,5.6,8.018,20.214,11.049,21.808,1.454.766,4.823,1.159,7.941,1.356L50.331,108.164c-1.527-.171-2.1,1.484-1.125,4.9" transform="translate(-48.724 -108.152)"/>
              </g>
            </g>
          </g>
          <path id="Path_106254" data-name="Path 106254" d="M16.172,142.926c.069.068,27.828-1.832,28.06-2.135.325-.426-8.46-28.634-10.662-32.779-.938-1.766-5.427-2.02-7.2-.351-4.442,4.178-7.534,17.686-8.184,21.737-1.08,6.674-2.26,13.283-2.013,13.527" transform="translate(-9.237 -60.982)" fill="#00a134"/>
          <path id="Path_106255" data-name="Path 106255" d="M44.185,163.907c-.261-.154-.517-.308-.778-.458a34.491,34.491,0,0,0-3.237-1.663c-.2-.09-.406-.18-.607-.265-.1-.038-.2-.081-.3-.12a20.935,20.935,0,0,0-2.51-.859,18.785,18.785,0,0,0-3.571-.611,23.3,23.3,0,0,0-7.188.8c-.141.038-.282.077-.419.12-.107.026-.21.056-.312.09a29.607,29.607,0,0,0-4.734,1.907c-.419.2-.838.419-1.249.637-.043.021-.086.047-.128.068-.158.086-.316.171-.47.252l.038-.218c.158-.09.316-.175.475-.261.479-.261.962-.513,1.45-.748.4-.205.812-.4,1.223-.582a29.079,29.079,0,0,1,3.173-1.223c.1-.03.21-.064.312-.09.192-.064.385-.12.582-.171a20.972,20.972,0,0,1,3.6-.68,22.257,22.257,0,0,1,3.66-.094,20.127,20.127,0,0,1,6.23,1.561c.094.043.192.081.291.128.171.073.342.15.509.227a33.723,33.723,0,0,1,3.237,1.693c.222.133.445.261.667.393.017.06.034.115.051.171m-1.437-4.717c-.71.419-1.4.86-2.091,1.309-.411.265-.817.535-1.227.8-.056.038-.107.073-.162.107-.56.359-1.129.706-1.706,1.031a11.012,11.012,0,0,1-3.357,1.291,6.457,6.457,0,0,1-1.792.09c-.3-.03-.6-.038-.9-.081l-.889-.158a10.027,10.027,0,0,1-3.288-1.45c-.6-.393-1.176-.838-1.757-1.279-.073-.056-.145-.111-.222-.167-.18-.137-.363-.274-.547-.4-.06-.047-.115-.086-.175-.128-.086-.06-.171-.115-.257-.175a6.431,6.431,0,0,0-3.476-1.184,4.01,4.01,0,0,0-1.437.3l-.038.231a4.01,4.01,0,0,1,1.471-.308,6.179,6.179,0,0,1,3.34,1.176l.15.1.175.124c.162.115.325.235.483.359.077.056.15.111.222.167.629.479,1.253.975,1.924,1.411a10.227,10.227,0,0,0,3.37,1.488l.915.167c.3.043.611.056.919.085a6.931,6.931,0,0,0,1.856-.09,11.127,11.127,0,0,0,3.442-1.326c.637-.359,1.257-.748,1.869-1.15.051-.03.107-.064.158-.1l1.078-.706c.667-.44,1.343-.872,2.027-1.283Zm-.47-1.514a21.754,21.754,0,0,0-2.262-.6,16.943,16.943,0,0,0-3.656-.334,21.388,21.388,0,0,0-3.656.385,23.72,23.72,0,0,0-3.545.958,30.166,30.166,0,0,0-4.524,2.061c-.086.043-.167.09-.248.137-.607.338-1.2.688-1.792,1.052-.654.4-1.3.817-1.946,1.236-.5.321-1,.65-1.492.975-.158.107-.321.21-.479.312-.013.068-.021.133-.03.2.633-.4,1.257-.812,1.886-1.214.445-.287.889-.573,1.338-.851.269-.171.539-.338.812-.5.616-.372,1.244-.735,1.877-1.082.081-.047.162-.09.248-.133a29.912,29.912,0,0,1,4.426-1.976,23.711,23.711,0,0,1,7.124-1.36,16.878,16.878,0,0,1,3.622.308,21.431,21.431,0,0,1,2.356.616c-.021-.064-.043-.128-.06-.188" transform="translate(-10.674 -89.718)" fill="#fff"/>
          <path id="Path_106256" data-name="Path 106256" d="M13.98,112.579C6.612,120.714-1.7,134.432,1.858,137.362c3.246,2.676,15.1.13,22.553-2.783,1.418-.555-4.334-13.1-5.781-12.357a41.134,41.134,0,0,1-4.717,2.122c-.409.112,1.832-2.626,4.327-9.2,2.536-6.686-.048-7.213-4.26-2.563" transform="translate(-0.578 -62.694)" fill="#f7a9a0"/>
          <path id="Path_106257" data-name="Path 106257" d="M59.184,132.873c.007,1.459-3.591,1.172-3.591,1.172a2.69,2.69,0,0,1,1.1,1.467c.271,1.075-1.3,1.972-1.3,1.972a3.32,3.32,0,0,1,.909,1.731c.157,1.055-1.3,2.185-1.3,2.185a2.908,2.908,0,0,1-.16,2.025c-.855,1.662-3.73,1.7-5.505,2.069a37.827,37.827,0,0,0-5.824,1.855l-3.3-13.1s7.7-4.572,9.855-4.47c1.814.086,9.1.869,9.113,3.1" transform="translate(-23.019 -74.281)" fill="#f7a9a0"/>
          <path id="Path_106258" data-name="Path 106258" d="M68.156,138.7a24.393,24.393,0,0,0-5.905-.724.034.034,0,0,0,0,.068c1.955.049,3.943.622,5.892.749a.048.048,0,0,0,.015-.093" transform="translate(-35.612 -78.975)" fill="#263238"/>
          <path id="Path_106259" data-name="Path 106259" d="M67.963,147.347a5.175,5.175,0,0,0-1.351-.075q-.72.01-1.438.044c-.959.044-1.917.11-2.873.2-.042,0-.047.07,0,.068.956-.042,1.912-.071,2.869-.073q.718,0,1.437.008a6.17,6.17,0,0,0,1.353-.045.069.069,0,0,0,0-.131" transform="translate(-35.642 -84.292)" fill="#263238"/>
          <path id="Path_106260" data-name="Path 106260" d="M67.769,156.887a3.6,3.6,0,0,0-1.22,0q-.654.044-1.309.08c-.874.049-1.748.1-2.622.115-.044,0-.046.069,0,.068.889-.014,1.777-.016,2.666-.038q.654-.016,1.308-.039a3.389,3.389,0,0,0,1.182-.14.024.024,0,0,0,0-.044" transform="translate(-35.822 -89.768)" fill="#263238"/>
          <path id="Path_106261" data-name="Path 106261" d="M16.853,122.348l2.838,14.1s-17.646,4.6-19.476.138,8.546-21.042,14.527-25.772,3.739,2.723,3.557,3.318c-.808,2.646-4.571,9.551-4.571,9.551Z" transform="translate(-0.001 -62.532)" fill="#ffc727"/>
          <path id="Path_106262" data-name="Path 106262" d="M19.691,136.445S2.043,141.05.213,136.586c-.984-2.4,1.565-8.309,5.059-13.991.017-.03.038-.06.056-.09s.047-.077.073-.115.047-.077.073-.115a70.506,70.506,0,0,1,4.088-5.9c.047-.064.1-.128.15-.192a33.054,33.054,0,0,1,5.033-5.371c5.978-4.729,3.737,2.72,3.553,3.318-.056.188-.128.4-.214.624-.034.086-.068.18-.107.274-.492,1.257-1.3,2.951-2.082,4.507-.034.064-.064.128-.094.188-.013.021-.021.043-.03.06-.017.034-.034.064-.051.1-1.013,2-1.933,3.69-1.988,3.793l3.122-1.326Z" transform="translate(0 -62.533)" fill="#00a134"/>
          <path id="Path_106263" data-name="Path 106263" d="M22.95,126.908c-.034.064-.064.128-.094.188-.013.021-.021.043-.03.06l-.214.137-1.74,1.133a26.137,26.137,0,0,1-3.186,1.8,8.316,8.316,0,0,1-1.749.582,3.608,3.608,0,0,1-1.847-.056c-.15-.043-.3-.077-.449-.124l-.428-.184a6.038,6.038,0,0,1-.821-.436l-.064-.038c.017-.03.038-.06.056-.09s.047-.077.073-.115a.306.306,0,0,0,.064.047l.06.034a4.773,4.773,0,0,0,.727.393l.411.18c.141.043.286.081.428.124a3.432,3.432,0,0,0,1.753.064,8.244,8.244,0,0,0,1.71-.556,26.451,26.451,0,0,0,3.177-1.753l1.39-.889.363-.235Zm-.411.261c-2.194.535-4.345,1.214-6.534,1.749-1.146.286-2.309.539-3.476.727-.026.038-.051.077-.073.115s-.047.077-.073.115c.064-.013.133-.021.2-.034,1.167-.2,2.326-.458,3.472-.748,2.057-.517,4.075-1.159,6.123-1.689.145-.038.291-.077.436-.111.051-.013.107-.03.162-.038.017-.034.034-.064.051-.1.009-.017.017-.039.03-.06-.107.021-.214.047-.316.073m.141-3.553a10.206,10.206,0,0,1-1.663.714,4.4,4.4,0,0,1-1.753.222,5.659,5.659,0,0,1-2.5-1c-.051.064-.1.128-.15.192a5.9,5.9,0,0,0,2.621,1.022,4.545,4.545,0,0,0,1.843-.248,9.913,9.913,0,0,0,1.689-.74,25.977,25.977,0,0,0,2.262-1.381c.038-.094.073-.188.107-.274a27.624,27.624,0,0,1-2.459,1.488" transform="translate(-7.056 -69.904)" fill="#fff"/>
          <path id="Path_106264" data-name="Path 106264" d="M27.3,139.759c-2.026.713-7.338,3.361-8.5,4.449-.034.032,0,.087.041.06,1.148-.808,7.712-4.021,8.737-4.414a1.359,1.359,0,0,0,.072.159c.034.049.061.02.06-.025a2.756,2.756,0,0,0-.076-.343s-.109.036-.331.114" transform="translate(-10.75 -79.931)" fill="#263238"/>
          <path id="Path_106265" data-name="Path 106265" d="M33.78,150.414c-.192-.984-.928-4.924-1.036-5.916,0-.016.023-.024.028-.008.288.927,1.129,4.794,1.323,5.779a54.7,54.7,0,0,1,.981,5.928c0,.035-.053.054-.063.017-.54-1.9-.856-3.861-1.232-5.8" transform="translate(-18.743 -82.699)" fill="#263238"/>
          <path id="Path_106266" data-name="Path 106266" d="M31.772,133.77c.553-1.2,1.228-2.344,1.834-3.517s1.238-2.33,1.8-3.518c.007-.015.034,0,.027.012-.344.811-.687,1.617-1.053,2.415.11-.126.216-.257.318-.388.186-.24.359-.492.527-.745a.015.015,0,0,1,.026.016,4.093,4.093,0,0,1-.49.8,5.337,5.337,0,0,1-.471.517c-.151.325-.306.648-.469.969a25.2,25.2,0,0,1-1.846,3.446c-.026.035-.223.035-.2,0" transform="translate(-18.185 -72.537)" fill="#263238"/>
          <path id="Path_106267" data-name="Path 106267" d="M18.021,174.046c2.082-.027,9.945-1.572,11.892-1.97-.025-.207-.018-.279-.052-.571,0-.038.056-.056.063-.016.055.276.24.827.162.857-.935.368-10.021,1.956-12.068,1.786a.043.043,0,0,1,0-.087" transform="translate(-10.291 -98.145)" fill="#263238"/>
          <path id="Path_106268" data-name="Path 106268" d="M67.6,146.929l14.64,1.97L87.8,128.552l-14.64-1.97Z" transform="translate(-38.694 -72.454)" fill="#263238"/>
          <path id="Path_106269" data-name="Path 106269" d="M69.284,147.155l14.64,1.97,5.555-20.347-14.64-1.97Z" transform="translate(-39.657 -72.584)" fill="#37474f"/>
          <path id="Path_106270" data-name="Path 106270" d="M93.819,149.231a1.6,1.6,0,0,1-1.74,1.215,1.3,1.3,0,0,1-1.108-1.6,1.6,1.6,0,0,1,1.74-1.216,1.3,1.3,0,0,1,1.108,1.6" transform="translate(-52.051 -84.496)" fill="#fff"/>
          <path id="Path_106271" data-name="Path 106271" d="M103.56,141.226c.609,1.713,2.356,3.94,2.38,5.291a1.55,1.55,0,0,1-1.022,1.542A2.305,2.305,0,0,1,106,150.087c-.093.632-1.185,1.04-1.185,1.04a1.849,1.849,0,0,1,.758,1.769c-.181.863-1.248,1.143-1.248,1.143a2.208,2.208,0,0,1,.172,1.918c-.946,1.663-8.479.9-9.361-2-.411-1.348,1.419-1.061,1.419-1.061s-2.532-1.048-2.413-2.605,2.473-1.04,2.473-1.04-2.444-1.037-2.159-2.639c.3-1.668,2.564-.748,2.564-.748s-1.559-1.305-1.06-2.482c.824-1.943,3.739.9,5.435.677l1.191-2.637Z" transform="translate(-53.884 -80.836)" fill="#f7a9a0"/>
          <path id="Path_106272" data-name="Path 106272" d="M115.8,138.974c-.435-1.672,1.762-3.458,1.575-5.117-.252-2.244-2.942-.343-3.816,2.789l-.251,2.551Z" transform="translate(-64.858 -76.058)" fill="#f7a9a0"/>
          <path id="Path_106273" data-name="Path 106273" d="M107.208,169.522a.02.02,0,0,1,0,.04A13.135,13.135,0,0,1,99.5,168.31c-.075-.039-.042-.178.048-.15a26.886,26.886,0,0,0,7.661,1.362" transform="translate(-56.928 -96.251)" fill="#263238"/>
          <path id="Path_106274" data-name="Path 106274" d="M107.946,161.771c.03,0,.029.05,0,.054a12.3,12.3,0,0,1-8.329-1.889c-.084-.058-.1-.2,0-.136a22.136,22.136,0,0,0,8.331,1.97" transform="translate(-56.979 -91.459)" fill="#263238"/>
          <path id="Path_106275" data-name="Path 106275" d="M100.46,151.646a16.9,16.9,0,0,0,7.93,2.392c.037,0,.029.055,0,.061a11.072,11.072,0,0,1-4.582-.456,7.57,7.57,0,0,1-3.4-1.912c-.038-.037,0-.118.054-.085" transform="translate(-57.463 -86.796)" fill="#263238"/>
          <path id="Path_106276" data-name="Path 106276" d="M48.43,111.052a.01.01,0,0,0-.021,0c.052,1.264.092,4.192-1.884,3.974a4.211,4.211,0,0,1-2.11-1.1,11.181,11.181,0,0,1-1.645-1.737,16.394,16.394,0,0,1-1.52-2.218c-.018-.033-.068,0-.049.033.454.781.829,1.59,1.358,2.328a9.684,9.684,0,0,0,1.774,1.922,4.2,4.2,0,0,0,2.248,1.079,1.6,1.6,0,0,0,1.648-1.171,7.046,7.046,0,0,0,.2-3.111" transform="translate(-23.581 -62.939)" fill="#263238"/>
          <path id="Path_106277" data-name="Path 106277" d="M47.6,105.334c-1.426.124-3.762-2.547-4.447-4.391-.046-.127.314-1.334.681-2.822.22-.9.443-1.915.58-2.853l5.672,2.289a15.1,15.1,0,0,0-1.094,3.517,2.1,2.1,0,0,0-.016.391c0,.018,0,.04,0,.065.012.748,0,3.683-1.376,3.8" transform="translate(-24.696 -54.53)" fill="#f7a9a0"/>
          <path id="Path_106278" data-name="Path 106278" d="M51.177,101.674c0,.017,0,.038,0,.062a3.75,3.75,0,0,1-.608-.053c-3.392-.574-3.585-4.857-3.569-6.052l1.417.571,3.872,1.562a15,15,0,0,0-1.093,3.518,2.028,2.028,0,0,0-.018.39" transform="translate(-26.901 -54.739)" fill="#263238"/>
          <path id="Path_106279" data-name="Path 106279" d="M44.386,75.526c-.59,2.123.676,8.181,2.208,9.5,2.222,1.913,5.783,2.011,7.389-.642,1.557-2.572-.233-10.438-1.937-11.629a5.256,5.256,0,0,0-7.66,2.771" transform="translate(-25.321 -41.205)" fill="#f7a9a0"/>
          <path id="Path_106280" data-name="Path 106280" d="M58.249,89.207c-.006-.015-.028.026-.024.042.1.406.138.887-.2,1.1-.011.006-.005.027.008.022.438-.155.376-.793.22-1.162" transform="translate(-33.208 -51.059)" fill="#263238"/>
          <path id="Path_106281" data-name="Path 106281" d="M56.959,88.383c-.667.084-.45,1.412.168,1.334s.391-1.4-.168-1.334" transform="translate(-32.369 -50.588)" fill="#263238"/>
          <path id="Path_106282" data-name="Path 106282" d="M63.991,88.133c0-.016.035.014.038.031.054.414.186.878.58.954.012,0,.015.024,0,.024-.465.011-.633-.608-.618-1.008" transform="translate(-36.627 -50.444)" fill="#263238"/>
          <path id="Path_106283" data-name="Path 106283" d="M64.289,86.976c.653-.158.922,1.161.317,1.307s-.865-1.174-.317-1.307" transform="translate(-36.628 -49.777)" fill="#263238"/>
          <path id="Path_106284" data-name="Path 106284" d="M55.475,85.771a5.22,5.22,0,0,0,.485-.265.893.893,0,0,0,.443-.365.284.284,0,0,0-.1-.333.706.706,0,0,0-.714.043,1.039,1.039,0,0,0-.517.539.3.3,0,0,0,.4.381" transform="translate(-31.508 -48.497)" fill="#263238"/>
          <path id="Path_106285" data-name="Path 106285" d="M64.1,84.972a5.149,5.149,0,0,1-.55-.051A.889.889,0,0,1,63,84.762a.284.284,0,0,1-.04-.345.7.7,0,0,1,.672-.244,1.036,1.036,0,0,1,.689.289.3.3,0,0,1-.219.51" transform="translate(-36.016 -48.178)" fill="#263238"/>
          <path id="Path_106286" data-name="Path 106286" d="M58.65,98.2c.114.08.234.2.386.185a1.091,1.091,0,0,0,.425-.176.015.015,0,0,1,.021.018.561.561,0,0,1-.486.309.444.444,0,0,1-.383-.311c-.01-.023.02-.037.037-.025" transform="translate(-33.549 -56.209)" fill="#263238"/>
          <path id="Path_106287" data-name="Path 106287" d="M59.226,88.566a1.42,1.42,0,0,0,1.037.47,1.779,1.779,0,0,0,.508-.059.5.5,0,0,0,.094-.027c.03-.009.056-.017.088-.029a.1.1,0,0,0,.067-.106v0a.2.2,0,0,0-.011-.041v0L61,88.733c-.043-.318-.153-.795-.153-.795.125.039.759.208.722.044a21.312,21.312,0,0,0-1.236-4.151.039.039,0,0,0-.074.023c.242,1.315.714,2.579.979,3.9a2.494,2.494,0,0,0-.694-.093c-.043.021.228.918.236,1.062a.061.061,0,0,1,0,.015,1.967,1.967,0,0,1-1.524-.213c-.035-.018-.062.015-.033.043" transform="translate(-33.893 -47.971)" fill="#263238"/>
          <path id="Path_106288" data-name="Path 106288" d="M60.552,95.325a1.652,1.652,0,0,1-.572.612.742.742,0,0,1-.442.1c-.337-.033-.393-.328-.375-.591a1.793,1.793,0,0,1,.082-.411,2.14,2.14,0,0,0,1.306.289" transform="translate(-33.863 -54.397)" fill="#263238"/>
          <path id="Path_106289" data-name="Path 106289" d="M59.981,96.486a.745.745,0,0,1-.442.1c-.337-.033-.393-.328-.374-.591a.769.769,0,0,1,.816.49" transform="translate(-33.864 -54.946)" fill="#ff9abb"/>
          <path id="Path_106290" data-name="Path 106290" d="M52.716,74.29c-.341-.478-.718-.952-1.057-.988s-.381.782-1.093.986c-.96.276-1.624-.517-3.007-.319-1.985.286-2.5,2.106-1.944,4.891.492,2.488-.955,3.045-.955,3.045s-2.086-5.272-.935-7.414A6,6,0,0,1,50.986,72c1,.443,1.73,2.287,1.73,2.287" transform="translate(-24.829 -40.97)" fill="#263238"/>
          <path id="Path_106291" data-name="Path 106291" d="M45.223,90.535s-1.464-1.9-2.335-1.374.293,3.335,1.359,3.678a1.067,1.067,0,0,0,1.4-.638Z" transform="translate(-24.374 -50.981)" fill="#f7a9a0"/>
          <path id="Path_106292" data-name="Path 106292" d="M44.1,91.147a.014.014,0,0,0,0,.028A2.7,2.7,0,0,1,45.568,92.8a.589.589,0,0,0-.887-.121c-.018.015,0,.044.022.038a.656.656,0,0,1,.732.2,3.158,3.158,0,0,1,.372.568c.038.064.154.024.126-.051l-.007-.017c-.024-.938-.811-2.215-1.821-2.264" transform="translate(-25.237 -52.172)" fill="#263238"/>
          <path id="Path_106293" data-name="Path 106293" d="M46.385,70.349A8.973,8.973,0,0,0,43.8,70c-.976.03-3.957.737-4.586,1.456s-.373,3.592-.327,4.011.627,2.9,1.633,3.368.422-3.821,1.637-5.464,4.229-3.022,4.229-3.022" transform="translate(-22.206 -40.066)" fill="#00a134"/>
          <g id="Group_41723" data-name="Group 41723" transform="translate(17.341 29.966)" opacity="0.1">
            <g id="Group_41722" data-name="Group 41722">
              <g id="Group_41721" data-name="Group 41721" clip-path="url(#clip-path-9)">
                <path id="Path_106294" data-name="Path 106294" d="M47.392,70.4s-3.015,1.379-4.23,3.022-.632,5.927-1.639,5.464a2.024,2.024,0,0,1-.97-1.213,10.542,10.542,0,0,1,1.025-4.8,6.49,6.49,0,0,1,4.117-2.793,10.239,10.239,0,0,1,1.7.319" transform="translate(-40.553 -70.077)"/>
              </g>
            </g>
          </g>
          <path id="Path_106295" data-name="Path 106295" d="M42.2,81.411a17,17,0,0,1,1.521-6.317c.939-1.937,4.349-3.518,4.853-3.568,1.223-.12,1.58.417,1.754.279s-1.253-1.325-1.626-1.475a3.978,3.978,0,0,0-1.741-.157c-.525.1-3.722.928-4.684,2.5s-2.023,5.714-1.561,6.659c.112.227.453.331.607.653.2.423.376.922.559,1.211.147.233.328.317.32.217" transform="translate(-23.241 -40.145)" fill="#00a134"/>
          <path id="Path_106296" data-name="Path 106296" d="M45.986,78.358a5.859,5.859,0,0,1-.878-.454,4.223,4.223,0,0,1-.786-.614c-.017-.017-.046,0-.03.024a3.226,3.226,0,0,0,.74.711,2.748,2.748,0,0,0,.938.4c.037.008.05-.048.017-.062" transform="translate(-25.349 -44.237)" fill="#263238"/>
          <path id="Path_106297" data-name="Path 106297" d="M42.3,91.452c-.044-.077-.11-.142-.161-.214a1.433,1.433,0,0,1-.151-.265,2.6,2.6,0,0,0-.216-.532,2.062,2.062,0,0,0-.326-.337.769.769,0,0,1-.3-.427.019.019,0,0,0-.038.005c.053.346.324.555.52.821a3.678,3.678,0,0,1,.249.567.9.9,0,0,0,.375.428c.025.011.061-.018.045-.045" transform="translate(-23.532 -51.321)" fill="#263238"/>
          <path id="Path_106298" data-name="Path 106298" d="M42.577,88.671a5.054,5.054,0,0,1-.38-.337,3.663,3.663,0,0,1-.312-.387c-.095-.133-.178-.274-.27-.408-.108-.159-.237-.308-.337-.472-.013-.021-.043,0-.03.024.1.17.179.359.278.534a4.028,4.028,0,0,0,.289.431,2.559,2.559,0,0,0,.334.367,1.239,1.239,0,0,0,.418.267.01.01,0,0,0,.01-.018" transform="translate(-23.608 -49.832)" fill="#263238"/>
          <path id="Path_106299" data-name="Path 106299" d="M43.11,86.3a3.29,3.29,0,0,1-.729-.6c-.205-.23-.4-.474-.588-.718-.013-.016-.043,0-.033.019a3.9,3.9,0,0,0,.528.8,2.011,2.011,0,0,0,.347.314,2.146,2.146,0,0,0,.455.219c.021.007.041-.022.02-.035" transform="translate(-23.902 -48.636)" fill="#263238"/>
          <path id="Path_106300" data-name="Path 106300" d="M43.8,83.625a1.124,1.124,0,0,1-.35-.257c-.118-.112-.235-.227-.347-.346s-.219-.224-.326-.338a1.123,1.123,0,0,1-.27-.386.019.019,0,0,0-.037.01,1.167,1.167,0,0,0,.2.424,3.014,3.014,0,0,0,.328.4,4.1,4.1,0,0,0,.38.346.755.755,0,0,0,.407.194c.029,0,.044-.039.014-.051" transform="translate(-24.311 -47.1)" fill="#263238"/>
          <path id="Path_106301" data-name="Path 106301" d="M44.43,80.925c-.122-.087-.242-.174-.357-.271s-.224-.2-.331-.3-.229-.214-.335-.329a.019.019,0,0,0-.03.024,3.045,3.045,0,0,0,.275.381,3.3,3.3,0,0,0,.332.324,3.611,3.611,0,0,0,.365.279,1.193,1.193,0,0,0,.41.2.027.027,0,0,0,.025-.043,2.239,2.239,0,0,0-.353-.265" transform="translate(-24.826 -45.801)" fill="#263238"/>
          <path id="Path_106302" data-name="Path 106302" d="M47.551,76.471c-.134-.122-.265-.242-.411-.351a5.018,5.018,0,0,0-.462-.305,4.918,4.918,0,0,0-.977-.456c-.019-.006-.039.021-.019.033.611.376,1.238.728,1.846,1.11a.019.019,0,0,0,.023-.03" transform="translate(-26.143 -43.134)" fill="#263238"/>
          <path id="Path_106303" data-name="Path 106303" d="M49.266,74.5a2.375,2.375,0,0,0-.444-.306,5.128,5.128,0,0,0-1.06-.39.019.019,0,0,0-.015.035c.326.15.655.294.972.462a4.876,4.876,0,0,1,.459.269c.148.1.269.229.41.335a.014.014,0,0,0,.022-.017,1.341,1.341,0,0,0-.343-.39" transform="translate(-27.323 -42.244)" fill="#263238"/>
          <path id="Path_106304" data-name="Path 106304" d="M51.569,73.144a2.527,2.527,0,0,0-.414-.31,2.909,2.909,0,0,0-.908-.357c-.021,0-.03.029-.01.036a5.756,5.756,0,0,1,.874.446c.139.087.274.181.41.273s.257.215.4.292c.012.006.021-.01.015-.019a2.655,2.655,0,0,0-.366-.361" transform="translate(-28.748 -41.485)" fill="#263238"/>
          <path id="Path_106305" data-name="Path 106305" d="M53.6,71.951c-.135-.079-.273-.15-.413-.22a1.461,1.461,0,0,0-.43-.16c-.023,0-.028.027-.01.036.262.148.522.3.781.458a4,4,0,0,1,.631.544c.009.009.024,0,.019-.015a1.473,1.473,0,0,0-.578-.643" transform="translate(-30.188 -40.966)" fill="#263238"/>
          <path id="Path_106306" data-name="Path 106306" d="M55.546,71.243a2.379,2.379,0,0,0-.834-.354c-.021-.005-.031.03-.01.037a2.9,2.9,0,0,1,.773.411,4.057,4.057,0,0,1,.651.59c.009.011.03,0,.023-.013a1.964,1.964,0,0,0-.6-.67" transform="translate(-31.304 -40.576)" fill="#263238"/>
          <path id="Path_106307" data-name="Path 106307" d="M57.919,71.394a1.529,1.529,0,0,0-.124-.158,1.952,1.952,0,0,0-.3-.27,4.119,4.119,0,0,0-.724-.4c-.022-.011-.037.025-.015.035a3.36,3.36,0,0,1,.685.417,2.665,2.665,0,0,1,.292.264c.044.046.086.095.126.145a1,1,0,0,0,.12.147.019.019,0,0,0,.03-.018.526.526,0,0,0-.087-.166" transform="translate(-32.479 -40.393)" fill="#263238"/>
          <path id="Path_106308" data-name="Path 106308" d="M59.989,71.594a2.865,2.865,0,0,0-.249-.223,2.563,2.563,0,0,0-.272-.19c-.1-.059-.2-.114-.292-.177a.019.019,0,1,0-.019.032,2,2,0,0,1,.278.2l.251.2.25.205a3.047,3.047,0,0,0,.252.213.015.015,0,0,0,.021-.021,1.426,1.426,0,0,0-.22-.245" transform="translate(-33.855 -40.64)" fill="#263238"/>
        </g>
      </g>
      <rect id="Rectangle_11866" data-name="Rectangle 11866" width="174.103" height="179.359" transform="translate(5632.422 -4028.024)" fill="none"/>
      <rect id="Rectangle_11867" data-name="Rectangle 11867" width="174.103" height="183.359" transform="translate(5629.982 -4030.049)" fill="none"/>
      <g id="Group_41902" data-name="Group 41902" transform="translate(5732.846 -3976.927) rotate(1)">
        <circle id="Ellipse_976" data-name="Ellipse 976" cx="6.627" cy="6.627" r="6.627" transform="translate(0 0)" fill="#f0584a"/>
        <text id="_1" data-name="1" transform="translate(4.468 8.877)" fill="#fff" font-size="7" font-family="Lato-Medium, Lato" font-weight="500"><tspan x="0" y="0">1</tspan></text>
      </g>
      <g id="Group_41904" data-name="Group 41904" transform="translate(4934.812 -4523.818)">
        <g id="Group_41887" data-name="Group 41887" transform="translate(797.802 486.5)">
          <g id="Mask_Group_41886" data-name="Mask Group 41886" clip-path="url(#clip-path-10)">
            <path id="Path_106378" data-name="Path 106378" d="M10.776,41.565H53.292V63.152l-3.349,11.08a1.3,1.3,0,0,1-1.146.859H.641a.617.617,0,0,1-.6-.859l9.62-31.808a1.253,1.253,0,0,1,1.116-.859" transform="translate(0 -35.095)" fill="#ededed" fill-rule="evenodd"/>
            <path id="Path_106379" data-name="Path 106379" d="M45.912,22.437H93.753a1.093,1.093,0,0,1,1.088,1l2,36.848a.916.916,0,0,1-.945,1H48.031a1.087,1.087,0,0,1-1.06-1L44.939,23.439a.955.955,0,0,1,.973-1" transform="translate(-37.942 -18.944)" fill="#fff" fill-rule="evenodd"/>
            <path id="Path_106380" data-name="Path 106380" d="M38.728,15.265H88.172A2.041,2.041,0,0,1,90.2,17.3v8.332a2.041,2.041,0,0,1-2.033,2.033H38.728a2.066,2.066,0,0,1-2.062-2.033V17.3a2.066,2.066,0,0,1,2.062-2.033" transform="translate(-30.958 -12.889)" fill="#f0584a" fill-rule="evenodd"/>
            <path id="Path_106381" data-name="Path 106381" d="M48.739,96.936H98.613L98.527,94.9h-49.9Z" transform="translate(-41.055 -80.13)" fill="#d84f43" fill-rule="evenodd"/>
            <path id="Path_106382" data-name="Path 106382" d="M96.52,134.265h11.109a2.319,2.319,0,0,1,2.262,2.09l1,13.227a1.933,1.933,0,0,1-1.947,2.09H97.838a2.319,2.319,0,0,1-2.262-2.09l-1-13.227a1.932,1.932,0,0,1,1.946-2.09" transform="translate(-79.847 -113.364)" fill="#ccc" fill-rule="evenodd"/>
            <path id="Path_106384" data-name="Path 106384" d="M224.764,139.6h3.865a.8.8,0,0,1,.772.744l.373,4.581a.692.692,0,0,1-.687.744h-3.865a.8.8,0,0,1-.773-.744l-.372-4.581a.692.692,0,0,1,.686-.744" transform="translate(-189.194 -117.865)" fill="#c3c3c3" fill-rule="evenodd"/>
            <path id="Path_106385" data-name="Path 106385" d="M269.216,139.6h3.865a.856.856,0,0,1,.8.744l.343,4.581a.692.692,0,0,1-.686.744h-3.865a.8.8,0,0,1-.773-.744l-.343-4.581a.655.655,0,0,1,.659-.744" transform="translate(-226.746 -117.865)" fill="#c3c3c3" fill-rule="evenodd"/>
            <path id="Path_106386" data-name="Path 106386" d="M312.093,139.6h3.893a.8.8,0,0,1,.773.744l.344,4.581a.671.671,0,0,1-.659.744h-3.894a.8.8,0,0,1-.772-.744l-.344-4.581a.671.671,0,0,1,.659-.744" transform="translate(-262.953 -117.865)" fill="#c3c3c3" fill-rule="evenodd"/>
            <path id="Path_106387" data-name="Path 106387" d="M230.432,197.9H234.3a.807.807,0,0,1,.8.716l.344,4.609a.664.664,0,0,1-.659.716h-3.894a.779.779,0,0,1-.772-.716l-.344-4.609a.647.647,0,0,1,.659-.716" transform="translate(-194.004 -167.093)" fill="#c3c3c3" fill-rule="evenodd"/>
            <path id="Path_106388" data-name="Path 106388" d="M274.759,197.9h3.894a.779.779,0,0,1,.773.716l.344,4.609a.647.647,0,0,1-.659.716h-3.893a.78.78,0,0,1-.773-.716l-.343-4.609a.647.647,0,0,1,.658-.716" transform="translate(-231.431 -167.093)" fill="#c3c3c3" fill-rule="evenodd"/>
            <path id="Path_106389" data-name="Path 106389" d="M317.642,197.9h3.864a.779.779,0,0,1,.773.716l.343,4.609a.633.633,0,0,1-.658.716H318.1a.83.83,0,0,1-.8-.716l-.343-4.609a.669.669,0,0,1,.688-.716" transform="translate(-267.614 -167.093)" fill="#c3c3c3" fill-rule="evenodd"/>
            <path id="Path_106390" data-name="Path 106390" d="M71.564,0h2.719a.666.666,0,0,1,.659.659v4.38a.686.686,0,0,1-.659.658H71.564a.692.692,0,0,1-.688-.658V.659A.673.673,0,0,1,71.564,0" transform="translate(-59.843)" fill="#ccc" fill-rule="evenodd"/>
            <path id="Path_106391" data-name="Path 106391" d="M121.566,0h2.721a.648.648,0,0,1,.658.659v4.38a.665.665,0,0,1-.658.658h-2.721a.665.665,0,0,1-.658-.658V.659A.648.648,0,0,1,121.566,0" transform="translate(-102.087)" fill="#ccc" fill-rule="evenodd"/>
            <path id="Path_106392" data-name="Path 106392" d="M171.405,0h2.72a.648.648,0,0,1,.658.659v4.38a.665.665,0,0,1-.658.658h-2.72a.666.666,0,0,1-.658-.658V.659A.648.648,0,0,1,171.405,0" transform="translate(-144.167)" fill="#ccc" fill-rule="evenodd"/>
            <path id="Path_106393" data-name="Path 106393" d="M221.248,0h2.72a.673.673,0,0,1,.687.659v4.38a.692.692,0,0,1-.687.658h-2.72a.666.666,0,0,1-.659-.658V.659A.648.648,0,0,1,221.248,0" transform="translate(-186.251)" fill="#ccc" fill-rule="evenodd"/>
            <path id="Path_106394" data-name="Path 106394" d="M271.118,0h2.691a.673.673,0,0,1,.688.659v4.38a.691.691,0,0,1-.688.658h-2.691a.692.692,0,0,1-.688-.658V.659A.674.674,0,0,1,271.118,0" transform="translate(-228.333)" fill="#ccc" fill-rule="evenodd"/>
            <path id="Path_106395" data-name="Path 106395" d="M320.958,0h2.721a.648.648,0,0,1,.658.659v4.38a.665.665,0,0,1-.658.658h-2.721a.692.692,0,0,1-.688-.658V.659A.674.674,0,0,1,320.958,0" transform="translate(-270.415)" fill="#ccc" fill-rule="evenodd"/>
          </g>
        </g>
        <path id="Icon_awesome-check-circle" data-name="Icon awesome-check-circle" d="M10.784,5.673A5.111,5.111,0,1,1,5.673.563,5.111,5.111,0,0,1,10.784,5.673Zm-5.7,2.706L8.874,4.587a.33.33,0,0,0,0-.466l-.466-.466a.33.33,0,0,0-.466,0L4.849,6.747,3.405,5.3a.33.33,0,0,0-.466,0l-.466.466a.33.33,0,0,0,0,.466L4.616,8.379A.33.33,0,0,0,5.082,8.379Z" transform="translate(815.513 510.42)" fill="#f0584a"/>
      </g>
    </g>
  </g>
</svg>
