<svg xmlns="http://www.w3.org/2000/svg" width="50" height="50" viewBox="0 0 50 50">
  <g id="ic_index_on-processing" transform="translate(-35 -75)">
    <rect id="mask" width="50" height="50" transform="translate(35 75)" fill="none"/>
    <g id="Group_37" data-name="Group 37" transform="translate(-12.922 -189.776)">
      <path id="Path_87" data-name="Path 87" d="M71.431,268.544v11.831H83.653L71.48,268.544Z" fill="#3892c6"/>
      <path id="Path_88" data-name="Path 88" d="M64.211,301.538H56.648V271.016H72.611l8.037,8.051v4.21a14.907,14.907,0,0,1,3,.688v-6.139l-9.793-9.81H55.033a1.386,1.386,0,0,0-1.385,1.388v33.747a1.386,1.386,0,0,0,1.385,1.387H65.255A14.812,14.812,0,0,1,64.211,301.538Z" fill="#3892c6"/>
      <path id="Path_89" data-name="Path 89" d="M78.813,311.536A13.383,13.383,0,1,1,92.2,298.154,13.4,13.4,0,0,1,78.813,311.536Zm0-24.534a11.152,11.152,0,1,0,11.152,11.152A11.164,11.164,0,0,0,78.813,287Z" fill="#3892c6"/>
      <g id="Group_36" data-name="Group 36">
        <path id="Path_90" data-name="Path 90" d="M81.692,300.183H73.187a1.238,1.238,0,0,1,0-2.475h8.505a1.238,1.238,0,1,1,0,2.475Z" fill="#3892c6"/>
        <g id="Group_35" data-name="Group 35">
          <path id="Path_91" data-name="Path 91" d="M80.987,293.684v10.522l5.259-5.26Z" fill="#3892c6"/>
        </g>
      </g>
    </g>
  </g>
</svg>
