<svg xmlns="http://www.w3.org/2000/svg" width="50" height="50" viewBox="0 0 50 50">
  <g id="ic_index_reject" transform="translate(-35 -75)">
    <rect id="mask" width="50" height="50" transform="translate(35 75)" fill="none"/>
    <g id="Group_44" data-name="Group 44" transform="translate(-301.768 -189.776)">
      <path id="Path_105" data-name="Path 105" d="M360.277,268.544v11.831H372.5l-12.173-11.831Z" fill="#3892c6"/>
      <path id="Path_106" data-name="Path 106" d="M353.057,301.538h-7.562V271.016h15.962l8.038,8.051v4.21a14.938,14.938,0,0,1,3,.688v-6.139l-9.794-9.81H343.879a1.385,1.385,0,0,0-1.384,1.388v33.747a1.385,1.385,0,0,0,1.384,1.387H354.1A14.812,14.812,0,0,1,353.057,301.538Z" fill="#3892c6"/>
      <path id="Path_107" data-name="Path 107" d="M367.659,311.536a13.383,13.383,0,1,1,13.383-13.382A13.4,13.4,0,0,1,367.659,311.536Zm0-24.534a11.152,11.152,0,1,0,11.152,11.152A11.164,11.164,0,0,0,367.659,287Z" fill="#3892c6"/>
      <text id="_" data-name="!" transform="translate(364.768 304.776)" fill="#3892c6" font-size="20" font-family="Roboto-BoldCondensed, Roboto" font-weight="700"><tspan x="0" y="0">!</tspan></text>
    </g>
  </g>
</svg>
