<svg xmlns="http://www.w3.org/2000/svg" width="50" height="50" viewBox="0 0 50 50">
  <g id="ic_index_done" transform="translate(-35 -75)">
    <rect id="mask" width="50" height="50" transform="translate(35 75)" fill="none"/>
    <g id="Group_39" data-name="Group 39" transform="translate(-156.944 -189.776)">
      <path id="Path_96" data-name="Path 96" d="M215.453,268.544v11.831h12.222L215.5,268.544Z" fill="#3892c6"/>
      <path id="Path_97" data-name="Path 97" d="M208.233,301.538H200.67V271.016h15.963l8.037,8.051v4.21a14.907,14.907,0,0,1,3,.688v-6.139l-9.793-9.81H199.055a1.386,1.386,0,0,0-1.385,1.388v33.747a1.386,1.386,0,0,0,1.385,1.387h10.222A14.813,14.813,0,0,1,208.233,301.538Z" fill="#3892c6"/>
      <path id="Path_98" data-name="Path 98" d="M222.835,311.536a13.383,13.383,0,1,1,13.383-13.382A13.4,13.4,0,0,1,222.835,311.536Zm0-24.534a11.152,11.152,0,1,0,11.152,11.152A11.164,11.164,0,0,0,222.835,287Z" fill="#3892c6"/>
      <path id="Path_99" data-name="Path 99" d="M222.287,304.28l-5.256-4.818a1.345,1.345,0,1,1,1.818-1.983l3.26,2.988,5.833-6.448a1.346,1.346,0,1,1,1.995,1.806Z" fill="#3892c6"/>
    </g>
  </g>
</svg>
