<svg xmlns="http://www.w3.org/2000/svg" width="50" height="50" viewBox="0 0 50 50">
  <g id="ic_index_upload" transform="translate(-35 -75)">
    <rect id="mask" width="50" height="50" transform="translate(35 75)" fill="none"/>
    <g id="Group_44" data-name="Group 44" transform="translate(-301.768 -189.776)">
      <path id="Path_105" data-name="Path 105" d="M360.277,268.544v11.831H372.5l-12.173-11.831Z" fill="#3892c6"/>
      <path id="Path_106" data-name="Path 106" d="M353.057,301.538h-7.562V271.016h15.962l8.038,8.051v4.21a14.938,14.938,0,0,1,3,.688v-6.139l-9.794-9.81H343.879a1.385,1.385,0,0,0-1.384,1.388v33.747a1.385,1.385,0,0,0,1.384,1.387H354.1A14.812,14.812,0,0,1,353.057,301.538Z" fill="#3892c6"/>
      <path id="Path_107" data-name="Path 107" d="M367.659,311.536a13.383,13.383,0,1,1,13.383-13.382A13.4,13.4,0,0,1,367.659,311.536Zm0-24.534a11.152,11.152,0,1,0,11.152,11.152A11.164,11.164,0,0,0,367.659,287Z" fill="#3892c6"/>
      <g id="Group_43" data-name="Group 43">
        <path id="Path_108" data-name="Path 108" d="M367.78,305.523a1.237,1.237,0,0,1-1.237-1.237V295.78a1.238,1.238,0,0,1,2.475,0v8.506A1.238,1.238,0,0,1,367.78,305.523Z" fill="#3892c6"/>
        <g id="Group_42" data-name="Group 42">
          <path id="Path_109" data-name="Path 109" d="M362.519,296.486h10.522l-5.26-5.259Z" fill="#3892c6"/>
        </g>
      </g>
    </g>
  </g>
</svg>
