<svg xmlns="http://www.w3.org/2000/svg" width="37.354" height="48.149" viewBox="0 0 37.354 48.149">
  <g id="Group_9497" data-name="Group 9497" transform="translate(-658 -316.089)">
    <g id="Icon_feather-file-plus" data-name="Icon feather-file-plus" transform="translate(659 318.125)">
      <path id="Path_10136" data-name="Path 10136" d="M29.12,3h-18.7A4.52,4.52,0,0,0,6,7.615V44.534a4.52,4.52,0,0,0,4.419,4.615H36.935a4.52,4.52,0,0,0,4.419-4.615V14.775Z" transform="translate(-6 -4.036)" fill="none" stroke="#818181" stroke-linecap="round" stroke-linejoin="round" stroke-width="2"/>
      <path id="Path_10137" data-name="Path 10137" d="M21,3V15.406H33.406" transform="translate(1.948 -4.036)" fill="none" stroke="#818181" stroke-linecap="round" stroke-linejoin="round" stroke-width="2"/>
    </g>
    <g id="Icon_feather-upload" data-name="Icon feather-upload" transform="translate(668.764 335.993)">
      <path id="Path_10273" data-name="Path 10273" d="M20.332,22.5v3.427a1.737,1.737,0,0,1-1.759,1.714H6.259A1.737,1.737,0,0,1,4.5,25.927V22.5" transform="translate(-4.5 -11.421)" fill="none" stroke="#818181" stroke-linecap="round" stroke-linejoin="round" stroke-width="2"/>
      <path id="Path_10274" data-name="Path 10274" d="M19.477,8.784,14.988,4.5,10.5,8.784" transform="translate(-7.073 -3.5)" fill="none" stroke="#818181" stroke-linecap="round" stroke-linejoin="round" stroke-width="2"/>
      <path id="Path_10275" data-name="Path 10275" d="M18,4.5v8.718" transform="translate(-10.084 -3.5)" fill="none" stroke="#818181" stroke-linecap="round" stroke-linejoin="round" stroke-width="2"/>
    </g>
  </g>
</svg>
