<svg xmlns="http://www.w3.org/2000/svg" width="50" height="50" viewBox="0 0 50 50">
  <g id="ic_index_cancel" transform="translate(-35 -75)">
    <rect id="mask" width="50" height="50" transform="translate(35 75)" fill="none"/>
    <g id="Group_41" data-name="Group 41" transform="translate(-228.9 -189.776)">
      <path id="Path_100" data-name="Path 100" d="M287.409,268.544v11.831h12.222l-12.173-11.831Z" fill="#3892c6"/>
      <path id="Path_101" data-name="Path 101" d="M280.189,301.538h-7.563V271.016h15.963l8.037,8.051v4.21a14.907,14.907,0,0,1,3,.688v-6.139l-9.793-9.81H271.011a1.386,1.386,0,0,0-1.385,1.388v33.747a1.386,1.386,0,0,0,1.385,1.387h10.222A14.812,14.812,0,0,1,280.189,301.538Z" fill="#3892c6"/>
      <path id="Path_102" data-name="Path 102" d="M294.791,311.536a13.383,13.383,0,1,1,13.383-13.382A13.4,13.4,0,0,1,294.791,311.536Zm0-24.534a11.152,11.152,0,1,0,11.152,11.152A11.164,11.164,0,0,0,294.791,287Z" fill="#3892c6"/>
      <g id="Group_40" data-name="Group 40">
        <path id="Path_103" data-name="Path 103" d="M290.889,303.832a1.31,1.31,0,0,1-.913-2.25l8.606-8.363a1.31,1.31,0,1,1,1.826,1.879l-8.606,8.363A1.309,1.309,0,0,1,290.889,303.832Z" fill="#3892c6"/>
        <path id="Path_104" data-name="Path 104" d="M299.373,303.953a1.305,1.305,0,0,1-.939-.4l-8.363-8.606a1.31,1.31,0,0,1,1.879-1.826l8.362,8.606a1.309,1.309,0,0,1-.939,2.223Z" fill="#3892c6"/>
      </g>
    </g>
  </g>
</svg>
