<svg xmlns="http://www.w3.org/2000/svg" width="50" height="50" viewBox="0 0 50 50">
  <g id="ic_index_pending" transform="translate(-35 -75)">
    <rect id="mask" width="50" height="50" transform="translate(35 75)" fill="none"/>
    <g id="Group_38" data-name="Group 38" transform="translate(-85.714 -189.776)">
      <path id="Path_92" data-name="Path 92" d="M144.222,268.544v11.831h12.222l-12.173-11.831Z" fill="#3892c6"/>
      <path id="Path_93" data-name="Path 93" d="M137,301.538H129.44V271.016H145.4l8.038,8.051v4.21a14.938,14.938,0,0,1,3,.688v-6.139l-9.794-9.81H127.824a1.386,1.386,0,0,0-1.384,1.388v33.747a1.386,1.386,0,0,0,1.384,1.387h10.222A14.812,14.812,0,0,1,137,301.538Z" fill="#3892c6"/>
      <path id="Path_94" data-name="Path 94" d="M151.6,311.536a13.383,13.383,0,1,1,13.383-13.382A13.4,13.4,0,0,1,151.6,311.536Zm0-24.534a11.152,11.152,0,1,0,11.152,11.152A11.163,11.163,0,0,0,151.6,287Z" fill="#3892c6"/>
      <path id="Path_95" data-name="Path 95" d="M145.1,301.486v2.926h2.926l8.629-8.63-2.926-2.927Zm13.818-7.967a.779.779,0,0,0,0-1.1l-1.826-1.826a.777.777,0,0,0-1.1,0l-1.428,1.428,2.926,2.927Z" fill="#3892c6"/>
    </g>
  </g>
</svg>
