<svg xmlns="http://www.w3.org/2000/svg" width="52" height="52" viewBox="0 0 52 52">
  <g id="Group_9573" data-name="Group 9573" transform="translate(-297 -613.172)">
    <g id="Group_9438" data-name="Group 9438" transform="translate(307.857 621.533)">
      <path id="Icon_awesome-pen" data-name="Icon awesome-pen" d="M14,4.188l7.442,7.442L8.184,24.918l-6.635.732a1.4,1.4,0,0,1-1.54-1.541l.738-6.64L14,4.188Zm10.773.123L21.28.818a2.792,2.792,0,0,0-3.948,0L14.045,4.1l7.442,7.442L24.775,8.26a2.792,2.792,0,0,0,0-3.948Z" transform="matrix(0.999, -0.035, 0.035, 0.999, 3.026, 0.893)" fill="none" stroke="#008145" stroke-width="2.6"/>
      <line id="Line_26" data-name="Line 26" x2="32.528" transform="translate(0 34.21)" fill="none" stroke="#008145" stroke-width="2.6"/>
    </g>
    <rect id="Rectangle_8588" data-name="Rectangle 8588" width="52" height="52" transform="translate(297 613.172)" fill="none"/>
  </g>
</svg>
