<svg xmlns="http://www.w3.org/2000/svg" width="52" height="52" viewBox="0 0 52 52">
  <g id="Group_9575" data-name="Group 9575" transform="translate(-600 -612)">
    <g id="clock-history" transform="translate(608.349 620.125)">
      <path id="Path_10252" data-name="Path 10252" d="M19.143,2.261Q18.572,2.219,18,2.219V0c.434,0,.87.016,1.3.048L19.143,2.26Zm4.447,1A15.54,15.54,0,0,0,21.4,2.6L21.891.43a17.368,17.368,0,0,1,2.5.759Zm3.04,1.575q-.476-.318-.974-.6L26.749,2.3a17.806,17.806,0,0,1,2.173,1.452l-1.365,1.75q-.452-.352-.928-.67ZM30.7,8.806a15.511,15.511,0,0,0-1.449-1.766l1.606-1.531a18.459,18.459,0,0,1,1.658,2.019L30.7,8.806Zm1.651,3q-.218-.528-.474-1.038l1.981-1a17.7,17.7,0,0,1,1,2.414l-2.107.694q-.179-.543-.4-1.072Zm1.177,5.563a15.512,15.512,0,0,0-.222-2.274l2.185-.378a17.911,17.911,0,0,1,.257,2.6l-2.219.055Zm-.291,3.413c.073-.378.133-.752.179-1.131l2.2.273a17.657,17.657,0,0,1-.511,2.563l-2.139-.593q.152-.549.266-1.111Zm-2.112,5.279A15.67,15.67,0,0,0,32.2,24.046l2.029.9A17.921,17.921,0,0,1,33,27.248l-1.875-1.187Zm-2.139,2.674c.27-.27.531-.55.776-.839l1.682,1.449q-.427.5-.89.959l-1.569-1.569Z" transform="translate(-0.241 0)" fill="#008145" stroke="#008145" stroke-width="0.1" fill-rule="evenodd"/>
      <path id="Path_10253" data-name="Path 10253" d="M17.751,2.219A15.532,15.532,0,1,0,28.736,28.735L30.3,30.3A17.753,17.753,0,1,1,17.751,0Z" transform="translate(0.007 0)" fill="#008145" stroke="#008145" stroke-width="0.1" fill-rule="evenodd"/>
      <path id="Path_10254" data-name="Path 10254" d="M16.859,6.75a1.109,1.109,0,0,1,1.109,1.109V19.421l7.207,4.118a1.109,1.109,0,0,1-1.1,1.926l-7.766-4.438a1.109,1.109,0,0,1-.559-.964V7.859A1.109,1.109,0,0,1,16.859,6.75Z" transform="translate(-0.21 -0.093)" fill="#008145" stroke="#008145" stroke-width="0.1" fill-rule="evenodd"/>
    </g>
    <g id="Group_9454" data-name="Group 9454" transform="translate(600 612)">
      <rect id="Rectangle_8588" data-name="Rectangle 8588" width="52" height="52" transform="translate(0)" fill="none"/>
    </g>
  </g>
</svg>
