<svg xmlns="http://www.w3.org/2000/svg" xmlns:xlink="http://www.w3.org/1999/xlink" width="226" height="172" viewBox="0 0 226 172">
  <defs>
    <clipPath id="clip-path">
      <rect id="Rectangle_14" data-name="Rectangle 14" width="44.161" height="36.644" transform="matrix(0.892, 0.452, -0.452, 0.892, 16.563, 0)" fill="none"/>
    </clipPath>
  </defs>
  <g id="Group_41318" data-name="Group 41318" transform="translate(-532.167 -241)">
    <g id="Group_6386" data-name="Group 6386" transform="translate(543.761 250.951)">
      <g id="Group_6363" data-name="Group 6363" transform="translate(0 0)">
        <g id="Group_6361" data-name="Group 6361" transform="translate(0 0)">
          <ellipse id="Ellipse_10" data-name="Ellipse 10" cx="99.514" cy="19.45" rx="99.514" ry="19.45" transform="translate(0 117.152)" fill="#eaebef"/>
          <path id="Path_250" data-name="Path 250" d="M1.832,643.618l-14.175,128.85a7.344,7.344,0,0,1-7.279,6.568H-76.128a7.36,7.36,0,0,1-7.283-8.153l13.4-128.67a6.51,6.51,0,0,1,6.455-5.86h58.94A6.524,6.524,0,0,1,1.832,643.618Z" transform="translate(83.452 -636.354)" opacity="0.07"/>
          <path id="Path_251" data-name="Path 251" d="M-69.268,643.56l14.175,127.826a7.324,7.324,0,0,0,7.279,6.516H8.691a7.323,7.323,0,0,0,7.283-8.088L2.578,642.167a6.491,6.491,0,0,0-6.455-5.813h-58.94A6.491,6.491,0,0,0-69.268,643.56Z" transform="translate(82.916 -636.354)" fill="#7da8d1"/>
          <path id="Path_252" data-name="Path 252" d="M-59.115,651.363-45.807,768.4a6.876,6.876,0,0,0,6.834,6.117H9.391a6.875,6.875,0,0,0,6.838-7.593L3.651,650.055a6.093,6.093,0,0,0-6.06-5.457h-50.65A6.094,6.094,0,0,0-59.115,651.363Z" transform="translate(78.091 -640.271)" fill="#fcfcfc"/>
          <path id="Path_253" data-name="Path 253" d="M-21.19,637l1.055,5.695a2.79,2.79,0,0,0,2.744,2.282H.783a2.526,2.526,0,0,0,2.484-2.986L2.342,637Z" transform="translate(62.873 -636.661)" fill="#7da8d1"/>
          <g id="Group_68" data-name="Group 68" transform="translate(28.02 19.032)">
            <path id="Path_254" data-name="Path 254" d="M-41.827,677.165l4.467,38.516a4.629,4.629,0,0,0,4.6,4.119H6.5a4.629,4.629,0,0,0,4.6-5.112l-3.975-38.4a4.1,4.1,0,0,0-4.08-3.675h-40.8A4.1,4.1,0,0,0-41.827,677.165Z" transform="translate(41.853 -672.61)" fill="#ffe6e6"/>
            <path id="Path_7941" data-name="Path 7941" d="M-41.827,677.205l4.507,38.857a4.67,4.67,0,0,0,4.641,4.155h39.6a4.67,4.67,0,0,0,4.644-5.158l-4.01-38.743a4.139,4.139,0,0,0-4.116-3.707H-37.714A4.139,4.139,0,0,0-41.827,677.205Z" transform="translate(44.093 -653.835)" fill="#ffe6e6"/>
            <path id="Path_255" data-name="Path 255" d="M-29.581,781.578l4.467,38.517a4.629,4.629,0,0,0,4.6,4.119H18.744a4.629,4.629,0,0,0,4.6-5.112l-3.975-38.4a4.1,4.1,0,0,0-4.08-3.674H-25.5A4.1,4.1,0,0,0-29.581,781.578Z" transform="translate(36.035 -722.214)" fill="#ffe6e6"/>
          </g>
          <g id="Group_91" data-name="Group 91" transform="translate(65.523 10.694)">
            <path id="Path_70" data-name="Path 70" d="M35.222,17.881c-.045-3.666-3.922-5.461-7.085-5.793-3.544-.372-7.025.655-10.36,1.735a1.713,1.713,0,0,0-.915.656,4.152,4.152,0,0,0-1.549-.858,1.726,1.726,0,0,0-.032-1.062c-1.1-3.335-2.339-6.731-4.729-9.38C8.422.817,4.668-1.237,1.69.891c-3.2,2.29-1.116,6.055.26,8.717,1.689,3.267,3.173,7.178,6.69,8.876A1.855,1.855,0,0,0,11.2,16.35l5.94,3.01a1.854,1.854,0,0,0-.209,3.323c3.448,1.831,7.479.715,11.114.145C31,22.362,35.271,21.823,35.222,17.881ZM6.056,9.726C5.577,8.8,2.642,4.545,3.984,3.719,5.726,2.646,8.366,6.05,9.091,7.192a28.758,28.758,0,0,1,2.76,6.489,2.028,2.028,0,0,0,.108.259,4.329,4.329,0,0,0-1.549,1.4c-.045-.026-.09-.052-.139-.076C8.093,14.213,7.108,11.761,6.056,9.726ZM25.8,19.541c-2.335.366-5.039,1.094-7.247-.078a1.939,1.939,0,0,0-.45-.172,4.324,4.324,0,0,0,.247-1.944,1.932,1.932,0,0,0,.545-.095,29.585,29.585,0,0,1,6.627-1.6c1.4-.115,5.887-.07,6.059,2.049C31.712,19.266,26.8,19.384,25.8,19.541Z" transform="translate(0 10.884) rotate(-18)" fill="#ffa43a"/>
            <g id="Group_10" data-name="Group 10" transform="translate(0.535 12.523) rotate(-18)">
              <path id="Path_71" data-name="Path 71" d="M13.276,2.084C13.1-.034,8.614-.079,7.217.035A29.585,29.585,0,0,0,.59,1.631a1.921,1.921,0,0,1-.545.1A4.345,4.345,0,0,1,0,2.929a29.2,29.2,0,0,1,6.547-1.57c1.309-.107,5.33-.075,5.975,1.67C13.005,2.792,13.308,2.486,13.276,2.084Z" transform="translate(18.977 12.574)" fill="#f96726"/>
              <path id="Path_72" data-name="Path 72" d="M8.215,10.168a28.774,28.774,0,0,0-2.76-6.489C4.73,2.537,2.09-.867.348.206.01.414-.056.839.04,1.373,1.766.905,4.109,3.937,4.785,5A27.13,27.13,0,0,1,7.41,11.084a4.328,4.328,0,0,1,.914-.657A2.031,2.031,0,0,1,8.215,10.168Z" transform="translate(4.304 0.466)" fill="#f96726"/>
              <path id="Path_73" data-name="Path 73" d="M12.728,2.409C9.094,2.98,5.063,4.1,1.615,2.265A1.674,1.674,0,0,1,.682.566,1.822,1.822,0,0,0,.944,3.588c3.448,1.831,7.479.715,11.114.145C14.682,3.32,18.334,2.847,19.1,0,17.721,1.693,14.879,2.072,12.728,2.409Z" transform="translate(15.98 17.371)" fill="#f96726"/>
              <path id="Path_74" data-name="Path 74" d="M9.307,15.436c-3.516-1.7-5-5.609-6.69-8.876C1.618,4.627.244,2.11.8,0-1.049,2.3.728,5.524,1.947,7.884c1.689,3.267,3.173,7.178,6.69,8.876a1.824,1.824,0,0,0,2.593-1.576A1.676,1.676,0,0,1,9.307,15.436Z" transform="translate(0 0)" fill="#f96726"/>
            </g>
          </g>
          <rect id="Rectangle_4" data-name="Rectangle 4" width="44.161" height="36.644" transform="translate(60.733 39.444) rotate(8.871)" fill="#ff7632"/>
          <g id="Group_14" data-name="Group 14" transform="translate(44.981 44.562) rotate(-18)" opacity="0.5">
            <g id="Group_13" data-name="Group 13" transform="translate(0 0)" clip-path="url(#clip-path)">
              <g id="Group_12" data-name="Group 12" transform="translate(-5.136 -16.009)">
                <rect id="Rectangle_5" data-name="Rectangle 5" width="65.094" height="1.333" transform="translate(1.267 13.837) rotate(71.871)" fill="#fff"/>
                <rect id="Rectangle_6" data-name="Rectangle 6" width="65.094" height="1.333" transform="translate(6.55 12.107) rotate(71.871)" fill="#fff"/>
                <rect id="Rectangle_7" data-name="Rectangle 7" width="65.094" height="1.333" transform="translate(11.832 10.377) rotate(71.871)" fill="#fff"/>
                <rect id="Rectangle_8" data-name="Rectangle 8" width="65.094" height="1.333" transform="translate(17.115 8.648) rotate(71.871)" fill="#fff"/>
                <rect id="Rectangle_9" data-name="Rectangle 9" width="65.094" height="1.333" transform="translate(22.398 6.918) rotate(71.871)" fill="#fff"/>
                <rect id="Rectangle_10" data-name="Rectangle 10" width="65.094" height="1.333" transform="translate(27.68 5.189) rotate(71.871)" fill="#fff"/>
                <rect id="Rectangle_11" data-name="Rectangle 11" width="65.094" height="1.333" transform="translate(32.963 3.459) rotate(71.871)" fill="#fff"/>
                <rect id="Rectangle_12" data-name="Rectangle 12" width="65.094" height="1.333" transform="translate(38.246 1.73) rotate(71.871)" fill="#fff"/>
                <rect id="Rectangle_13" data-name="Rectangle 13" width="65.094" height="1.333" transform="translate(43.528 0) rotate(71.871)" fill="#fff"/>
              </g>
            </g>
          </g>
          <rect id="Rectangle_16" data-name="Rectangle 16" width="49.798" height="10.335" transform="translate(59.542 28.797) rotate(8.871)" fill="#ff7632"/>
          <path id="Path_300" data-name="Path 300" d="M.038.008,8.289,0l.118,46.971L0,47.047Z" transform="matrix(0.988, 0.154, -0.154, 0.988, 80.415, 32.055)" fill="#ffeda3"/>
          <rect id="Rectangle_18" data-name="Rectangle 18" width="2.013" height="46.966" transform="matrix(0.988, 0.154, -0.154, 0.988, 88.548, 33.356)" opacity="0.1"/>
          <g id="Group_73" data-name="Group 73" transform="translate(80.997 126.265)">
            <path id="Path_256" data-name="Path 256" d="M25.282,877.931l5.368-16.012L42.9,863.264,36.662,880.1,24.827,878.42Z" transform="translate(-10.789 -861.919)" fill="#fab9a7"/>
            <g id="Group_72" data-name="Group 72" transform="translate(0 12.725)">
              <path id="Path_257" data-name="Path 257" d="M26.568,886.871s-8.489,2.9-11.8-1.673L-.852,894.025l29.131-.175Z" transform="translate(0.852 -885.197)" fill="#647dff"/>
              <path id="Path_258" data-name="Path 258" d="M-.834,903.7l29.131-.175-.018-2.495L-.852,901.2Z" transform="translate(0.852 -892.373)" fill="#2a44ca"/>
              <path id="Path_259" data-name="Path 259" d="M25.845,889.64a.474.474,0,0,1-.2-.15,9.857,9.857,0,0,0-2.234-2.178.442.442,0,0,1-.132-.631.5.5,0,0,1,.663-.127,10.6,10.6,0,0,1,2.478,2.4.442.442,0,0,1-.106.636A.5.5,0,0,1,25.845,889.64Z" transform="translate(-10.052 -885.778)" fill="#fff"/>
              <path id="Path_260" data-name="Path 260" d="M21.58,891.773a.472.472,0,0,1-.2-.151,9.865,9.865,0,0,0-2.234-2.177.442.442,0,0,1-.132-.631.5.5,0,0,1,.663-.127,10.593,10.593,0,0,1,2.478,2.4.442.442,0,0,1-.106.636A.5.5,0,0,1,21.58,891.773Z" transform="translate(-8.119 -886.745)" fill="#fff"/>
              <path id="Path_261" data-name="Path 261" d="M17.315,893.906a.476.476,0,0,1-.2-.15,9.894,9.894,0,0,0-2.234-2.177.443.443,0,0,1-.132-.632.5.5,0,0,1,.663-.126,10.606,10.606,0,0,1,2.478,2.4.442.442,0,0,1-.106.637A.5.5,0,0,1,17.315,893.906Z" transform="translate(-6.185 -887.712)" fill="#fff"/>
            </g>
          </g>
          <path id="Path_262" data-name="Path 262" d="M50.022,753.134l-4.563,6.838a378.5,378.5,0,0,0-22.383,60.96l19.178.953s16.369-42.373,20.838-50.675l9.47-16.484Z" transform="translate(71.002 -686.338)" fill="#76d6ff"/>
          <g id="Group_76" data-name="Group 76" transform="translate(164.492 70.267)">
            <path id="Path_263" data-name="Path 263" d="M174.937,780.231l-16.143,7.894-6.911-11.773,16.995-5.782,5.107,4.486Z" transform="translate(-151.883 -764.509)" fill="#fab9a7"/>
            <g id="Group_75" data-name="Group 75" transform="translate(13.097)">
              <path id="Path_264" data-name="Path 264" d="M175.842,768.122s7.609,4.752,6.152,10.212l16.7,6.542-18.521-22.487Z" transform="translate(-175.842 -760.801)" fill="#647dff"/>
              <path id="Path_265" data-name="Path 265" d="M204.216,781.97,185.7,759.484l-1.924,1.588,18.521,22.486Z" transform="translate(-179.436 -759.484)" fill="#2a44ca"/>
              <path id="Path_266" data-name="Path 266" d="M191.352,786.554a.485.485,0,0,1,.008.249,9.9,9.9,0,0,0-.28,3.107.442.442,0,0,1-.407.5.5.5,0,0,1-.516-.434,10.588,10.588,0,0,1,.3-3.437.441.441,0,0,1,.56-.319A.5.5,0,0,1,191.352,786.554Z" transform="translate(-182.317 -771.596)" fill="#fff"/>
              <path id="Path_267" data-name="Path 267" d="M195.7,788.516a.482.482,0,0,1,.008.248,9.9,9.9,0,0,0-.28,3.107.442.442,0,0,1-.407.5.5.5,0,0,1-.516-.434,10.593,10.593,0,0,1,.3-3.437.443.443,0,0,1,.561-.32A.5.5,0,0,1,195.7,788.516Z" transform="translate(-184.287 -772.485)" fill="#fff"/>
              <path id="Path_268" data-name="Path 268" d="M200.045,790.478a.471.471,0,0,1,.008.248,9.915,9.915,0,0,0-.279,3.107.442.442,0,0,1-.407.5.5.5,0,0,1-.516-.433,10.6,10.6,0,0,1,.3-3.437.442.442,0,0,1,.561-.319A.5.5,0,0,1,200.045,790.478Z" transform="translate(-186.258 -773.375)" fill="#fff"/>
            </g>
          </g>
          <path id="Path_269" data-name="Path 269" d="M143.347,771.942l-27.456,12.945,5.893,17.686,29.092-15.1Z" transform="translate(28.925 -694.864)" fill="#76d6ff"/>
          <g id="Group_78" data-name="Group 78" transform="translate(126.871 66.791)">
            <path id="Path_270" data-name="Path 270" d="M98.362,753.13c.385-.353,11.114,19.914,15.037,29.4,1.877,4.54-1.914,9.733-6.495,11.508h0a8.757,8.757,0,0,1-10.8-3.872L83.065,769.165Z" transform="translate(-83.065 -753.126)" fill="#76d6ff"/>
            <line id="Line_1" data-name="Line 1" x1="4.335" y1="9.338" transform="translate(0 13.682)" fill="none" stroke="#000" stroke-linecap="round" stroke-linejoin="round" stroke-width="0.548" opacity="0.3"/>
          </g>
          <g id="Group_87" data-name="Group 87" transform="translate(86.788 30.574)">
            <g id="Group_82" data-name="Group 82" transform="translate(39.739 6.972)">
              <path id="Path_271" data-name="Path 271" d="M0,0,19.208,6.419,32.9,16.8" transform="translate(0.879 0) rotate(3)" fill="none" stroke="#fab9a7" stroke-linecap="round" stroke-linejoin="round" stroke-width="10"/>
              <g id="Group_81" data-name="Group 81" transform="translate(28.014 14.844) rotate(3)">
                <path id="Path_272" data-name="Path 272" d="M.758,1.187A1.289,1.289,0,0,0,.024,2.642a37.24,37.24,0,0,0,1.434,5.3,1.686,1.686,0,0,0,1.7,1.325h0A1.469,1.469,0,0,0,4.467,7.547L4.232,5.7s2-1.387-.574-5.7Z" transform="translate(0 3.123)" fill="#fab9a7"/>
                <path id="Path_273" data-name="Path 273" d="M4.087,11.268l7.665-4.991A11.037,11.037,0,0,0,8.224.083c-.375-.32-2.764.37-3.187.648L0,5.241Z" transform="translate(0.056 0)" fill="#fab9a7"/>
                <path id="Path_274" data-name="Path 274" d="M0,1.688,2.733,6.625A1.4,1.4,0,0,0,4.622,7.2h0A1.427,1.427,0,0,0,5.1,5.33L2.692,0Z" transform="translate(3.533 8.232)" fill="#fab9a7"/>
                <path id="Path_275" data-name="Path 275" d="M0,1.89,3.478,6.5a1.331,1.331,0,0,0,1.856.4h0a1.418,1.418,0,0,0,.209-1.879L2.316,0Z" transform="translate(8.141 5.084)" fill="#fab9a7"/>
                <path id="Path_276" data-name="Path 276" d="M0,1.97,3.509,5.187a1.107,1.107,0,0,0,1.6.037h0A1.279,1.279,0,0,0,4.8,3.606L1.384,0Z" transform="translate(9.6 3.671)" fill="#fab9a7"/>
                <path id="Path_277" data-name="Path 277" d="M0,2.03,3.286,6.386a1.364,1.364,0,0,0,1.924.338h0A1.465,1.465,0,0,0,5.472,4.79L2.458,0Z" transform="translate(6.175 7.455)" fill="#fab9a7"/>
                <path id="Path_278" data-name="Path 278" d="M.166,6.767A6.117,6.117,0,0,0,0,4.1,3.266,3.266,0,0,0,.342,0" transform="matrix(0.998, 0.07, -0.07, 0.998, 4.753, 4.583)" fill="none" stroke="#000" stroke-linecap="round" stroke-linejoin="round" stroke-width="0.548" opacity="0.3"/>
              </g>
            </g>
            <path id="Path_279" data-name="Path 279" d="M32.725,38.9,3.355,40.307.151,15.665A16.919,16.919,0,0,1,.62,9.051C1.785,5.278,2.9,3.2,7.351,1.464,10.509.231,13.58-.67,16.624.653c6.6,2.365,9.164,10.142,11.375,15.89C31.564,25.813,32.725,38.9,32.725,38.9Z" transform="matrix(0.996, 0.087, -0.087, 0.996, 29.187, 0)" fill="#334dd2"/>
            <g id="Group_86" data-name="Group 86" transform="matrix(0.996, 0.087, -0.087, 0.996, 4.352, 5.293)">
              <g id="Group_84" data-name="Group 84" transform="translate(0 7.915)">
                <path id="Path_280" data-name="Path 280" d="M18.652,0,10.474,24.153,0,31.852" transform="translate(13.083 0)" fill="none" stroke="#fab9a7" stroke-linecap="round" stroke-linejoin="round" stroke-width="11"/>
                <g id="Group_83" data-name="Group 83" transform="translate(0 27.664) rotate(-3)">
                  <path id="Path_281" data-name="Path 281" d="M8.425.965A1.3,1.3,0,0,0,7.1,0,37.521,37.521,0,0,0,1.6.57,1.7,1.7,0,0,0,.006,2.045h0a1.481,1.481,0,0,0,1.5,1.58l1.87.065S4.428,5.9,9.137,4.042Z" transform="translate(3.915 0)" fill="#fab9a7"/>
                  <path id="Path_282" data-name="Path 282" d="M0,3.091l3.724,8.43a11.12,11.12,0,0,0,6.73-2.508c.379-.322.079-2.809-.129-3.274L6.654,0Z" transform="translate(4.874 0.117)" fill="#fab9a7"/>
                  <path id="Path_283" data-name="Path 283" d="M6.314,0,.962,1.92A1.41,1.41,0,0,0,.085,3.705h0a1.438,1.438,0,0,0,1.782.782L7.557,2.95Z" transform="translate(0 2.818)" fill="#fab9a7"/>
                  <path id="Path_284" data-name="Path 284" d="M5.976,0,.834,2.714a1.341,1.341,0,0,0-.7,1.78h0a1.43,1.43,0,0,0,1.835.512l5.514-2.4Z" transform="translate(2.522 7.877)" fill="#fab9a7"/>
                  <path id="Path_285" data-name="Path 285" d="M4.285,0,.519,2.97a1.115,1.115,0,0,0-.3,1.587h0a1.289,1.289,0,0,0,1.66-.051L6.021,1.694Z" transform="translate(5.303 9.543)" fill="#fab9a7"/>
                  <path id="Path_286" data-name="Path 286" d="M5.663,0,.8,2.564A1.374,1.374,0,0,0,.154,4.423h0A1.475,1.475,0,0,0,2.035,5L7.286,2.772Z" transform="translate(0.655 5.515)" fill="#fab9a7"/>
                </g>
              </g>
              <g id="Group_85" data-name="Group 85" transform="translate(23.232 0)">
                <path id="Path_287" data-name="Path 287" d="M0,12.311l1.774-6.5a7.974,7.974,0,0,1,9.3-5.647h0a7.974,7.974,0,0,1,6.047,9.984L15.168,17.2Z" transform="translate(0 0)" fill="#3b56dd"/>
                <path id="Path_7942" data-name="Path 7942" d="M0,7.255H0L1.938,0" transform="translate(0.377 4.498)" fill="none" stroke="#000" stroke-linecap="round" stroke-width="0.548" opacity="0.3"/>
                <path id="Path_288" data-name="Path 288" d="M0,5.173l3.022.974L4.8,0" transform="translate(12.145 11.053)" fill="none" stroke="#000" stroke-linecap="round" stroke-linejoin="round" stroke-width="0.548" opacity="0.3"/>
              </g>
            </g>
          </g>
          <g id="Group_90" data-name="Group 90" transform="matrix(0.996, 0.087, -0.087, 0.996, 110.836, 5.85)">
            <path id="Path_289" data-name="Path 289" d="M0,5.763l5.629,9.269,8.564-2.94L6.763,0Z" transform="translate(8.409 11.717) rotate(9)" fill="#fab9a7"/>
            <path id="Path_290" data-name="Path 290" d="M5.045,0,2.884,5.6,0,.916Z" transform="translate(9.488 21.542) rotate(7)" opacity="0.25"/>
            <path id="Path_291" data-name="Path 291" d="M4.467,0S1.822.5.693,6.106-.472,17.5,2.792,18.872c2.773,1.165,6.592.613,9.684-2.508l2.9-9.71Z" transform="translate(1.693 5.408)" fill="#fab9a7"/>
            <path id="Path_292" data-name="Path 292" d="M7.739,11.992S3.563,12.329,0,4.4A9.085,9.085,0,0,1,10.957.581a11.934,11.934,0,0,1,3.825,2.435,10.387,10.387,0,0,1,2.631,10.8,14.594,14.594,0,0,1-2.786,4.546l-4.675-3.44Z" transform="translate(4.81 2.004) rotate(3)" fill="#69423f"/>
            <ellipse id="Ellipse_10-2" data-name="Ellipse 10" cx="3.041" cy="2.72" rx="3.041" ry="2.72" transform="translate(10.597 15.357) rotate(-57.319)" fill="#fab9a7"/>
            <path id="Path_293" data-name="Path 293" d="M2.331,0,0,2.944l2.687.281Z" transform="translate(0 14.691)" fill="#fab9a7"/>
            <path id="Path_294" data-name="Path 294" d="M2,.005A1.86,1.86,0,0,0,0,1.5" transform="translate(12.777 12.912) rotate(-9)" fill="none" stroke="#a15853" stroke-linecap="round" stroke-linejoin="round" stroke-width="0.637"/>
            <path id="Path_295" data-name="Path 295" d="M8.564,0s.051,1.546-3.446,2.807S0,2.94,0,2.94L4.2.136Z" transform="translate(12.077 24.54) rotate(9)" fill="#fab9a7"/>
            <path id="Path_299" data-name="Path 299" d="M10.348,5.84S2.254,8.821.362,5.719,4.292-2.9,10.819,1.864,10.348,5.84,10.348,5.84Z" transform="translate(0.198 3.291) rotate(-14)" fill="#69423f"/>
          </g>
          <rect id="Rectangle_46" data-name="Rectangle 46" width="44.161" height="4.772" transform="translate(60.733 39.444) rotate(8.871)" fill="red" opacity="0.15"/>
          <path id="Path_7939" data-name="Path 7939" d="M0,1.018A1.029,1.029,0,0,1,1.026.008,1.029,1.029,0,0,1,2.237.783a1.029,1.029,0,0,1-1.022,1.01A1.029,1.029,0,0,1,0,1.018Z" transform="translate(117.818 24.987) rotate(-162)" fill="#ed7b6b" opacity="0.3"/>
          <path id="Path_7845" data-name="Path 7845" d="M.062,0A11.026,11.026,0,0,0,2.7.587c.748-.052-.089,1.177-1.588.87S.062,0,.062,0Z" transform="translate(111.401 25.822) rotate(-16)" fill="#fff"/>
          <g id="Group_6358" data-name="Group 6358" transform="matrix(-0.985, 0.174, -0.174, -0.985, 115.973, 18.805)">
            <path id="Path_7900" data-name="Path 7900" d="M.308,0A.3.3,0,0,1,.537.134a1.933,1.933,0,0,0,1.725.8.291.291,0,0,1,.061.579A2.505,2.505,0,0,1,.046.449.291.291,0,0,1,.308,0Z" transform="translate(0 0)" fill="#a15853"/>
          </g>
          <g id="Group_6360" data-name="Group 6360" transform="matrix(-0.995, -0.105, 0.105, -0.995, 114.119, 21.5)">
            <path id="Path_7930" data-name="Path 7930" d="M0,.852c.024.446.3.789.607.765s.544-.4.52-.851S.833-.022.521,0-.022.405,0,.852Z" transform="matrix(-0.985, -0.174, 0.174, -0.985, 1.113, 1.79)" fill="#3b3b3b"/>
          </g>
        </g>
      </g>
    </g>
    <rect id="Rectangle_4578" data-name="Rectangle 4578" width="226" height="172" transform="translate(532.167 241)" fill="none"/>
  </g>
</svg>
