<svg xmlns="http://www.w3.org/2000/svg" width="24" height="24" viewBox="0 0 24 24">
  <g id="ic_sidemenu_done_a" transform="translate(-35 -75)">
    <rect id="mask" width="24" height="24" transform="translate(35 75)" fill="none"/>
    <g id="Group_52" data-name="Group 52" transform="translate(-349.461 -20.708)">
      <path id="Path_128" data-name="Path 128" d="M395.311,98.149v5.762h5.348l-5.327-5.762Z" fill="#008145"/>
      <path id="Path_129" data-name="Path 129" d="M394.344,114.809H387.96V99.183h7.377l4.623,4.5v1.31c.212-.02.426-.033.643-.033a6.977,6.977,0,0,1,1.357.135v-2.257l-5.811-5.653h-9.368a.81.81,0,0,0-.821.8V116.01a.811.811,0,0,0,.821.8h8.975A6.939,6.939,0,0,1,394.344,114.809Z" fill="#008145"/>
      <path id="Path_130" data-name="Path 130" d="M400.6,118.234a6.358,6.358,0,1,1,6.358-6.358A6.365,6.365,0,0,1,400.6,118.234Zm0-11.315a4.958,4.958,0,1,0,4.958,4.957A4.963,4.963,0,0,0,400.6,106.919Z" fill="#008145"/>
      <path id="Path_131" data-name="Path 131" d="M400.168,114.957l-2.621-2.4a.7.7,0,0,1,.947-1.033l1.581,1.45,2.855-3.154a.7.7,0,0,1,1.038.939Z" fill="#008145"/>
    </g>
  </g>
</svg>
