<svg xmlns="http://www.w3.org/2000/svg" width="24" height="24" viewBox="0 0 24 24">
  <g id="ic_sidemenu_cancel_a" transform="translate(-35 -75)">
    <rect id="mask" width="24" height="24" transform="translate(35 75)" fill="none"/>
    <g id="Group_54" data-name="Group 54" transform="translate(-396.461 -20.708)">
      <path id="Path_132" data-name="Path 132" d="M442.311,98.149v5.762h5.348l-5.327-5.762Z" fill="#008145"/>
      <path id="Path_133" data-name="Path 133" d="M441.344,114.809H434.96V99.183h7.377l4.623,4.5v1.31c.212-.02.426-.033.643-.033a6.977,6.977,0,0,1,1.357.135v-2.257l-5.811-5.653h-9.368a.81.81,0,0,0-.821.8V116.01a.811.811,0,0,0,.821.8h8.975A6.939,6.939,0,0,1,441.344,114.809Z" fill="#008145"/>
      <path id="Path_134" data-name="Path 134" d="M447.6,118.234a6.358,6.358,0,1,1,6.358-6.358A6.365,6.365,0,0,1,447.6,118.234Zm0-11.315a4.958,4.958,0,1,0,4.958,4.957A4.963,4.963,0,0,0,447.6,106.919Z" fill="#008145"/>
      <g id="Group_53" data-name="Group 53">
        <path id="Path_135" data-name="Path 135" d="M445.7,115.023a.7.7,0,0,1-.488-1.2l4-3.887a.7.7,0,1,1,.976,1l-4,3.887A.7.7,0,0,1,445.7,115.023Z" fill="#008145"/>
        <path id="Path_136" data-name="Path 136" d="M449.647,115.08a.7.7,0,0,1-.5-.213l-3.887-4a.7.7,0,1,1,1-.975l3.886,4a.7.7,0,0,1-.5,1.188Z" fill="#008145"/>
      </g>
    </g>
  </g>
</svg>
