<svg xmlns="http://www.w3.org/2000/svg" width="24" height="24" viewBox="0 0 24 24">
  <g id="ic_sidemenu_setting" transform="translate(-35 -75)">
    <rect id="mask" width="24" height="24" transform="translate(35 75)" fill="none"/>
    <path id="Path_10" data-name="Path 10" d="M211.616,109.533a5.388,5.388,0,0,0,0-1.568l1.736-1.32a.4.4,0,0,0,.1-.512l-1.645-2.768a.419.419,0,0,0-.5-.176l-2.048.8a6.043,6.043,0,0,0-1.391-.784l-.312-2.12a.4.4,0,0,0-.4-.336h-3.291a.4.4,0,0,0-.4.336l-.312,2.12a6.353,6.353,0,0,0-1.391.784l-2.048-.8a.406.406,0,0,0-.5.176l-1.645,2.768a.388.388,0,0,0,.1.512l1.736,1.32a5.389,5.389,0,0,0,0,1.568l-1.736,1.32a.4.4,0,0,0-.1.512l1.645,2.768a.419.419,0,0,0,.5.176l2.048-.8a6.042,6.042,0,0,0,1.391.784l.312,2.12a.4.4,0,0,0,.4.336h3.291a.4.4,0,0,0,.4-.336l.312-2.12a6.354,6.354,0,0,0,1.391-.784l2.048.8a.406.406,0,0,0,.5-.176l1.645-2.768a.4.4,0,0,0-.1-.512Zm-6.11,2.016a2.8,2.8,0,1,1,2.878-2.8A2.843,2.843,0,0,1,205.506,111.548Z" transform="translate(-158.504 -21.749)" fill="#4c4c4c"/>
  </g>
</svg>
