<svg xmlns="http://www.w3.org/2000/svg" width="60" height="42" viewBox="0 0 60 42">
<defs>
	<style>.a{fill:#fff;opacity:0.6;}.b{fill:#000;}.c{stroke:none;}.d{fill:none;}</style>
</defs>
<g transform="translate(-1369 -921)">
	<g class="a" transform="translate(1369 921)"><rect class="c" width="60" height="42" rx="4"/>
		<rect class="d" x="0.5" y="0.5" width="59" height="41" rx="3.5"/>
	</g>
	<path class="b" d="M7.348,19.391a4.428,4.428,0,0,1-1.024-.947,12.7,12.7,0,0,1-.876-1.2,11.582,11.582,0,0,1-1.466-2.994,11.258,11.258,0,0,1-.612-3.579A6.653,6.653,0,0,1,4.2,7.306a4.76,4.76,0,0,1,1.729-1.8,4.61,4.61,0,0,1,2.338-.692,3.861,3.861,0,0,1,.93.124c.239.066.527.173.881.3.453.173.7.28.782.3a1.929,1.929,0,0,0,.659.14,1.971,1.971,0,0,0,.531-.107c.119-.041.346-.115.667-.255.318-.115.57-.214.77-.288a6.871,6.871,0,0,1,.865-.214,4.081,4.081,0,0,1,.945-.041,5.607,5.607,0,0,1,1.6.346,4.309,4.309,0,0,1,2.023,1.614,4.052,4.052,0,0,0-.6.453A5.041,5.041,0,0,0,17.3,8.436a4.2,4.2,0,0,0-.53,2.075,4.25,4.25,0,0,0,.692,2.355,4.389,4.389,0,0,0,1.263,1.265,3.237,3.237,0,0,0,.692.371c-.1.309-.207.609-.333.906a11.683,11.683,0,0,1-1.029,1.9c-.356.519-.636.906-.848,1.161a4.591,4.591,0,0,1-.972.9,2.163,2.163,0,0,1-1.2.359,2.651,2.651,0,0,1-.851-.1c-.239-.078-.474-.166-.7-.266a5.714,5.714,0,0,0-.745-.28,3.721,3.721,0,0,0-.958-.121,3.843,3.843,0,0,0-.955.119,5.934,5.934,0,0,0-.747.268c-.346.144-.572.239-.7.28a3.681,3.681,0,0,1-.815.144A2.264,2.264,0,0,1,7.338,19.4Zm5.644-15.2a3.066,3.066,0,0,1-1.625.359,3.3,3.3,0,0,1,.222-1.677,4.534,4.534,0,0,1,.823-1.383A4.453,4.453,0,0,1,13.755.451,3.818,3.818,0,0,1,15.311,0a3.743,3.743,0,0,1-.206,1.7,4.89,4.89,0,0,1-.823,1.449A4.154,4.154,0,0,1,12.976,4.19Z" transform="translate(1388.469 930.256)"/>
</g>
</svg>