<svg xmlns="http://www.w3.org/2000/svg" width="240.088" height="43.59" viewBox="0 0 240.088 43.59">
  <g id="工作區域_1" data-name="工作區域 1" transform="translate(-3.582 -6.199)">
    <g id="Group_106">
      <g id="Group_81">
        <g id="Icon_feather-upload-cloud">
          <path id="Path_147" d="M51.33,27.3a17.375,17.375,0,0,1-23.8,20.93,2.439,2.439,0,0,1,2.02-4.44h0a12.5,12.5,0,1,0,4.63-23.87,2.444,2.444,0,0,1-2.44-1.72l-.69-2.25a6.9,6.9,0,0,0-13.36.63,2.435,2.435,0,0,1-4.77-.97,11.774,11.774,0,0,1,22.79-1.09l.17.55a17.484,17.484,0,0,1,14.77,10.4,16.5,16.5,0,0,1,.67,1.82Z"/>
        </g>
      </g>
      <g id="Group_82">
        <g id="Group_68">
          <path id="Icon_material-wallpaper" d="M7.43,42.57A8.685,8.685,0,0,0,19.66,43l3.87-3.61.43-6.06-6.33-.27L7.43,42.57Z"/>
          <path id="Icon_material-wallpaper-2" d="M5.9,40.93A8.666,8.666,0,0,1,6.33,28.7l3.87-3.61h6.08l-.17,6.33L5.91,40.93Z"/>
        </g>
        <rect id="Rectangle_6225" width="6.15" height="6.15" rx="1.5" transform="translate(18.615 30.522) rotate(-88.01)"/>
      </g>
    </g>
    <g id="Component_16_1">
      <g id="BreezySign">
        <g id="Group_41783" data-name="Group 41783">
          <path id="Path_106323" data-name="Path 106323" d="M62.38,42.14V18.13H75.01c4.57,0,6.91,2.92,6.91,6.12a5.339,5.339,0,0,1-4.14,5.51,5.819,5.819,0,0,1,4.61,5.9c0,3.6-2.41,6.48-6.98,6.48H62.38Zm5.11-14.36H73.9a2.65,2.65,0,1,0,0-5.29H67.49v5.29Zm0,10.01h6.59c1.94,0,3.1-1.12,3.1-2.84a2.81,2.81,0,0,0-3.1-2.81H67.49v5.65Z"/>
          <path id="Path_106324" data-name="Path 106324" d="M86.25,42.14V24.75h4.57v2.38a7.415,7.415,0,0,1,5.54-2.77v4.46a6.2,6.2,0,0,0-1.26-.11,5.8,5.8,0,0,0-4.28,1.94V42.13H86.25Z"/>
          <path id="Path_106325" data-name="Path 106325" d="M107.2,24.33c5.18,0,8.71,3.89,8.71,9.57v1.01H102.99a4.679,4.679,0,0,0,5,4.03,7.09,7.09,0,0,0,4.64-1.73l2.02,2.95a10.7,10.7,0,0,1-7.16,2.41c-5.29,0-9.29-3.56-9.29-9.14a8.852,8.852,0,0,1,9-9.11Zm-4.28,7.49h8.57a4.024,4.024,0,0,0-4.28-3.85,4.17,4.17,0,0,0-4.28,3.85Z"/>
          <path id="Path_106326" data-name="Path 106326" d="M127.22,24.33c5.18,0,8.71,3.89,8.71,9.57v1.01H123.01a4.679,4.679,0,0,0,5,4.03,7.09,7.09,0,0,0,4.64-1.73l2.02,2.95a10.7,10.7,0,0,1-7.16,2.41c-5.29,0-9.29-3.56-9.29-9.14a8.852,8.852,0,0,1,9-9.11Zm-4.28,7.49h8.57a4.024,4.024,0,0,0-4.28-3.85,4.17,4.17,0,0,0-4.28,3.85Z"/>
          <path id="Path_106327" data-name="Path 106327" d="M138.6,42.14V38.72l7.85-9.97H138.6V24.76h14.04v3.31l-7.96,10.08h8.1v4H138.6Z"/>
          <path id="Path_106328" data-name="Path 106328" d="M156.78,44.84a3.978,3.978,0,0,0,1.44.29,2.3,2.3,0,0,0,2.41-1.26l.65-1.48-7.05-17.64h4.89l4.54,12.09,4.54-12.09h4.93l-8.17,20.23c-1.3,3.28-3.6,4.14-6.59,4.21a12.92,12.92,0,0,1-2.27-.25l.68-4.1Z"/>
          <path id="Path_106329" data-name="Path 106329" d="M176.54,34.87a10.539,10.539,0,0,0,7.63,3.24c2.81,0,4.17-1.33,4.17-2.7,0-1.8-2.09-2.41-4.86-3.06-3.92-.9-8.96-1.98-8.96-7.34,0-4,3.46-7.24,9.11-7.24a13.34,13.34,0,0,1,9.36,3.35l-2.84,3.74a10.249,10.249,0,0,0-6.88-2.63c-2.34,0-3.53,1.01-3.53,2.45,0,1.62,2.02,2.12,4.79,2.77,3.96.9,9,2.09,9,7.41,0,4.39-3.13,7.7-9.61,7.7-4.61,0-7.92-1.55-10.19-3.82l2.81-3.89Z"/>
          <path id="Path_106330" data-name="Path 106330" d="M196.52,19.47a2.74,2.74,0,0,1,5.48,0,2.74,2.74,0,0,1-5.48,0Zm.47,22.68V24.76h4.57V42.15Z"/>
          <path id="Path_106331" data-name="Path 106331" d="M207.89,43.3a6.9,6.9,0,0,0,5.44,2.16c2.2,0,4.79-.97,4.79-4.39V39.31a6.771,6.771,0,0,1-5.36,2.74c-4.36,0-7.67-3.06-7.67-8.85s3.28-8.85,7.67-8.85a6.688,6.688,0,0,1,5.36,2.66V24.78h4.61v16.2c0,6.62-5.11,8.24-9.39,8.24a10.47,10.47,0,0,1-7.49-2.59l2.05-3.31Zm10.22-12.92a4.964,4.964,0,0,0-3.92-1.98c-2.59,0-4.39,1.8-4.39,4.79s1.8,4.79,4.39,4.79A5.037,5.037,0,0,0,218.11,36V30.38Z"/>
          <path id="Path_106332" data-name="Path 106332" d="M239.1,42.14V31.63c0-2.41-1.26-3.24-3.2-3.24a4.968,4.968,0,0,0-3.96,2.05v11.7h-4.57V24.75h4.57v2.27a7.973,7.973,0,0,1,6.08-2.7c3.82,0,5.65,2.16,5.65,5.54V42.13H239.1Z"/>
        </g>
      </g>
    </g>
  </g>
</svg>
