<svg xmlns="http://www.w3.org/2000/svg" xmlns:xlink="http://www.w3.org/1999/xlink" width="24" height="24" viewBox="0 0 24 24">
  <defs>
    <clipPath id="clip-path">
      <circle id="Ellipse_4" data-name="Ellipse 4" cx="12" cy="12" r="12" transform="translate(663.264 796.389)" fill="none"/>
    </clipPath>
  </defs>
  <g id="Group_25" data-name="Group 25" transform="translate(-663.264 -796.389)">
    <g id="Group_24" data-name="Group 24" clip-path="url(#clip-path)">
      <circle id="Ellipse_3" data-name="Ellipse 3" cx="12" cy="12" r="12" transform="translate(663.264 796.389)" fill="#3892c6"/>
      <g id="Group_23" data-name="Group 23">
        <path id="Path_56" data-name="Path 56" d="M670.882,805.42a5.73,5.73,0,0,0-3.141.158,4.655,4.655,0,0,0-2.492,1.792c-1.479,2.445,2.4,3.577,4.064,4.01l-.352-.347c.009-.054,0-.048-.023.018a.459.459,0,0,1-.121.166,1.475,1.475,0,0,1-.3.219c-.236.138-.5.243-.746.357q-.85.393-1.721.745-1.675.68-3.406,1.212c-.469.145.007,1.015.414.889q2.028-.629,3.987-1.453c.63-.267,1.26-.542,1.874-.845.448-.221.905-.6.826-1.148-.1-.73-.847-.755-1.421-.945a13.04,13.04,0,0,1-1.93-.8c-.224-.116-.538-.26-.637-.511a1.041,1.041,0,0,1,.165-.833,3.493,3.493,0,0,1,1.268-1.188,5.279,5.279,0,0,1,3.92-.6c.239.056.305-.24.268-.41a.66.66,0,0,0-.494-.489Z" fill="#fff"/>
        <path id="Path_57" data-name="Path 57" d="M670.573,812.2l2.361-1.555-.293.078c.344.037.381.751.46,1a.915.915,0,0,0,1,.744,3.04,3.04,0,0,0,1.565-1.074,4.25,4.25,0,0,0,1.132-1.721c.1-.319-.478-.31-.554-.066a4.623,4.623,0,0,1-1.476,2.005c-.234.211-.634.646-.925.3a1.8,1.8,0,0,1-.262-.729c-.1-.41-.338-1.012-.89-.864a2.307,2.307,0,0,0-.582.358l-.639.421-1.279.842a.18.18,0,0,0-.032.3.387.387,0,0,0,.416-.035Z" fill="#fff"/>
        <path id="Path_58" data-name="Path 58" d="M680.045,809.676a1.707,1.707,0,0,0-1.924-1.974,2.7,2.7,0,0,0-2.175,2.337,1.237,1.237,0,0,0,1.827,1.378,3.5,3.5,0,0,0,2.2-2.417c.115-.6-.843-.62-.963-.088-.343,1.527-.745,3.039-1.129,4.556-.2.774-.377,1.551-.559,2.328-.127.543-.266,1.293-.827,1.555l.648.33a7.485,7.485,0,0,1,4.853-7.328l-.64-.444a6.14,6.14,0,0,1-.684,2.131l.881.306a11.252,11.252,0,0,1,1.47-2.214l-.778.03a3.081,3.081,0,0,1,1.006,2.36c-.005.4.52.417.767.266,1.851-1.132,4-2.77,4.465-5.021.125-.6-.851-.623-.963-.087-.415,2-2.416,3.431-4.054,4.434l.766.267a3.743,3.743,0,0,0-1.174-2.786.532.532,0,0,0-.777.03,12.281,12.281,0,0,0-1.609,2.415c-.289.569.618.794.881.306a6.85,6.85,0,0,0,.766-2.35c.05-.377-.312-.562-.639-.444a8.484,8.484,0,0,0-5.518,8.27.454.454,0,0,0,.649.33c1.4-.654,1.5-2.447,1.827-3.772.44-1.795.93-3.577,1.335-5.38l-.963-.088a2,2,0,0,1-.964,1.367,2.432,2.432,0,0,1-.736.406c-.359.063-.4-.241-.4-.546a1.815,1.815,0,0,1,.933-1.472.87.87,0,0,1,1.236.922c-.148.593.83.617.963.087Z" fill="#fff"/>
      </g>
      <path id="Path_59" data-name="Path 59" d="M672.667,807.226l.033,1.874,1.714-.4,5.362-6.367-1.747-1.472Zm8.821-7c.189-.224.3-.443.073-.632l-1.073-.9a.529.529,0,0,0-.747.064l-.887,1.053,1.746,1.472Z" fill="#fff"/>
    </g>
  </g>
</svg>
