<svg xmlns="http://www.w3.org/2000/svg" width="15" height="15" viewBox="0 0 15 15">
  <path id="Icon_awesome-stamp" data-name="Icon awesome-stamp" d="M.937,15H14.062V13.125H.937Zm11.25-7.5h-1.95a.862.862,0,0,1-.862-.863V6.361A4.977,4.977,0,0,1,10,4.084a2.777,2.777,0,0,0,.265-1.77,2.813,2.813,0,0,0-5.581.5,2.752,2.752,0,0,0,.255,1.16,6.38,6.38,0,0,1,.683,2.663v0a.862.862,0,0,1-.862.863H2.812A2.812,2.812,0,0,0,0,10.313v.938a.938.938,0,0,0,.937.938H14.062A.938.938,0,0,0,15,11.25v-.937A2.812,2.812,0,0,0,12.187,7.5Z" transform="translate(0 0)"/>
</svg>
