<svg id="Group_9874" data-name="Group 9874" xmlns="http://www.w3.org/2000/svg" width="14.078" height="15.161" viewBox="0 0 14.078 15.161">
  <g id="Group_9511" data-name="Group 9511" transform="translate(0 0)">
    <path id="address-book" d="M14.078,10.017v1.624a.261.261,0,0,1-.271.271h-.812v1.9a1.357,1.357,0,0,1-1.354,1.354H1.354a1.3,1.3,0,0,1-.956-.4,1.3,1.3,0,0,1-.4-.956V1.354A1.3,1.3,0,0,1,.4.4,1.3,1.3,0,0,1,1.354,0H11.641A1.3,1.3,0,0,1,12.6.4a1.3,1.3,0,0,1,.4.956v1.9h.812a.261.261,0,0,1,.271.271V5.144a.261.261,0,0,1-.271.271h-.812V6.5h.812a.261.261,0,0,1,.271.271V8.392a.261.261,0,0,1-.271.271h-.812V9.746h.812a.261.261,0,0,1,.271.271Z" fill="#008145"/>
    <path id="Icon_material-person" data-name="Icon material-person" d="M9.566,9.566A1.783,1.783,0,1,0,7.783,7.783,1.783,1.783,0,0,0,9.566,9.566Zm0,.892c-1.19,0-3.566.6-3.566,1.783v.892h7.133v-.892C13.133,11.055,10.757,10.458,9.566,10.458Z" transform="translate(-3.072 -2.287)" fill="#fff"/>
  </g>
</svg>
