<svg xmlns="http://www.w3.org/2000/svg" xmlns:xlink="http://www.w3.org/1999/xlink" width="22" height="22" viewBox="0 0 22 22">
  <defs>
    <clipPath id="clip-path">
      <path id="sms_24dp_718EEE_FILL0_wght400_GRAD0_opsz24" d="M8.8-14.3a1.064,1.064,0,0,0,.784-.316A1.064,1.064,0,0,0,9.9-15.4a1.064,1.064,0,0,0-.316-.784A1.064,1.064,0,0,0,8.8-16.5a1.064,1.064,0,0,0-.784.316A1.064,1.064,0,0,0,7.7-15.4a1.064,1.064,0,0,0,.316.784A1.064,1.064,0,0,0,8.8-14.3Zm4.4,0a1.064,1.064,0,0,0,.784-.316A1.064,1.064,0,0,0,14.3-15.4a1.064,1.064,0,0,0-.316-.784A1.064,1.064,0,0,0,13.2-16.5a1.064,1.064,0,0,0-.784.316,1.064,1.064,0,0,0-.316.784,1.064,1.064,0,0,0,.316.784A1.064,1.064,0,0,0,13.2-14.3Zm4.4,0a1.064,1.064,0,0,0,.784-.316A1.064,1.064,0,0,0,18.7-15.4a1.064,1.064,0,0,0-.316-.784A1.064,1.064,0,0,0,17.6-16.5a1.064,1.064,0,0,0-.784.316,1.064,1.064,0,0,0-.316.784,1.064,1.064,0,0,0,.316.784A1.064,1.064,0,0,0,17.6-14.3ZM2.2-2.2V-22a2.118,2.118,0,0,1,.646-1.554A2.118,2.118,0,0,1,4.4-24.2H22a2.118,2.118,0,0,1,1.554.646A2.118,2.118,0,0,1,24.2-22V-8.8a2.118,2.118,0,0,1-.646,1.554A2.118,2.118,0,0,1,22-6.6H6.6ZM5.665-8.8H22V-22H4.4V-7.562ZM4.4-8.8v0Z" transform="translate(1584.8 196.2)" fill="#212121"/>
    </clipPath>
  </defs>
  <g id="Group_39436" data-name="Group 39436" transform="translate(-1587 -172)">
    <g id="Mask_Group_88" data-name="Mask Group 88" clip-path="url(#clip-path)">
      <path id="sms_24dp_718EEE_FILL0_wght400_GRAD0_opsz24-2" data-name="sms_24dp_718EEE_FILL0_wght400_GRAD0_opsz24" d="M8.8-14.3a1.064,1.064,0,0,0,.784-.316A1.064,1.064,0,0,0,9.9-15.4a1.064,1.064,0,0,0-.316-.784A1.064,1.064,0,0,0,8.8-16.5a1.064,1.064,0,0,0-.784.316A1.064,1.064,0,0,0,7.7-15.4a1.064,1.064,0,0,0,.316.784A1.064,1.064,0,0,0,8.8-14.3Zm4.4,0a1.064,1.064,0,0,0,.784-.316A1.064,1.064,0,0,0,14.3-15.4a1.064,1.064,0,0,0-.316-.784A1.064,1.064,0,0,0,13.2-16.5a1.064,1.064,0,0,0-.784.316,1.064,1.064,0,0,0-.316.784,1.064,1.064,0,0,0,.316.784A1.064,1.064,0,0,0,13.2-14.3Zm4.4,0a1.064,1.064,0,0,0,.784-.316A1.064,1.064,0,0,0,18.7-15.4a1.064,1.064,0,0,0-.316-.784A1.064,1.064,0,0,0,17.6-16.5a1.064,1.064,0,0,0-.784.316,1.064,1.064,0,0,0-.316.784,1.064,1.064,0,0,0,.316.784A1.064,1.064,0,0,0,17.6-14.3ZM2.2-2.2V-22a2.118,2.118,0,0,1,.646-1.554A2.118,2.118,0,0,1,4.4-24.2H22a2.118,2.118,0,0,1,1.554.646A2.118,2.118,0,0,1,24.2-22V-8.8a2.118,2.118,0,0,1-.646,1.554A2.118,2.118,0,0,1,22-6.6H6.6ZM5.665-8.8H22V-22H4.4V-7.562ZM4.4-8.8v0Z" transform="translate(1584.8 196.2)" fill="#212121"/>
    </g>
  </g>
</svg>
