<svg xmlns="http://www.w3.org/2000/svg" width="17.608" height="17.718" viewBox="0 0 17.608 17.718">
  <g id="Group_9708" data-name="Group 9708" transform="translate(0.351 0.25)">
    <g id="clock-history" transform="translate(0 0)">
      <path id="Path_10252" data-name="Path 10252" d="M18.541,1.085q-.27-.02-.541-.02V0c.205,0,.412.008.617.023l-.076,1.061Zm2.1.479a7.283,7.283,0,0,0-1.034-.318l.23-1.039a8.139,8.139,0,0,1,1.182.364Zm1.439.756q-.225-.152-.461-.288l.518-.926a8.421,8.421,0,0,1,1.028.7l-.646.84q-.214-.169-.439-.321Zm1.926,1.905a7.421,7.421,0,0,0-.686-.847l.76-.734a8.831,8.831,0,0,1,.785.968l-.859.613Zm.781,1.439q-.1-.253-.225-.5l.938-.479a8.555,8.555,0,0,1,.472,1.158l-1,.333Q24.9,5.917,24.793,5.663Zm.557,2.669a7.538,7.538,0,0,0-.105-1.091l1.034-.181A8.7,8.7,0,0,1,26.4,8.305l-1.05.026Zm-.138,1.637c.035-.181.063-.361.085-.543l1.043.131a8.571,8.571,0,0,1-.242,1.23L25.085,10.5q.072-.263.126-.533Zm-1,2.532a7.55,7.55,0,0,0,.51-.967l.96.431a8.636,8.636,0,0,1-.583,1.105l-.887-.57ZM23.2,13.784c.128-.13.251-.264.367-.4l.8.695q-.2.238-.421.46l-.743-.753Z" transform="translate(-9.401 0)" fill="#008145" stroke="#008145" stroke-width="0.5" fill-rule="evenodd"/>
      <path id="Path_10253" data-name="Path 10253" d="M8.512,1.062a7.439,7.439,0,1,0,5.269,12.7l.753.751A8.509,8.509,0,1,1,8.512,0Z" transform="translate(0.007 0)" fill="#008145" stroke="#008145" stroke-width="0.5" fill-rule="evenodd"/>
      <path id="Path_10254" data-name="Path 10254" d="M16.275,6.75a.525.525,0,0,1,.525.525v5.472L20.212,14.7a.525.525,0,0,1-.521.912l-3.676-2.1a.525.525,0,0,1-.265-.456V7.275A.525.525,0,0,1,16.275,6.75Z" transform="translate(-8.277 -3.522)" fill="#008145" stroke="#008145" stroke-width="0.5" fill-rule="evenodd"/>
    </g>
  </g>
</svg>
