<svg xmlns="http://www.w3.org/2000/svg" width="16.369" height="18.644" viewBox="0 0 16.369 18.644">
  <g id="Group_9701" data-name="Group 9701" transform="translate(0 0.728)">
    <g id="Group_9438" data-name="Group 9438" transform="translate(0 0)">
      <path id="Icon_awesome-pen" data-name="Icon awesome-pen" d="M7.046,2.108l3.745,3.745L4.119,12.539l-3.339.369A.7.7,0,0,1,0,12.132L.376,8.791l6.67-6.683Zm5.421.062L10.709.411a1.4,1.4,0,0,0-1.987,0L7.068,2.066l3.745,3.745,1.654-1.654a1.4,1.4,0,0,0,0-1.987Z" transform="matrix(0.999, -0.035, 0.035, 0.999, 1.523, 0.449)" fill="none" stroke="#797979" stroke-width="1.4"/>
      <path id="Path_10304" data-name="Path 10304" d="M0,0H16.369" transform="translate(0 17.216)" fill="none" stroke="#797979" stroke-width="1.4"/>
    </g>
  </g>
</svg>
