<svg xmlns="http://www.w3.org/2000/svg" width="17.726" height="17.726" viewBox="0 0 17.726 17.726">
  <g id="Group_9886" data-name="Group 9886" transform="translate(0.2 0.2)">
    <g id="Icon_ionic-ios-checkmark-circle-outline" data-name="Icon ionic-ios-checkmark-circle-outline" transform="translate(0 0)">
      <path id="Path_10228" data-name="Path 10228" d="M18.85,13.034l-.679-.71a.145.145,0,0,0-.108-.047h0a.139.139,0,0,0-.108.047l-4.622,4.724-1.808-1.831a.147.147,0,0,0-.216,0l-.686.7a.158.158,0,0,0,0,.224l2.255,2.286a.678.678,0,0,0,.451.224.711.711,0,0,0,.447-.216h0l5.073-5.175A.17.17,0,0,0,18.85,13.034Z" transform="translate(-6.016 -6.848)" fill="#008145" stroke="#008145" stroke-width="0.4"/>
      <path id="Path_10229" data-name="Path 10229" d="M12.038,4.541a7.494,7.494,0,1,1-5.3,2.195,7.447,7.447,0,0,1,5.3-2.195m0-1.166A8.663,8.663,0,1,0,20.7,12.038a8.662,8.662,0,0,0-8.663-8.663Z" transform="translate(-3.375 -3.375)" fill="#008145" stroke="#008145" stroke-width="0.4"/>
    </g>
  </g>
</svg>
