<svg xmlns="http://www.w3.org/2000/svg" width="35" height="35" viewBox="0 0 35 35">
  <g id="Group_41645" data-name="Group 41645" transform="translate(-1001 732)">
    <rect id="Rectangle_11750" data-name="Rectangle 11750" width="35" height="35" transform="translate(1001 -732)" fill="none"/>
    <g id="Group_41630" data-name="Group 41630" transform="translate(-206.758 -1283.5)">
      <path id="Subtraction_30" data-name="Subtraction 30" d="M14.533,20.026H9.282V8.963H22.028v2.443a6.274,6.274,0,0,0-7.5,8.618Zm-7.053,0H2a2,2,0,0,1-2-2V8.963H7.48V20.024l0,0ZM22.029,7.319H0V2A2,2,0,0,1,2,0H20.03a2,2,0,0,1,2,2V7.318Z" transform="translate(1212.758 557.5)" fill="#f1f2f4"/>
      <path id="Icon_awesome-play-circle" data-name="Icon awesome-play-circle" d="M5.7.563A5.139,5.139,0,1,0,10.84,5.7,5.138,5.138,0,0,0,5.7.563ZM8.1,6.2,4.452,8.291a.5.5,0,0,1-.74-.435V3.546a.5.5,0,0,1,.74-.435L8.1,5.328A.5.5,0,0,1,8.1,6.2Z" transform="translate(1227.669 569.697)" fill="#f1f2f4"/>
    </g>
  </g>
</svg>
