<svg xmlns="http://www.w3.org/2000/svg" width="35" height="35" viewBox="0 0 35 35">
  <g id="Group_41644" data-name="Group 41644" transform="translate(-953 732)">
    <rect id="Rectangle_11749" data-name="Rectangle 11749" width="35" height="35" transform="translate(953 -732)" fill="none"/>
    <path id="Icon_awesome-file-signature" data-name="Icon awesome-file-signature" d="M10.243,19.913a.52.52,0,0,0-.477-.306.512.512,0,0,0-.47.291l-.36.72a.751.751,0,0,1-1.384-.1l-.79-2.37-.5,1.5a2.027,2.027,0,0,1-1.925,1.386H3.756a.751.751,0,0,1,0-1.5h.582a.526.526,0,0,0,.5-.36l.854-2.565a1.127,1.127,0,0,1,2.139,0l.652,1.955a2.107,2.107,0,0,1,3.1.665.533.533,0,0,0,.439.294V15.664L18.029,9.7V7.512H11.643a1.13,1.13,0,0,1-1.127-1.127V0H1.127A1.124,1.124,0,0,0,0,1.127V22.911a1.124,1.124,0,0,0,1.127,1.127H16.9a1.124,1.124,0,0,0,1.127-1.127V21.033l-6.01-.005A2.016,2.016,0,0,1,10.243,19.913Zm7.786-14.19A1.123,1.123,0,0,0,17.7,4.93L13.1.329a1.126,1.126,0,0,0-.8-.329h-.286V6.01h6.01ZM13.521,16.29v3.241H16.76l7.591-7.642L21.164,8.7ZM26.693,7.856l-1.5-1.5a1.2,1.2,0,0,0-1.691,0L22.226,7.639l3.187,3.187,1.279-1.279A1.2,1.2,0,0,0,26.693,7.856Z" transform="translate(957.021 -726.787)" fill="#f1f2f4"/>
  </g>
</svg>
