<svg xmlns="http://www.w3.org/2000/svg" xmlns:xlink="http://www.w3.org/1999/xlink" width="35" height="35" viewBox="0 0 35 35">
  <defs>
    <clipPath id="clip-path">
      <rect id="Rectangle_11745" data-name="Rectangle 11745" width="33.733" height="32" fill="none"/>
    </clipPath>
    <linearGradient id="linear-gradient" x1="0.105" y1="0.127" x2="0.852" y2="0.812" gradientUnits="objectBoundingBox">
      <stop offset="0" stop-color="#26ff55"/>
      <stop offset="0.523" stop-color="#268aff"/>
      <stop offset="1" stop-color="#fc55ff"/>
    </linearGradient>
  </defs>
  <g id="Group_41642" data-name="Group 41642" transform="translate(-1275.719 -708.794)">
    <g id="Group_41634" data-name="Group 41634" transform="translate(1276.719 711.794)" clip-path="url(#clip-path)">
      <path id="Path_106181" data-name="Path 106181" d="M12.494,25.91a2.547,2.547,0,0,1-.971-.191,2.547,2.547,0,0,1-.971.191h-5.9A4.6,4.6,0,0,1,0,21.375V11.852a2.376,2.376,0,0,1,.161-.865A2.365,2.365,0,0,1,0,10.124V4.535A4.6,4.6,0,0,1,4.648,0H24.075a4.6,4.6,0,0,1,4.648,4.535v5.588a2.354,2.354,0,0,1-.163.866,2.371,2.371,0,0,1,.162.863v2.567a2.412,2.412,0,0,1-1,1.949,2.534,2.534,0,0,1-1.49.483,2.6,2.6,0,0,1-.713-.1,4.352,4.352,0,0,0-1.222-.176,4.277,4.277,0,0,0-4.085,2.975,4.055,4.055,0,0,0,.186,2.871,2.369,2.369,0,0,1,.181,1.615,2.478,2.478,0,0,1-2.424,1.875Z" transform="translate(0 0)" fill="#fff"/>
      <path id="Path_106182" data-name="Path 106182" d="M21.664,27.208a8.2,8.2,0,0,1-8.293-8.087,8.3,8.3,0,0,1,16.589-.006,8.2,8.2,0,0,1-8.294,8.093Z" transform="translate(2.3 1.929)" fill="#fff"/>
    </g>
    <g id="Group_41632" data-name="Group 41632" transform="translate(1280.21 715.247)">
      <path id="Subtraction_30" data-name="Subtraction 30" d="M14.533,20.026H9.282V8.963H22.028v2.443a6.274,6.274,0,0,0-7.5,8.618Zm-7.053,0H2a2,2,0,0,1-2-2V8.963H7.48V20.024l0,0ZM22.029,7.319H0V2A2,2,0,0,1,2,0H20.03a2,2,0,0,1,2,2V7.318Z" transform="translate(0 0)" fill="url(#linear-gradient)"/>
      <path id="Icon_awesome-play-circle" data-name="Icon awesome-play-circle" d="M5.7.563A5.139,5.139,0,1,0,10.84,5.7,5.138,5.138,0,0,0,5.7.563ZM8.1,6.2,4.452,8.291a.5.5,0,0,1-.74-.435V3.546a.5.5,0,0,1,.74-.435L8.1,5.328A.5.5,0,0,1,8.1,6.2Z" transform="translate(14.911 12.197)" fill="url(#linear-gradient)"/>
    </g>
    <rect id="Rectangle_11747" data-name="Rectangle 11747" width="35" height="34.191" transform="translate(1275.719 708.794)" fill="none"/>
  </g>
</svg>
