<svg xmlns="http://www.w3.org/2000/svg" width="251.999" height="182.257" viewBox="0 0 251.999 182.257">
  <g id="Group_41757" data-name="Group 41757" transform="translate(1016.499 3165.599)">
    <g id="Group_41754" data-name="Group 41754" transform="translate(268.144 592)">
      <g id="Group_5831" data-name="Group 5831" transform="translate(-1286.594 -3756.408)" opacity="0.17" style="mix-blend-mode: normal;isolation: isolate">
        <path id="Path_7195" data-name="Path 7195" d="M285.417-174.775c-12.8-9.727-34.7-33.864-5.864-71.755,35.658-46.857-7.046-66.08-47.979-64.074-32.931,1.614-69.992-39.785-106.962-32.386-49.071,9.821-17.209,52.078-50.48,74.845-28.375,19.416-16.193,78.576,20.737,93.37Z" transform="translate(-56.534 345.627)" fill="#009149" style="mix-blend-mode: normal;isolation: isolate"/>
      </g>
      <g id="Group_41753" data-name="Group 41753" transform="translate(-69.13 195.474)">
        <path id="Path_106340" data-name="Path 106340" d="M1027.033,213.389c2.293-6.524,13.373-3.617,13.373-3.617s6.77,12.211,8.968,12.651-3.75-11.57-3.75-11.57c4.33-.1,14.9,5.977,14.9,5.977s-1.694,13.54.546,13.426.888-12.065.888-12.065c4.068,1.554,7.594,6.694,7.594,6.694,4.272,8.262-6.558,13.321-6.558,13.321a22.182,22.182,0,0,0,2.028,10.328h0a16.094,16.094,0,0,1,1.127,2.794l-1.134-.083q-.105-.466-.243-.9a.007.007,0,0,0,0-.005l0-.012c-.065-.181-.158-.439-.275-.753h0c-.3-.7-.494-1.222-.615-1.595v0c-.882-2.206-2.173-5.091-3.128-5.746a2.2,2.2,0,0,0,.281-.5l-.281.5c-2.248,4.018-12.006,4-17.333,2.489s-2.857-2.86.238-5.121,9.148-1.16,11.023-2-.689-2-4.315-1.991-5.694,3.485-11.56,3.611-9.5-11.157-9.5-11.157c3.93,1.544,11.3-.144,11.684-1.51s-10.309-2.014-11.943-2.552S1024.74,219.912,1027.033,213.389Z" transform="translate(-2129.638 -4357.614) rotate(16)" fill="#e7eeff"/>
        <path id="Path_106341" data-name="Path 106341" d="M927.679,1017.9c2.012-8.3,15.978-6.09,15.978-6.09s9.819,14.162,12.574,14.432S950.2,1012.5,950.2,1012.5c5.305-.656,19.033,5.5,19.033,5.5s-.411,16.837,2.325,16.421-.4-14.927-.4-14.927c5.188,1.407,10.152,7.285,10.152,7.285,6.265,9.62-6.412,17.168-6.412,17.168a27.381,27.381,0,0,0,3.764,12.434h0a19.86,19.86,0,0,1,1.728,3.292l-1.4.037q-.187-.56-.41-1.079a.008.008,0,0,0,0-.006l-.006-.015c-.1-.214-.248-.519-.43-.891h0v0c-.451-.828-.757-1.44-.952-1.883v0c-1.354-2.6-3.3-5.984-4.55-6.671a2.722,2.722,0,0,0,.283-.651l-.283.651c-2.266,5.211-14.253,6.388-20.981,5.193s-3.861-3.16-.339-6.319,11.093-2.552,13.291-3.812-1.093-2.375-5.545-1.913-6.564,4.982-13.752,5.859-13.038-12.531-13.038-12.531c5.017,1.412,13.866-1.57,14.164-3.295s-12.909-1.2-14.982-1.663S925.667,1026.2,927.679,1017.9Z" transform="translate(-2356.798 -4599.055) rotate(-14)" fill="#a9bae6"/>
      </g>
      <path id="Path_7182" data-name="Path 7182" d="M149.443-298.12l.913-3.474-1.716-3.156,3.474.913,3.156-1.716-.913,3.474,1.716,3.156-3.474-.913Z" transform="translate(-1379.517 -3419.108)" fill="#32af6b" style="mix-blend-mode: normal;isolation: isolate"/>
      <path id="Path_7183" data-name="Path 7183" d="M230.835-264.36l.1,2.834,2.013,2-2.833.1-2,2.014-.1-2.834-2.013-2,2.834-.1Z" transform="translate(-1390.07 -3433.063)" fill="#006dcd"/>
      <path id="Path_7184" data-name="Path 7184" d="M181.841-302.077l.533-2.025-1-1.838,2.025.532,1.84-1-.533,2.025,1,1.838-2.025-.532Z" transform="translate(-1386.067 -3420.417)" fill="#fff"/>
      <path id="Path_7185" data-name="Path 7185" d="M130.983-283.964c-2.474-3.135,2.507-6.949,4.888-3.741C138.345-284.57,133.364-280.758,130.983-283.964Z" transform="translate(-1363.703 -3415.856)" fill="#fcdf90"/>
      <path id="Path_7186" data-name="Path 7186" d="M173.542-277.162c1.571-2.064,4.776.449,3.146,2.467C175.118-272.631,171.912-275.145,173.542-277.162Z" transform="translate(-1379.808 -3429.416)" fill="#ff9595" style="mix-blend-mode: normal;isolation: isolate"/>
      <path id="Path_7183-2" data-name="Path 7183" d="M335.2-248.239l.1,2.835,2.013,2-2.833.1-2,2.013-.1-2.834-2.013-2,2.834-.1Z" transform="translate(-1415.845 -3436.366)" fill="#fff"/>
      <path id="Path_7185-2" data-name="Path 7185" d="M328-274.742c3.27,2.292-.4,7.376-3.606,4.99C321.126-272.045,324.8-277.129,328-274.742Z" transform="translate(-1422.284 -3434.21)" fill="#fcdf90"/>
      <ellipse id="Ellipse_394" data-name="Ellipse 394" cx="117.556" cy="7.739" rx="117.556" ry="7.739" transform="translate(-1274.679 -3590.82)" fill="#32af6b"/>
      <g id="Group_5829" data-name="Group 5829" transform="translate(-1227.16 -3720.945)">
        <path id="Path_7175" data-name="Path 7175" d="M138.348-224.755v71.782a8.528,8.528,0,0,0,8.528,8.528H266.532a8.528,8.528,0,0,0,8.529-8.528h0v-71.782Z" transform="translate(-138.347 276.784)" fill="#aaa"/>
        <path id="Path_7176" data-name="Path 7176" d="M271.989-251.086,211.11-295.6a7.472,7.472,0,0,0-8.82,0l-60.88,44.513a7.469,7.469,0,0,0-3.063,6.032v.044h136.7v-.044A7.469,7.469,0,0,0,271.989-251.086Z" transform="translate(-138.347 297.039)" fill="#f1f1f6"/>
        <rect id="Rectangle_4138" data-name="Rectangle 4138" width="101.596" height="81.404" rx="3.714" transform="translate(17.703 40.054)" fill="#ffde85" style="mix-blend-mode: normal;isolation: isolate"/>
        <g id="Group_5821" data-name="Group 5821" transform="translate(31.968 60.947)">
          <path id="Path_7177" data-name="Path 7177" d="M184.163-212.364a1.356,1.356,0,0,0-1.4,1.307,1.355,1.355,0,0,0,1.307,1.4h70.664a1.355,1.355,0,0,0,1.4-1.307,1.355,1.355,0,0,0-1.307-1.4h-.094" transform="translate(-182.761 212.365)" fill="#fff"/>
          <path id="Path_7178" data-name="Path 7178" d="M184.182-196.2a1.354,1.354,0,0,0-1.355,1.355,1.355,1.355,0,0,0,1.355,1.355h70.57a1.355,1.355,0,0,0,1.355-1.355,1.355,1.355,0,0,0-1.355-1.355" transform="translate(-182.779 207.836)" fill="#fff"/>
          <path id="Path_7179" data-name="Path 7179" d="M184.182-180.045a1.354,1.354,0,0,0-1.355,1.355,1.355,1.355,0,0,0,1.355,1.355h70.57a1.355,1.355,0,0,0,1.355-1.355,1.355,1.355,0,0,0-1.355-1.355" transform="translate(-182.779 203.309)" fill="#fff"/>
        </g>
        <path id="Path_7180" data-name="Path 7180" d="M150.182-144.448H269.988a8.379,8.379,0,0,0,8.379-8.379h0v-71.927Z" transform="translate(-141.663 276.784)" fill="#feffff"/>
        <path id="Path_7181" data-name="Path 7181" d="M138.348-224.755v71.927a8.38,8.38,0,0,0,8.38,8.38h119.8Z" transform="translate(-138.347 276.784)" fill="#f2f0f7"/>
      </g>
      <ellipse id="Ellipse_974" data-name="Ellipse 974" cx="3.008" cy="3.008" rx="3.008" ry="3.008" transform="translate(-1077.753 -3704.623)" fill="#32af6b"/>
      <path id="Path_106331" data-name="Path 106331" d="M1420.647,1082.311a1.755,1.755,0,1,1-1.755-1.755A1.755,1.755,0,0,1,1420.647,1082.311Z" transform="translate(-2529.811 -4782.673)" fill="#ff9595"/>
      <path id="Path_106332" data-name="Path 106332" d="M1780.766,1303.048c-2.662,1.009-20.291,2.86-19.565,5.094s13.048,4.485,19.435,1.645c0,0-5.183,18.923-14.892,19.144s-13.384-5.373-19.381-5.128-10.153,2.358-6.992,3.607,13.094-1.015,18.376,2.5c.776.516,1.528,1,2.218,1.46.416.277.81.546,1.174.807h-35.32c0-.286,0-.556-.007-.807a20.826,20.826,0,0,0-.157-2.338s-18.28-7.576-11.819-21.552c0,0,5.456-8.757,12.071-11.625,0,0-1.362,19.864,2.349,19.888s-.078-22.243-.078-22.243,17.033-10.82,24.2-10.972c0,0-8.961,20.3-5.356,19.408s13.908-21.578,13.908-21.578,18.112-5.616,22.381,5.005S1783.428,1302.038,1780.766,1303.048Z" transform="translate(-2830.803 -4917.175)" fill="#a9bae6"/>
    </g>
    <g id="Group_41756" data-name="Group 41756" transform="translate(1074.653 402.401)" opacity="0.17">
      <path id="Path_7196" data-name="Path 7196" d="M399.506-231.125c-.2-6.948-6.67-9.644-10.99-4.613a21.685,21.685,0,0,0-5.283,12.56c-.989,12.388,9.849,8.8,13.9,2.166A18.945,18.945,0,0,0,399.506-231.125Z" transform="translate(-2238.668 -3251.948)" fill="#009149" style="mix-blend-mode: normal;isolation: isolate"/>
      <path id="Path_7197" data-name="Path 7197" d="M236.89-346.125c-6.829-1.292-10.846,4.455-6.856,9.75a21.683,21.683,0,0,0,11.141,7.846c11.89,3.615,10.7-7.74,5.087-13.114A18.945,18.945,0,0,0,236.89-346.125Z" transform="translate(-2195.313 -3221.691)" fill="#009149" style="mix-blend-mode: normal;isolation: isolate"/>
      <path id="Path_7198" data-name="Path 7198" d="M75.622-261.327c2.732-6.392-2.015-11.551-8.046-8.8a21.685,21.685,0,0,0-10.061,9.189c-6.09,10.833,5.254,12.116,11.712,7.792A18.955,18.955,0,0,0,75.622-261.327Z" transform="translate(-2146.927 -3242.827)" fill="#009149" style="mix-blend-mode: normal;isolation: isolate"/>
    </g>
  </g>
</svg>
