<svg xmlns="http://www.w3.org/2000/svg" width="71.984" height="55.001" viewBox="0 0 71.984 55.001">
  <g id="Group_39820" data-name="Group 39820" transform="translate(-916 -4432.999)">
    <path id="Icon_awesome-signature" data-name="Icon awesome-signature" d="M56.968,16.2c-4.735.32-11.491,5-14.91,6.536-2.66,1.2-4.955,2.23-6.957,2.23-2.066,0-2.377-1.481-1.947-4.744.1-.731,1.07-7.24-3.9-6.957-2.294.137-5.878,2.267-15.495,11.518l3.794-9.48a7.9,7.9,0,0,0-11.856-9.4L.676,9.281A1.47,1.47,0,0,0,.228,11.3L1.8,13.77a1.454,1.454,0,0,0,2.02.448l5.3-3.556a2.041,2.041,0,0,1,2.989,2.477L3.135,35.59A2.921,2.921,0,0,0,5.85,39.6a2.891,2.891,0,0,0,2.066-.859c3.858-3.858,14.142-13.776,19.307-17.9-.2,2.605-.192,5.384,1.883,7.66a7.714,7.714,0,0,0,5.988,2.313c3.254,0,6.216-1.335,9.352-2.742,3.017-1.353,9.05-5.722,12.652-6.015a1.468,1.468,0,0,0,1.389-1.444V17.682A1.45,1.45,0,0,0,56.968,16.2Z" transform="translate(915.998 4428.5)" fill="#bcc0c9"/>
    <path id="Icon_material-verified-user" data-name="Icon material-verified-user" d="M18,1.5,4.5,7.5v9c0,8.325,5.76,16.11,13.5,18,7.74-1.89,13.5-9.675,13.5-18v-9Zm-3,24-6-6,2.115-2.115L15,21.255l9.885-9.885L27,13.5Z" transform="translate(956.484 4453.5)" fill="#bcc0c9"/>
  </g>
</svg>
