<svg xmlns="http://www.w3.org/2000/svg" xmlns:xlink="http://www.w3.org/1999/xlink" width="180.499" height="139.448" viewBox="0 0 180.499 139.448">
  <defs>
    <clipPath id="clip-path">
      <rect id="Rectangle_11001" data-name="Rectangle 11001" width="180.499" height="139.448" fill="none"/>
    </clipPath>
    <clipPath id="clip-path-2">
      <rect id="Rectangle_10999" data-name="Rectangle 10999" width="99.516" height="62.548" fill="none"/>
    </clipPath>
    <clipPath id="clip-path-3">
      <rect id="Rectangle_11000" data-name="Rectangle 11000" width="79.949" height="46.514" fill="none"/>
    </clipPath>
  </defs>
  <g id="Group_40660" data-name="Group 40660" transform="translate(-860.75 -2407.512)">
    <g id="Group_40508" data-name="Group 40508" transform="translate(860.75 2407.512)" opacity="0.48" clip-path="url(#clip-path)">
      <path id="Path_105866" data-name="Path 105866" d="M180.5,26.143v86.827c0,13.923-10.656,23.314-23.532,25.21a144.585,144.585,0,0,1-25.4,1.171c-10.8-.293-25.211-1.351-36.738-2.2-17.806-1.3-53.54.857-71.3,1.024C10.577,138.305,0,126.935,0,112.971V26.143C0,12.22,10.558.114,23.532.934,35.58,1.694,53.3,4.7,71.774,2.861,93.745.668,135.448-1.195,156.967.934,169.908,2.212,180.5,12.22,180.5,26.143" transform="translate(0 0.004)" fill="#9ec8f5"/>
      <g id="Group_40504" data-name="Group 40504" transform="translate(0 69.004)" opacity="0.3">
        <g id="Group_40503" data-name="Group 40503">
          <g id="Group_40502" data-name="Group 40502" clip-path="url(#clip-path-2)">
            <path id="Path_105867" data-name="Path 105867" d="M90.249,959.738s-59.143,2.53-82.674,3.035a24.615,24.615,0,0,1-1.713-1.886A26.316,26.316,0,0,1,0,944.195V900.944s7.147-2.66,9.916,2.251c0,0,10.994-5.383,20.363,3.282S35,926.845,35,926.845s5.552-1.807,10.351,3.656c0,0,13.838-2.415,16.568,11.053,0,0,5.837-5.266,10.31-.7,0,0,13.59-10.859,23.86-1.955s-5.843,20.843-5.843,20.843" transform="translate(0 -900.224)" fill="#ebf3fc"/>
          </g>
        </g>
      </g>
      <g id="Group_40507" data-name="Group 40507" transform="translate(100.55 92.934)" opacity="0.5">
        <g id="Group_40506" data-name="Group 40506">
          <g id="Group_40505" data-name="Group 40505" clip-path="url(#clip-path-3)">
            <path id="Path_105868" data-name="Path 105868" d="M1391.722,1213.622v18.83c0,13.923-10.656,23.314-23.532,25.21a144.6,144.6,0,0,1-25.4,1.171c-9.5-.258-21.16-1.072-31.019-1.781a26.514,26.514,0,0,1,2.9-10.524c3.42-6.05,20.064-1.077,20.39-.979-.246-.116-10.063-4.806-2.93-15.738,7.224-11.071,20.385-6.565,20.385-6.565,2.444-5.686,9.287-2.592,9.287-2.592,9.275-10.576,23.827-8.5,29.918-7.033" transform="translate(-1311.773 -1212.411)" fill="#ebf3fc"/>
          </g>
        </g>
      </g>
      <path id="Path_105869" data-name="Path 105869" d="M131.569,1321.206c-5.891-.16-12.274-.518-18.169-.9-17.85-1.147-18.744-1.479-26.522-1.647-.981,0-8.326-.3-30.431.393-8.692.252-24.04.9-32.915.979C10.536,1320.16,0,1308.749,0,1294.826V1281.4s6.15-4.04,11.282,1.71c0,0,5.377-5.906,13.93-1.544s5.132,15.114,0,18.292c0,0,12.681-1.466,15.505,9.531,0,0,10.542-15.4,29.533-5.132,0,0,4.646-6.109,12.8-.244,0,0,9.4-11.414,23.317-5.585,13.831,5.795,9.756,15.49,9.708,15.6.089-.02,14.616-3.394,15.5,7.173" transform="translate(0 -1181.851)" fill="#ebf3fc"/>
      <path id="Path_105870" data-name="Path 105870" d="M689.622,330.786l.692-3.889.876,3.91,3.441.611-3.177.876-.774,3.116-1.039-3.156-3.058-.732Z" transform="translate(-633.956 -301.839)" fill="#fff"/>
      <path id="Path_105871" data-name="Path 105871" d="M1872.828,969.478l1.487-2.817-.287,3.218,2.493,1.314-2.654-.107-1.359,2.2-.023-2.679-2.169-1.313Z" transform="translate(-1726.951 -892.565)" fill="#fff"/>
      <path id="Path_105872" data-name="Path 105872" d="M282.7,714.92l1.486-2.817-.287,3.218,2.493,1.314-2.655-.107-1.359,2.2-.023-2.679-2.169-1.313Z" transform="translate(-258.709 -657.518)" fill="#fff"/>
      <path id="Path_105873" data-name="Path 105873" d="M1882.432,576.859l-.729-4.431,2.417,3.859,3.919-.647-3.074,2.14.349,3.632-2.307-2.99-3.555.372Z" transform="translate(-1735.39 -528.55)" fill="#fff"/>
      <path id="Path_105874" data-name="Path 105874" d="M365.625,495.692a.408.408,0,0,0,0-.815.408.408,0,0,0,0,.815" transform="translate(-337.236 -456.944)" fill="#fff"/>
      <path id="Path_105875" data-name="Path 105875" d="M630.246,546.7a.407.407,0,0,0,0-.814.407.407,0,0,0,0,.814" transform="translate(-581.573 -504.044)" fill="#fff"/>
      <path id="Path_105876" data-name="Path 105876" d="M1098.912,275.706a.408.408,0,0,0,0-.815.408.408,0,0,0,0,.815" transform="translate(-1014.315 -253.82)" fill="#fff"/>
      <path id="Path_105877" data-name="Path 105877" d="M1573.955,183.248a.407.407,0,0,0,0-.814.407.407,0,0,0,0,.814" transform="translate(-1452.945 -168.449)" fill="#fff"/>
      <path id="Path_105878" data-name="Path 105878" d="M1577.143,1222.6a.408.408,0,0,0,0-.815.408.408,0,0,0,0,.815" transform="translate(-1455.889 -1128.135)" fill="#fff"/>
      <path id="Path_105879" data-name="Path 105879" d="M2030.223,934.475a.408.408,0,0,0,0-.815.408.408,0,0,0,0,.815" transform="translate(-1874.239 -862.093)" fill="#fff"/>
      <path id="Path_105880" data-name="Path 105880" d="M1886.4,779.442a.408.408,0,0,0,0-.815.408.408,0,0,0,0,.815" transform="translate(-1741.439 -718.943)" fill="#fff"/>
    </g>
    <g id="Group_40651" data-name="Group 40651" transform="translate(-5752.807 113.601)">
      <path id="Path_106165" data-name="Path 106165" d="M70.631,66.923A11.322,11.322,0,0,1,59.9,62.912c-4.239-5.4.9-9.9-5.545-13.071s-13.364.316-21.113.157-12.19-6.577-13.6-5.664.631,15.1,23.116,13.72c0,0-9.875,1.385-14.518.895s-2.967,5.311,4.311,6.832a24.62,24.62,0,0,0,13.931-1.592s-5.229,3.36-9.422,4.083,5.655,8.82,14.685.48c0,0-1.388,2.072-2.9,4.061s6.537,3.545,10.073-1.991c0,0-1.45,2.824-1.067,4.228s5.749,2.342,8.069-2.5c0,0-.184,2.949,1.489,3.253s3.92.572,4.887-3.094a5.694,5.694,0,0,0-1.673-5.787" transform="translate(6604.641 2291.893)" fill="#f2f2f2"/>
      <path id="Path_106166" data-name="Path 106166" d="M153.566,49.262a11.324,11.324,0,0,0,8.4-7.792c1.865-6.606-4.6-8.818.153-14.2s12.479-4.793,19.585-7.89,8.77-10.72,10.417-10.412,5.162,14.2-16.157,21.485c0,0,9.66-2.478,13.767-4.7s4.766,3.782-1.386,7.959a24.629,24.629,0,0,1-13.489,3.83s6.114,1.117,10.266.19-1.874,10.308-13.4,6.032c0,0,2.072,1.388,4.225,2.654s-4.7,5.765-10.073,1.991c0,0,2.416,2.06,2.6,3.5s-4.425,4.353-8.413.759c0,0,1.293,2.658-.139,3.575s-3.407,2.02-5.7-1a5.692,5.692,0,0,1-.656-5.989" transform="translate(6585.542 2296.933)" fill="#f2f2f2"/>
      <rect id="Rectangle_11057" data-name="Rectangle 11057" width="69.296" height="44.548" transform="matrix(0.981, -0.194, 0.194, 0.981, 6670.773, 2346.951)" fill="#ffd34d"/>
      <path id="Path_106167" data-name="Path 106167" d="M113.886,76.484,76.657,56.724,114.846,81.34l25.949-37.3Z" transform="translate(6596.448 2291.921)" fill="#dd9f03"/>
      <path id="Path_106168" data-name="Path 106168" d="M99.847,74.215,86,100.92l15.5-24.83Z" transform="translate(6595.114 2287.611)" fill="#dd9f03"/>
      <path id="Path_106169" data-name="Path 106169" d="M133.619,67.967l22.972,19.425L132.8,70.331Z" transform="translate(6588.428 2288.504)" fill="#dd9f03"/>
    </g>
  </g>
</svg>
