<svg id="Group_40549" data-name="Group 40549" xmlns="http://www.w3.org/2000/svg" xmlns:xlink="http://www.w3.org/1999/xlink" width="147.514" height="142.047" viewBox="0 0 147.514 142.047">
  <defs>
    <clipPath id="clip-path">
      <rect id="Rectangle_11016" data-name="Rectangle 11016" width="147.514" height="142.047" fill="none"/>
    </clipPath>
    <clipPath id="clip-path-3">
      <rect id="Rectangle_11003" data-name="Rectangle 11003" width="34.771" height="73.845" fill="none"/>
    </clipPath>
    <clipPath id="clip-path-4">
      <path id="Path_105898" data-name="Path 105898" d="M473.059,665.176c-1.836,2.239-15.419,26.027-15.444,26.037l-.688,1.269a14.99,14.99,0,0,0,7.406-4.212l-1.305-1.366a.751.751,0,0,1,.059-1.094c3.269-2.754,12.8-10.3,12.068-15.379l7.42,4.321-4.454-9.636-3.791-.452a1.426,1.426,0,0,0-1.27.511" transform="translate(-456.927 -664.655)" fill="none"/>
    </clipPath>
    <linearGradient id="linear-gradient" x1="-0.846" y1="2.567" x2="-0.844" y2="2.567" gradientUnits="objectBoundingBox">
      <stop offset="0" stop-color="#fff"/>
      <stop offset="1" stop-color="#efeff4"/>
    </linearGradient>
    <clipPath id="clip-path-6">
      <path id="Path_105900" data-name="Path 105900" d="M537.341,698.355a1.422,1.422,0,0,0-1.141.757,86.461,86.461,0,0,0-7.772,23.684c-.023.015-2.061,4.925-2.084,4.939l-.417,1.382a14.991,14.991,0,0,0,6.4-5.623l-1.555-1.074a.751.751,0,0,1-.163-1.083c2.644-3.358,10.452-12.678,8.706-17.5l8.141,2.73-6.312-8.535Z" transform="translate(-525.928 -698.03)" fill="none"/>
    </clipPath>
    <linearGradient id="linear-gradient-2" x1="-0.907" y1="2.522" x2="-0.905" y2="2.522" xlink:href="#linear-gradient"/>
    <clipPath id="clip-path-8">
      <path id="Path_105905" data-name="Path 105905" d="M740.622,630.564l-2.321.628c-2.321.628-6.375,0-6.375,0l-3.478-.936-3.011,3.276,3.508.258s15.218.207,15.909-.1a9.261,9.261,0,0,0,1.324-.825,1.4,1.4,0,0,0,.512-1.61l-.824-2.328Z" transform="translate(-725.437 -628.931)" fill="none"/>
    </clipPath>
    <linearGradient id="linear-gradient-3" x1="-2.78" y1="6.354" x2="-2.777" y2="6.354" xlink:href="#linear-gradient"/>
    <clipPath id="clip-path-9">
      <path id="Path_105906" data-name="Path 105906" d="M756.149,365.514c-.33.176-1.333,1.409-1.256,1.775l1.807,3.753a.727.727,0,0,0,.095.248c.477.732,3.565.7,3.764-.528l-3.02-5.616c-.175-.056-.309-.107-.411-.151Zm.978-.521.222-.118c.193-.1-.03-.166-.236-.166-.235,0-.447.083.014.284" transform="translate(-754.889 -364.709)" fill="none"/>
    </clipPath>
    <linearGradient id="linear-gradient-4" x1="-6.705" y1="12.258" x2="-6.695" y2="12.258" xlink:href="#linear-gradient"/>
    <clipPath id="clip-path-10">
      <path id="Path_105907" data-name="Path 105907" d="M711.548,338.157a6.644,6.644,0,0,0,1.15,4.31c1.491,2.412,2.977,2.3,3.731,1.443a5.3,5.3,0,0,0,1.247-4.7c-.249-1.456-2.251-2.421-3.908-2.421-1.082,0-2.017.412-2.22,1.368" transform="translate(-711.515 -336.789)" fill="none"/>
    </clipPath>
    <linearGradient id="linear-gradient-5" x1="-6.504" y1="15.218" x2="-6.495" y2="15.218" xlink:href="#linear-gradient"/>
    <clipPath id="clip-path-12">
      <path id="Path_105909" data-name="Path 105909" d="M765.585,344.257c-1.139.337.112,1.96.112,1.96l.91.347c.068-.66.11-2.347-.773-2.347a.88.88,0,0,0-.249.039" transform="translate(-765.107 -344.218)" fill="none"/>
    </clipPath>
    <linearGradient id="linear-gradient-6" x1="-24.082" y1="46.515" x2="-24.05" y2="46.515" xlink:href="#linear-gradient"/>
  </defs>
  <g id="Group_40548" data-name="Group 40548" clip-path="url(#clip-path)">
    <g id="Group_40527" data-name="Group 40527" transform="translate(0 0)">
      <g id="Group_40526" data-name="Group 40526" clip-path="url(#clip-path)">
        <path id="Path_105881" data-name="Path 105881" d="M138.422,123.026c-3.79,3.907-4.585,4.469-7.181,6.2-25.323,16.908-61.963,12.821-70.912,11.156-14.439-2.687-21.53-3.636-32-13.1-23.8-21.5-22.638-66.346-4.455-94.127,2.156-3.294,19.994-28.853,49-32.645.71-.093,34.316-4.531,56.992,14.467a67.644,67.644,0,0,1,13.313,15.106c17.712,27.354,17.768,69.72-4.757,92.938" transform="translate(-9.499 -0.002)" fill="#efeff4"/>
        <path id="Path_105882" data-name="Path 105882" d="M198.248,116.187a.693.693,0,0,1,.993-.868c5.854,3.5,20.511,14.6,22.823,39.108,2.9,30.744,11.529,40.307,20.752,45.274a34.266,34.266,0,0,1-20.483-10.422c-22.427-23.62-19.264-62.165-24.084-73.091" transform="translate(-182.211 -105.93)" fill="#c6c9d3"/>
        <g id="Group_40522" data-name="Group 40522" transform="translate(21.765 18.552)" style="mix-blend-mode: soft-light;isolation: isolate">
          <g id="Group_40521" data-name="Group 40521">
            <g id="Group_40520" data-name="Group 40520" clip-path="url(#clip-path-3)">
              <path id="Path_105883" data-name="Path 105883" d="M270.016,230.4c1.337,3.2,2.61,6.426,3.763,9.694q1.755,4.891,3.207,9.879c.954,3.327,1.845,6.671,2.593,10.048.763,3.374,1.38,6.776,1.988,10.194.626,3.413,1.238,6.855,2.2,10.245a35.192,35.192,0,0,0,4.287,9.679c.486.741.987,1.475,1.527,2.173s1.085,1.393,1.656,2.068a36.485,36.485,0,0,0,12.577,9.552.671.671,0,0,0,.588-1.205h0c-.764-.386-1.523-.78-2.262-1.207-.373-.207-.736-.431-1.1-.647s-.726-.447-1.076-.688a35.343,35.343,0,0,1-4.038-3.112,38.748,38.748,0,0,1-6.628-7.732,33.764,33.764,0,0,1-2.418-4.475,38.319,38.319,0,0,1-1.744-4.8c-.963-3.285-1.6-6.686-2.247-10.094s-1.338-6.829-2.159-10.216q-.609-2.541-1.31-5.06c-.228-.84-.473-1.676-.716-2.512s-.507-1.666-.769-2.5q-1.584-4.978-3.472-9.847c-1.275-3.238-2.635-6.44-4.116-9.585a.18.18,0,0,0-.329.146" transform="translate(-270.002 -230.154)" fill="#fff"/>
            </g>
          </g>
        </g>
        <path id="Path_105884" data-name="Path 105884" d="M75.182,459.769a1.594,1.594,0,0,1-2.221,1.439,48.6,48.6,0,0,1-27.339-31.538c-5.039-17.495-9.434-26.5-11.712-30.453a1,1,0,0,1,1.267-1.414c9.751,4.259,40.511,20.957,40.005,61.967" transform="translate(-31.049 -365.655)" fill="#d7d9e0"/>
        <path id="Path_105885" data-name="Path 105885" d="M218.04,655.054a.426.426,0,0,1-.058.063.442.442,0,0,1-.624-.036c-.184-.206-18.5-20.925-26.609-44.934a.442.442,0,0,1,.837-.283c8.046,23.834,26.248,44.423,26.431,44.628a.442.442,0,0,1,.022.561" transform="translate(-175.352 -560.428)" fill="#efeff4"/>
        <path id="Path_105886" data-name="Path 105886" d="M412.3,170.014H509.49c3.924,0,7.105-2.91,7.105-6.5v-57.9a6.782,6.782,0,0,0-6.71-6.49L408.941,93.978c-4.226-.215-7.72,2.976-7.49,6.843l3.75,63.046a6.864,6.864,0,0,0,7.094,6.147" transform="translate(-369.081 -86.394)" fill="#f3d33f"/>
        <path id="Path_105887" data-name="Path 105887" d="M504.861,135.078,451.732,94.6a7.632,7.632,0,0,1,3.447-.62l100.944,5.147a7.415,7.415,0,0,1,4.475,1.76l-39.763,33.83a13.246,13.246,0,0,1-15.975.362" transform="translate(-415.318 -86.394)" fill="#f7e057"/>
        <path id="Path_105888" data-name="Path 105888" d="M1034.479,392.347a11.748,11.748,0,0,0,7.384-2.571l14.981-12.1a.915.915,0,0,0,.093-1.371,1.131,1.131,0,0,0-1.5-.085l-14.982,12.1a9.653,9.653,0,0,1-11.261.515l-7.763-5.1a1.128,1.128,0,0,0-1.482.222.92.92,0,0,0,.243,1.356l7.763,5.1a11.874,11.874,0,0,0,6.522,1.934" transform="translate(-937.551 -345.669)" fill="#f7eba6"/>
        <path id="Path_105889" data-name="Path 105889" d="M1528.23,303.5a1.116,1.116,0,0,0,.7-.243l2.017-1.629a.915.915,0,0,0,.093-1.371,1.131,1.131,0,0,0-1.5-.085l-2.017,1.629a.915.915,0,0,0-.093,1.371,1.105,1.105,0,0,0,.8.329" transform="translate(-1404.065 -275.751)" fill="#f7eba6"/>
        <path id="Path_105890" data-name="Path 105890" d="M84.835,810.073a1.851,1.851,0,0,0,1.846,1.845h99.851a1.851,1.851,0,0,0,1.846-1.845l.831-57.382a3.216,3.216,0,0,0-3.386-2.847L88.239,747.32a4.653,4.653,0,0,0-4.775,4.759Z" transform="translate(-76.735 -687.078)" fill="#333435"/>
        <path id="Path_105891" data-name="Path 105891" d="M107.229,833.261a1.752,1.752,0,0,0,1.747,1.747H204.7a1.752,1.752,0,0,0,1.747-1.747l.784-52.092a4.3,4.3,0,0,0-4.507-4.195l-93.527-2.509a3.27,3.27,0,0,0-3.355,3.346Z" transform="translate(-97.306 -712.036)" fill="#a8abb2"/>
        <path id="Path_105893" data-name="Path 105893" d="M956.8,828.979h0a.256.256,0,0,1-.252-.26l.237-16.18a3.038,3.038,0,0,0-.867-2.276,4.275,4.275,0,0,0-2.829-.966l-29.893-.8a.256.256,0,0,1-.249-.263.245.245,0,0,1,.263-.249l29.875.8a4.7,4.7,0,0,1,3.188,1.107,3.535,3.535,0,0,1,1.025,2.648l-.238,16.185a.256.256,0,0,1-.256.252" transform="translate(-848.547 -742.853)" fill="#c6c9d3"/>
        <path id="Path_105894" data-name="Path 105894" d="M.456,1550.3H117.265a.457.457,0,0,0,.456-.456v-4.13a.457.457,0,0,0-.456-.456H.456a.457.457,0,0,0-.456.456v4.13a.457.457,0,0,0,.456.456" transform="translate(0 -1420.7)" fill="#333435"/>
      </g>
    </g>
    <g id="Group_40529" data-name="Group 40529" transform="translate(36.832 53.577)">
      <g id="Group_40528" data-name="Group 40528" clip-path="url(#clip-path-4)">
        <rect id="Rectangle_11006" data-name="Rectangle 11006" width="36.881" height="36.069" transform="translate(-11.98 20.989) rotate(-60.283)" fill="url(#linear-gradient)"/>
      </g>
    </g>
    <g id="Group_40531" data-name="Group 40531" transform="translate(0 0)">
      <g id="Group_40530" data-name="Group 40530" clip-path="url(#clip-path)">
        <path id="Path_105899" data-name="Path 105899" d="M454.018,948.464a1.922,1.922,0,0,1,1.115,1.011.849.849,0,0,1-.319.978c-1.372.983-5.9,4.155-7.984,4.777a.236.236,0,0,1-.3-.278,7.524,7.524,0,0,1,1.57-2.872l-.1.2a.29.29,0,0,0,.4.383,22.351,22.351,0,0,0,5.612-4.2" transform="translate(-410.534 -872.01)" fill="#333435"/>
      </g>
    </g>
    <g id="Group_40533" data-name="Group 40533" transform="translate(42.394 56.267)">
      <g id="Group_40532" data-name="Group 40532" clip-path="url(#clip-path-6)">
        <rect id="Rectangle_11008" data-name="Rectangle 11008" width="37.774" height="34.744" transform="translate(-13.982 22.335) rotate(-57.953)" fill="url(#linear-gradient-2)"/>
      </g>
    </g>
    <g id="Group_40535" data-name="Group 40535" transform="translate(0 0)">
      <g id="Group_40534" data-name="Group 40534" clip-path="url(#clip-path)">
        <path id="Path_105901" data-name="Path 105901" d="M525.692,1006.867a1.922,1.922,0,0,1,1.3.764.848.848,0,0,1-.115,1.022c-1.144,1.24-4.933,5.263-6.852,6.294a.236.236,0,0,1-.346-.213,7.52,7.52,0,0,1,.957-3.13l-.057.219a.29.29,0,0,0,.471.294,22.354,22.354,0,0,0,4.645-5.25" transform="translate(-477.785 -925.705)" fill="#333435"/>
        <path id="Path_105902" data-name="Path 105902" d="M659.467,674.01s3.442,5.119,3.724,7.454-.952,3.143-4.554,3.44c-10.719.886-16-2.326-16-2.326-.733-4.676-1.255-5.865-7.379-8.407,0,0,7.746.615,9.305.01s14.908-.171,14.908-.171" transform="translate(-584.047 -619.541)" fill="#5c5e61"/>
        <path id="Path_105903" data-name="Path 105903" d="M765.377,307.52s2.4-2.836,4.945.644c.461.63,2.234.11,2.884,1.429a1.675,1.675,0,0,0,1.807.93c1.86-.343,4.9-.372,6.4,2.542,1.145,2.224.261,3.526-.884,4.268a1.877,1.877,0,0,0-.633,2.515c.488.828.58,1.95-.68,3.3-2.822,3.025-8.41-1.92-8.41-1.92l-4.436-10.483Z" transform="translate(-703.681 -281.73)" fill="#333435"/>
        <path id="Path_105904" data-name="Path 105904" d="M739.054,455.686a78.574,78.574,0,0,1-5.981-6.344,5.363,5.363,0,0,1-.908-4.827,66.642,66.642,0,0,1,2.647-6.667c.224-.75,4.717-.719,4.717-.719s8.843,5.739,12.317,15.461l-3.9,1.215a45.58,45.58,0,0,0-4.59-6.336s3.947,5.215,4.087,7.349Z" transform="translate(-672.942 -401.894)" fill="#74767b"/>
      </g>
    </g>
    <g id="Group_40537" data-name="Group 40537" transform="translate(58.477 50.697)">
      <g id="Group_40536" data-name="Group 40536" clip-path="url(#clip-path-8)">
        <rect id="Rectangle_11010" data-name="Rectangle 11010" width="21.097" height="15.174" transform="translate(-2.202 1.282) rotate(-30.201)" fill="url(#linear-gradient-3)"/>
      </g>
    </g>
    <g id="Group_40539" data-name="Group 40539" transform="translate(60.851 29.399)">
      <g id="Group_40538" data-name="Group 40538" clip-path="url(#clip-path-9)">
        <rect id="Rectangle_11011" data-name="Rectangle 11011" width="8.835" height="9.27" transform="translate(-3.448 2.25) rotate(-33.69)" fill="url(#linear-gradient-4)"/>
      </g>
    </g>
    <g id="Group_40541" data-name="Group 40541" transform="translate(57.354 27.148)">
      <g id="Group_40540" data-name="Group 40540" clip-path="url(#clip-path-10)">
        <rect id="Rectangle_11012" data-name="Rectangle 11012" width="8.636" height="7.532" transform="matrix(0.083, -0.997, 0.997, 0.083, -0.98, 8.034)" fill="url(#linear-gradient-5)"/>
      </g>
    </g>
    <g id="Group_40543" data-name="Group 40543" transform="translate(0 0)">
      <g id="Group_40542" data-name="Group 40542" clip-path="url(#clip-path)">
        <path id="Path_105908" data-name="Path 105908" d="M692.485,313.437s-2.415-3.172-4.269-.407l.031.955s-2.411-.113-2.15-2.335,2.23-3.74,4.958-2.981,4.323,1.624,4.631,3.518-1.239,1.585-1.239,1.585-.591-1.307-1.3-1.4-.456.945-.456.945Z" transform="translate(-630.774 -283.607)" fill="#333435"/>
      </g>
    </g>
    <g id="Group_40545" data-name="Group 40545" transform="translate(61.674 27.747)">
      <g id="Group_40544" data-name="Group 40544" clip-path="url(#clip-path-12)">
        <rect id="Rectangle_11014" data-name="Rectangle 11014" width="2.528" height="2.459" transform="translate(-0.855 2.33) rotate(-85.213)" fill="url(#linear-gradient-6)"/>
      </g>
    </g>
    <g id="Group_40547" data-name="Group 40547" transform="translate(0 0)">
      <g id="Group_40546" data-name="Group 40546" clip-path="url(#clip-path)">
        <path id="Path_105910" data-name="Path 105910" d="M683.689,687.786h-.032l-13.851-.015a.62.62,0,1,1,0-1.24l13.851.015a.62.62,0,0,1,.03,1.239" transform="translate(-615.245 -631.191)" fill="#333435"/>
        <path id="Path_105911" data-name="Path 105911" d="M511.883,546.08h11.535a2.2,2.2,0,0,1,1.988,1.261l5.333,11.308H516.4a1.336,1.336,0,0,1-1.243-.845l-4.135-10.464a.921.921,0,0,1,.857-1.26" transform="translate(-469.773 -502.061)" fill="#333435"/>
        <path id="Path_105912" data-name="Path 105912" d="M602.213,604.828c.25.777.065,1.531-.412,1.685s-1.068-.351-1.318-1.128-.065-1.531.412-1.685,1.068.351,1.318,1.128" transform="translate(-551.976 -555.012)" fill="#74767b"/>
      </g>
    </g>
  </g>
</svg>
