<svg xmlns="http://www.w3.org/2000/svg" width="25" height="25" viewBox="0 0 25 25">
  <g id="Group_37712" data-name="Group 37712" transform="translate(-46 -319)">
    <path id="Icon_awesome-eraser" data-name="Icon awesome-eraser" d="M19.475,11.712a1.877,1.877,0,0,0,0-2.655L13.217,2.8a1.877,1.877,0,0,0-2.655,0L.55,12.812a1.877,1.877,0,0,0,0,2.655L4.3,19.222a1.877,1.877,0,0,0,1.327.55H19.555a.469.469,0,0,0,.469-.469V17.738a.469.469,0,0,0-.469-.469H13.919l5.556-5.556ZM7.639,9.263l5.373,5.373-2.633,2.633H5.891L2.762,14.14,7.639,9.263Z" transform="translate(48 320.75)" fill="#fff"/>
    <rect id="Rectangle_9607" data-name="Rectangle 9607" width="25" height="25" transform="translate(46 319)" fill="none"/>
  </g>
</svg>
