<svg xmlns="http://www.w3.org/2000/svg" width="25" height="25" viewBox="0 0 25 25">
  <g id="Group_37836" data-name="Group 37836" transform="translate(-423 -255)">
    <path id="Icon_ionic-ios-hand" data-name="Icon ionic-ios-hand" d="M21.27,6.742a1.017,1.017,0,0,0-1.025,1v5.315a.432.432,0,0,1-.865,0V5.216a1.025,1.025,0,0,0-2.05,0v6.16a.432.432,0,0,1-.865,0v-7a1.025,1.025,0,0,0-2.05,0v7.841a.432.432,0,0,1-.865,0V6.057a1.025,1.025,0,0,0-2.05,0v10.6l-1.35-1.146c-1.268-1.1-2.342-1.574-3.216-.763-.588.573.335,1.5,1.3,2.584.933,1.044,3.4,4.464,5.5,5.7a3.793,3.793,0,0,0,1.972.554h2.779c2.239,0,3.809-1.841,3.809-4.528V7.742A1.025,1.025,0,0,0,21.27,6.742Z" transform="translate(421.249 253.625)" fill="#fff"/>
    <rect id="Rectangle_9624" data-name="Rectangle 9624" width="25" height="25" transform="translate(423 255)" fill="none"/>
  </g>
</svg>
