<svg xmlns="http://www.w3.org/2000/svg" width="25" height="25" viewBox="0 0 25 25">
  <g id="Group_37697" data-name="Group 37697" transform="translate(-1414 -835)">
    <path id="Icon_material-phone-missed" data-name="Icon material-phone-missed" d="M18.538,21.651a13.3,13.3,0,0,0-18.312,0,.793.793,0,0,0,0,1.11L2.166,24.7a.779.779,0,0,0,.555.227.8.8,0,0,0,.547-.219,8.928,8.928,0,0,1,2.08-1.446.779.779,0,0,0,.438-.7V20.135a11.434,11.434,0,0,1,3.6-.571,11.659,11.659,0,0,1,3.6.563v2.424a.788.788,0,0,0,.438.7A9.217,9.217,0,0,1,15.5,24.7a.768.768,0,0,0,.547.219.779.779,0,0,0,.555-.227l1.939-1.939a.779.779,0,0,0,.227-.555.768.768,0,0,0-.235-.547Z" transform="translate(1417 826)" fill="#fff"/>
    <rect id="Rectangle_9657" data-name="Rectangle 9657" width="25" height="25" transform="translate(1414 835)" fill="none"/>
  </g>
</svg>
