<svg xmlns="http://www.w3.org/2000/svg" width="27.784" height="25" viewBox="0 0 27.784 25">
  <g id="Group_37937" data-name="Group 37937" transform="translate(-1418.44 -840.946)">
    <path id="Icon_material-phone-missed" data-name="Icon material-phone-missed" d="M27.437,23.4a19.691,19.691,0,0,0-27.1,0,1.174,1.174,0,0,0,0,1.643l2.87,2.87a1.154,1.154,0,0,0,.822.336,1.187,1.187,0,0,0,.81-.324,13.214,13.214,0,0,1,3.078-2.141,1.153,1.153,0,0,0,.648-1.041V21.159a16.922,16.922,0,0,1,5.323-.845,17.255,17.255,0,0,1,5.323.833v3.587a1.166,1.166,0,0,0,.648,1.041,13.641,13.641,0,0,1,3.09,2.141,1.136,1.136,0,0,0,.81.324,1.154,1.154,0,0,0,.822-.336l2.87-2.87a1.154,1.154,0,0,0,.336-.822,1.136,1.136,0,0,0-.347-.81Z" transform="translate(1418.44 830.32)" fill="#f56b4e"/>
    <rect id="Rectangle_9657" data-name="Rectangle 9657" width="25" height="25" transform="translate(1418.44 840.946)" fill="none"/>
  </g>
</svg>
