<svg xmlns="http://www.w3.org/2000/svg" width="25" height="25" viewBox="0 0 25 25">
  <g id="Group_37830" data-name="Group 37830" transform="translate(-304 -311)">
    <path id="Icon_awesome-highlighter" data-name="Icon awesome-highlighter" d="M0,16.941l3.527,1.13L4.778,16.82,2.412,14.454ZM4.4,8.47a1.292,1.292,0,0,0-.381,1.345l.461,1.512-1.8,1.8,3.4,3.4,1.8-1.8,1.509.462a1.292,1.292,0,0,0,1.347-.38l1.255-1.47L5.864,7.219,4.4,8.47ZM18.634,2.8,16.4.567A1.937,1.937,0,0,0,13.751.484l-7.026,6,5.992,5.993,6-7.026A1.937,1.937,0,0,0,18.634,2.8Z" transform="translate(307 314)" fill="#fff"/>
    <rect id="Rectangle_9621" data-name="Rectangle 9621" width="25" height="25" transform="translate(304 311)" fill="none"/>
  </g>
</svg>
