<svg xmlns="http://www.w3.org/2000/svg" width="25" height="25" viewBox="0 0 25 25">
  <g id="Group_37857" data-name="Group 37857" transform="translate(-702 -144)">
    <path id="Icon_awesome-redo-alt" data-name="Icon awesome-redo-alt" d="M8.065.562a7.463,7.463,0,0,1,5.159,2.074L14.3,1.558a.725.725,0,0,1,1.237.512V6.119a.725.725,0,0,1-.725.725H10.767a.725.725,0,0,1-.512-1.237l1.261-1.261a5.073,5.073,0,1,0-.124,7.524.362.362,0,0,1,.494.017l1.2,1.2a.363.363,0,0,1-.015.526,7.489,7.489,0,1,1-5-13.047Z" transform="translate(706.833 148.96)" fill="#dfdfdf"/>
    <rect id="Rectangle_9670" data-name="Rectangle 9670" width="25" height="25" transform="translate(702 144)" fill="none"/>
  </g>
</svg>
