<svg xmlns="http://www.w3.org/2000/svg" width="25" height="25" viewBox="0 0 25 25">
  <g id="Group_37696" data-name="Group 37696" transform="translate(-1367 -835)">
    <rect id="Rectangle_9656" data-name="Rectangle 9656" width="25" height="25" transform="translate(1367 835)" fill="none"/>
    <path id="Icon_ionic-ios-settings" data-name="Icon ionic-ios-settings" d="M18.781,12.283a2,2,0,0,1,1.285-1.869A7.939,7.939,0,0,0,19.1,8.1a2.03,2.03,0,0,1-.815.174,2,2,0,0,1-1.828-2.813A7.915,7.915,0,0,0,14.151,4.5a2,2,0,0,1-3.737,0A7.94,7.94,0,0,0,8.1,5.461,2,2,0,0,1,6.271,8.274,1.964,1.964,0,0,1,5.457,8.1,8.115,8.115,0,0,0,4.5,10.418a2,2,0,0,1,0,3.737,7.939,7.939,0,0,0,.961,2.315A2,2,0,0,1,8.1,19.109a7.986,7.986,0,0,0,2.315.961,2,2,0,0,1,3.729,0,7.939,7.939,0,0,0,2.315-.961A2,2,0,0,1,19.1,16.47a7.986,7.986,0,0,0,.961-2.315A2.013,2.013,0,0,1,18.781,12.283Zm-6.461,3.239a3.243,3.243,0,1,1,3.243-3.243A3.242,3.242,0,0,1,12.319,15.522Z" transform="translate(1367.5 835.5)" fill="#586460"/>
  </g>
</svg>
