<svg xmlns="http://www.w3.org/2000/svg" width="25" height="25" viewBox="0 0 25 25">
  <g id="Group_37666" data-name="Group 37666" transform="translate(-1421 -144)">
    <path id="Icon_material-video-library" data-name="Icon material-video-library" d="M4.857,6.715H3v13a1.863,1.863,0,0,0,1.857,1.857h13V19.716h-13ZM19.716,3H8.572A1.863,1.863,0,0,0,6.715,4.857V16a1.863,1.863,0,0,0,1.857,1.857H19.716A1.863,1.863,0,0,0,21.573,16V4.857A1.863,1.863,0,0,0,19.716,3ZM12.287,14.608V6.25l5.572,4.179Z" transform="translate(1421 144)" fill="#707070"/>
    <rect id="Rectangle_9643" data-name="Rectangle 9643" width="25" height="25" transform="translate(1421 144)" fill="none"/>
  </g>
</svg>
