<svg xmlns="http://www.w3.org/2000/svg" width="25" height="25" viewBox="0 0 25 25">
  <g id="Group_37846" data-name="Group 37846" transform="translate(-164 -398)">
    <g id="Polygon_1" data-name="Polygon 1" transform="translate(165 401)" fill="none" stroke-linecap="square" stroke-linejoin="bevel">
      <path d="M11.072.707a.5.5,0,0,1,.856,0L22.541,18.241a.5.5,0,0,1-.428.759H.887a.5.5,0,0,1-.428-.759Z" stroke="none"/>
      <path d="M 11.50000286102295 3.476225852966309 L 3.193500518798828 17.19999694824219 L 19.80649566650391 17.19999694824219 L 11.50000286102295 3.476225852966309 M 11.50000095367432 0.4656219482421875 C 11.66523361206055 0.4656219482421875 11.83046627044678 0.5459861755371094 11.92775058746338 0.7067165374755859 L 22.54067039489746 18.24109649658203 C 22.74235153198242 18.57432556152344 22.50242042541504 18.99999618530273 22.11291122436523 18.99999618530273 L 0.8870811462402344 18.99999618530273 C 0.4975700378417969 18.99999618530273 0.2576408386230469 18.57432556152344 0.4593315124511719 18.24109649658203 L 11.07225131988525 0.7067165374755859 C 11.16953563690186 0.5459861755371094 11.33476829528809 0.4656219482421875 11.50000095367432 0.4656219482421875 Z" stroke="none" fill="#fff"/>
    </g>
    <rect id="Rectangle_9616" data-name="Rectangle 9616" width="25" height="25" transform="translate(164 398)" fill="none"/>
  </g>
</svg>
