<svg xmlns="http://www.w3.org/2000/svg" width="25" height="25" viewBox="0 0 25 25">
  <g id="Group_37858" data-name="Group 37858" transform="translate(-664 -144)">
    <path id="Icon_awesome-undo-alt" data-name="Icon awesome-undo-alt" d="M8.037.562A7.463,7.463,0,0,0,2.878,2.636L1.8,1.558A.725.725,0,0,0,.563,2.07V6.119a.725.725,0,0,0,.725.725H5.335a.725.725,0,0,0,.512-1.237L4.587,4.345a5.073,5.073,0,1,1,.124,7.524.362.362,0,0,0-.494.017l-1.2,1.2a.363.363,0,0,0,.015.526,7.489,7.489,0,1,0,5-13.047Z" transform="translate(668.846 148.96)" fill="#dfdfdf"/>
    <rect id="Rectangle_9671" data-name="Rectangle 9671" width="25" height="25" transform="translate(664 144)" fill="none"/>
  </g>
</svg>
