<svg xmlns="http://www.w3.org/2000/svg" width="30" height="30" viewBox="0 0 30 30">
  <g id="Group_40368" data-name="Group 40368" transform="translate(0 0)">
    <rect id="Rectangle_10902" data-name="Rectangle 10902" width="30" height="30" transform="translate(0 0)" fill="none"/>
    <g id="Group_40236" data-name="Group 40236" transform="translate(1.489 4.569)">
      <g id="Group_40237" data-name="Group 40237">
        <g id="Component_36_15" data-name="Component 36 – 15">
          <path id="Path_104173" data-name="Path 104173" d="M254.985,728.273H248.23V711.3h21.6v4.506" transform="translate(-248.23 -711.303)" fill="none" stroke="#FFF" stroke-linecap="round" stroke-linejoin="round" stroke-width="2"/>
        </g>
        <path id="Icon_material-group" data-name="Icon material-group" d="M13.838,12.435a2.468,2.468,0,1,0-2.468-2.468A2.457,2.457,0,0,0,13.838,12.435Zm-6.58,0A2.468,2.468,0,1,0,4.79,9.968,2.457,2.457,0,0,0,7.258,12.435Zm0,1.645c-1.917,0-5.758.962-5.758,2.879v2.056H13.016V16.959C13.016,15.043,9.174,14.08,7.258,14.08Zm6.58,0c-.239,0-.51.016-.8.041a3.471,3.471,0,0,1,1.62,2.838v2.056H19.6V16.959C19.6,15.043,15.755,14.08,13.838,14.08Z" transform="translate(8.907 0.251)" fill="#FFF"/>
        <path id="Icon_awesome-signature" data-name="Icon awesome-signature" d="M10.78,6.667A10.338,10.338,0,0,0,7.959,7.877a3.635,3.635,0,0,1-1.316.413c-.391,0-.45-.274-.368-.879.019-.135.2-1.341-.739-1.289-.434.025-1.112.42-2.932,2.134L3.322,6.5A1.484,1.484,0,0,0,1.079,4.76l-.95.625a.269.269,0,0,0-.085.374l.3.457A.279.279,0,0,0,.724,6.3l1-.659a.383.383,0,0,1,.566.459l-1.7,4.159A.542.542,0,0,0,1.108,11a.553.553,0,0,0,.391-.159c.73-.715,2.676-2.552,3.653-3.316a1.73,1.73,0,0,0,.356,1.419,1.476,1.476,0,0,0,1.133.428,4.444,4.444,0,0,0,1.769-.508A10.379,10.379,0,0,1,10.8,7.752a.275.275,0,0,0,.263-.268V6.941a.272.272,0,0,0-.287-.274Z" transform="translate(3.124 -0.26)" fill="#FFF" />
      </g>
    </g>
  </g>
</svg>
