<svg xmlns="http://www.w3.org/2000/svg" width="48" height="48" viewBox="0 0 48 48">
  <g id="Group_9910" data-name="Group 9910" transform="translate(-16530 411)">
    <path id="add_photo_alternate_24dp_718EEE_FILL0_wght400_GRAD0_opsz24" d="M140.233-819.767ZM124.5-799.534a4.329,4.329,0,0,1-3.175-1.321A4.33,4.33,0,0,1,120-804.031V-835.5a4.33,4.33,0,0,1,1.321-3.176A4.33,4.33,0,0,1,124.5-840h17.985v4.5H124.5v31.473h31.473v-17.985h4.5v17.985a4.329,4.329,0,0,1-1.321,3.175,4.33,4.33,0,0,1-3.175,1.321Zm2.248-8.992h26.977l-8.43-11.241-6.744,8.992-5.058-6.744Zm24.729-17.985v-4.5h-4.5v-4.5h4.5V-840h4.5v4.5h4.5v4.5h-4.5v4.5Z" transform="translate(16414 433.035)" fill="#818181"/>
    <rect id="Rectangle_9395" data-name="Rectangle 9395" width="48" height="48" transform="translate(16530 -411)" fill="none"/>
  </g>
</svg>
