<svg xmlns="http://www.w3.org/2000/svg" xmlns:xlink="http://www.w3.org/1999/xlink" width="88.114" height="90.773" viewBox="0 0 88.114 90.773">
  <defs>
    <clipPath id="clip-path">
      <rect id="Rectangle_11783" data-name="Rectangle 11783" width="88.114" height="90.773" fill="none"/>
    </clipPath>
    <clipPath id="clip-path-3">
      <rect id="Rectangle_11791" data-name="Rectangle 11791" width="27.113" height="31.543" fill="none"/>
    </clipPath>
    <clipPath id="clip-path-5">
      <rect id="Rectangle_11794" data-name="Rectangle 11794" width="27.113" height="13.897" fill="none"/>
    </clipPath>
    <clipPath id="clip-path-7">
      <rect id="Rectangle_11796" data-name="Rectangle 11796" width="7.144" height="4.778" fill="none"/>
    </clipPath>
    <clipPath id="clip-path-8">
      <rect id="Rectangle_11797" data-name="Rectangle 11797" width="9.855" height="14.209" fill="none"/>
    </clipPath>
    <clipPath id="clip-path-9">
      <rect id="Rectangle_11798" data-name="Rectangle 11798" width="3.461" height="4.474" fill="none"/>
    </clipPath>
  </defs>
  <g id="Group_41758" data-name="Group 41758" transform="translate(-9347.056 -5276)">
    <g id="Group_41702" data-name="Group 41702" transform="translate(9347.056 5276)">
      <g id="Group_41701" data-name="Group 41701" clip-path="url(#clip-path)">
        <path id="Path_106186" data-name="Path 106186" d="M91.657,373.609c0,3.072-19.506,5.562-43.567,5.562s-43.567-2.49-43.567-5.562,19.506-5.562,43.567-5.562,43.567,2.49,43.567,5.562" transform="translate(-3.543 -288.397)" fill="#eaebef"/>
      </g>
    </g>
    <path id="Path_106187" data-name="Path 106187" d="M80.622,78.216V2.79A2.79,2.79,0,0,1,83.412,0h48.616a2.79,2.79,0,0,1,2.79,2.79V78.216a2.79,2.79,0,0,1-2.79,2.79H83.412a2.79,2.79,0,0,1-2.79-2.79" transform="translate(9283.882 5276)" fill="#263238"/>
    <rect id="Rectangle_11784" data-name="Rectangle 11784" width="49.561" height="69.716" transform="translate(9366.853 5281.669)" fill="#fff"/>
    <path id="Path_106188" data-name="Path 106188" d="M178.586,13.828v-.3a.271.271,0,0,1,.271-.271H190.11a.271.271,0,0,1,.271.271v.3a.271.271,0,0,1-.271.271H178.857a.271.271,0,0,1-.271-.271" transform="translate(9207.118 5265.613)" fill="#37474f"/>
    <path id="Path_106189" data-name="Path 106189" d="M200.313,357a1.525,1.525,0,1,1,1.525-1.526A1.526,1.526,0,0,1,200.313,357" transform="translate(9191.288 4998.649)" fill="#37474f"/>
    <rect id="Rectangle_11785" data-name="Rectangle 11785" width="34.287" height="0.483" transform="translate(9374.489 5338.347)" fill="#ebebeb"/>
    <rect id="Rectangle_11786" data-name="Rectangle 11786" width="34.287" height="0.483" transform="translate(9374.489 5339.843)" fill="#ebebeb"/>
    <rect id="Rectangle_11788" data-name="Rectangle 11788" width="34.287" height="0.483" transform="translate(9374.489 5291.244)" fill="#ebebeb"/>
    <rect id="Rectangle_11789" data-name="Rectangle 11789" width="34.287" height="0.483" transform="translate(9374.489 5292.741)" fill="#ebebeb"/>
    <rect id="Rectangle_11790" data-name="Rectangle 11790" width="88.114" height="90.773" transform="translate(9347.056 5276)" fill="none"/>
    <path id="Path_106200" data-name="Path 106200" d="M170.309,158.343H143.2V135.408L156.75,126.8l13.559,8.608Z" transform="translate(9234.85 5176.641)" fill="#ffc727"/>
    <g id="Group_41709" data-name="Group 41709" transform="translate(9347.056 5276)">
      <g id="Group_41708" data-name="Group 41708" clip-path="url(#clip-path)">
        <g id="Group_41707" data-name="Group 41707" transform="translate(30.99 27.441)" opacity="0.2">
          <g id="Group_41706" data-name="Group 41706">
            <g id="Group_41705" data-name="Group 41705" clip-path="url(#clip-path-3)">
              <path id="Path_106201" data-name="Path 106201" d="M170.309,158.343H143.2V135.408L156.75,126.8l13.559,8.608Z" transform="translate(-143.196 -126.8)"/>
            </g>
          </g>
        </g>
      </g>
    </g>
    <rect id="Rectangle_11793" data-name="Rectangle 11793" width="24.055" height="30.879" transform="translate(9379.574 5302.35)" fill="#ebebeb"/>
    <path id="Path_106202" data-name="Path 106202" d="M179.128,154.174,173.62,148.6l1.85-1.828,3.217,3.256,6.684-10.479,2.193,1.4Z" transform="translate(9211.009 5166.651)" fill="#ffc727"/>
    <g id="Group_41714" data-name="Group 41714" transform="translate(9347.056 5276)">
      <g id="Group_41713" data-name="Group 41713" clip-path="url(#clip-path)">
        <path id="Path_106203" data-name="Path 106203" d="M170.308,193.1V210.3H143.2V193.1c1.165.66,2.309,1.352,3.461,2.028s2.3,1.376,3.437,2.077q1.906,1.16,3.807,2.353l.041-.024c-.012.008-.02.02-.032.028q1.423.886,2.846,1.779c.945-.594,1.893-1.193,2.842-1.779-.012-.008-.02-.02-.032-.028a.2.2,0,0,0,.041.02q1.9-1.185,3.807-2.353,1.71-1.044,3.433-2.073c1.156-.676,2.3-1.368,3.465-2.028" transform="translate(-112.206 -151.312)" fill="#ffc727"/>
        <g id="Group_41712" data-name="Group 41712" transform="translate(30.99 41.79)" opacity="0.2">
          <g id="Group_41711" data-name="Group 41711">
            <g id="Group_41710" data-name="Group 41710" clip-path="url(#clip-path-5)">
              <path id="Path_106204" data-name="Path 106204" d="M170.308,193.1c-1.1.77-2.211,1.506-3.314,2.264q-1.667,1.111-3.347,2.215-1.753,1.148-3.514,2.276l-.106.073q-1.558,1-3.123,1.991l-.155.094-.151-.094q-1.563-1-3.119-2c-.037-.02-.073-.045-.11-.069q-1.765-1.13-3.518-2.28c-1.116-.729-2.231-1.47-3.343-2.211-1.1-.757-2.219-1.494-3.314-2.264,1.165.66,2.309,1.352,3.461,2.028s2.3,1.376,3.437,2.077q1.906,1.16,3.807,2.353s0,0,.008,0q1.423.886,2.846,1.779c.945-.594,1.893-1.193,2.842-1.779,0-.008,0-.008.008-.008q1.9-1.185,3.807-2.353,1.71-1.044,3.433-2.073c1.156-.676,2.3-1.368,3.465-2.028" transform="translate(-143.195 -193.102)"/>
              <path id="Path_106205" data-name="Path 106205" d="M154.176,222.829c-.012.008-.02.02-.032.029-.143.122-.285.244-.428.362-.68.574-1.376,1.124-2.085,1.657-.863.66-1.747,1.291-2.634,1.918s-1.787,1.226-2.7,1.812-1.841,1.16-2.8,1.686c.823-.721,1.678-1.393,2.541-2.048s1.751-1.291,2.634-1.918,1.792-1.229,2.708-1.816c.729-.468,1.47-.928,2.227-1.36.175-.1.35-.2.529-.3l.041-.024" transform="translate(-143.431 -216.396)"/>
              <path id="Path_106206" data-name="Path 106206" d="M229.509,230.291c-.957-.525-1.885-1.1-2.8-1.686s-1.812-1.2-2.708-1.812-1.771-1.258-2.634-1.918c-.7-.533-1.4-1.079-2.076-1.653-.147-.122-.289-.244-.432-.366-.012-.008-.02-.02-.032-.029a.189.189,0,0,0,.041.02c.179.1.354.2.529.3.757.432,1.494.892,2.227,1.36.916.586,1.812,1.2,2.7,1.816s1.771,1.258,2.635,1.918,1.722,1.327,2.545,2.048" transform="translate(-202.461 -216.395)"/>
            </g>
          </g>
        </g>
        <path id="Path_106207" data-name="Path 106207" d="M151.826,101.985a14.44,14.44,0,0,1,0-3.582,14.429,14.429,0,0,1,0,3.582" transform="translate(-118.88 -77.107)" fill="#263238"/>
        <path id="Path_106208" data-name="Path 106208" d="M136.022,108.421a14.433,14.433,0,0,1-2.535-2.53,14.432,14.432,0,0,1,2.535,2.53" transform="translate(-104.599 -82.975)" fill="#263238"/>
        <path id="Path_106209" data-name="Path 106209" d="M129.117,124.016a14.441,14.441,0,0,1-3.582,0,14.428,14.428,0,0,1,3.582,0" transform="translate(-98.368 -97.091)" fill="#263238"/>
        <path id="Path_106210" data-name="Path 106210" d="M135.553,131.446a14.434,14.434,0,0,1-2.53,2.535,14.433,14.433,0,0,1,2.53-2.535" transform="translate(-104.235 -102.999)" fill="#263238"/>
        <path id="Path_106211" data-name="Path 106211" d="M258.294,101.985a14.429,14.429,0,0,1,0-3.582,14.441,14.441,0,0,1,0,3.582" transform="translate(-202.309 -77.107)" fill="#263238"/>
        <path id="Path_106212" data-name="Path 106212" d="M265.724,108.421a14.432,14.432,0,0,1,2.535-2.53,14.433,14.433,0,0,1-2.535,2.53" transform="translate(-208.218 -82.975)" fill="#263238"/>
        <path id="Path_106213" data-name="Path 106213" d="M268.839,124.016a14.428,14.428,0,0,1,3.582,0,14.441,14.441,0,0,1-3.582,0" transform="translate(-210.659 -97.091)" fill="#263238"/>
        <path id="Path_106214" data-name="Path 106214" d="M266.212,131.446a14.433,14.433,0,0,1,2.53,2.535,14.435,14.435,0,0,1-2.53-2.535" transform="translate(-208.6 -102.999)" fill="#263238"/>
      </g>
    </g>
    <g id="Group_41725" data-name="Group 41725" transform="translate(9347.056 5276)">
      <g id="Group_41724" data-name="Group 41724" clip-path="url(#clip-path)">
        <path id="Path_106215" data-name="Path 106215" d="M72.174,355.614c-.467.151-13.782-.022-14.285-.351a17.9,17.9,0,0,1-.32-4.412c0-.024,0-.049,0-.074-.009-.484-.015-.982-.016-1.488,0-.07,0-.139,0-.208l.646-6.908,8.907.089-.879,6.843-.01.271-.054,1.416-.005.146s5.067,2.346,5.582,2.766.9,1.761.437,1.91" transform="translate(-45.095 -268.122)" fill="#f7a9a0"/>
        <path id="Path_106216" data-name="Path 106216" d="M72.174,380.625c-.467.151-13.782-.022-14.285-.351a17.9,17.9,0,0,1-.32-4.412c0-.024,0-.049,0-.074-.009-.484-.015-.983-.016-1.488,0-.069,0-.139,0-.208l8.674.024-.01.271L66.16,375.8l-.005.146s5.067,2.346,5.582,2.766.9,1.761.437,1.91" transform="translate(-45.095 -293.134)" fill="#ebebeb"/>
        <path id="Path_106217" data-name="Path 106217" d="M71.884,387.207c-.471.153-13.908.024-14.417-.3a18.2,18.2,0,0,1-.337-4.451l8.663.058s5.122,2.35,5.642,2.771.92,1.774.449,1.927" transform="translate(-44.766 -299.684)" fill="#00a134"/>
        <path id="Path_106218" data-name="Path 106218" d="M75.243,401.5c-2.252-.077-11.342-.174-13.573-.079-.018,0-.018.013,0,.014,2.23.125,11.321.149,13.573.1.047,0,.048-.036,0-.037" transform="translate(-48.312 -314.521)" fill="#263238"/>
        <path id="Path_106219" data-name="Path 106219" d="M112.5,393.243a1.81,1.81,0,0,0-1.353.537,1.753,1.753,0,0,0-.515,1.2c0,.013.025.014.027,0a2.091,2.091,0,0,1,1.84-1.707.014.014,0,0,0,0-.028" transform="translate(-86.688 -308.138)" fill="#263238"/>
        <path id="Path_106220" data-name="Path 106220" d="M92.052,383.788a3.139,3.139,0,0,0-2.517,1.019c-.022.029.019.059.045.046a12.472,12.472,0,0,1,2.486-.954.057.057,0,0,0-.015-.111" transform="translate(-70.154 -300.731)" fill="#263238"/>
        <path id="Path_106221" data-name="Path 106221" d="M95.256,385.073a3.139,3.139,0,0,0-2.517,1.019c-.022.029.019.059.046.046a12.469,12.469,0,0,1,2.486-.954.057.057,0,0,0-.015-.111" transform="translate(-72.664 -301.738)" fill="#263238"/>
        <path id="Path_106222" data-name="Path 106222" d="M98.46,386.357a3.139,3.139,0,0,0-2.517,1.019c-.022.028.019.059.045.046a12.476,12.476,0,0,1,2.486-.954.057.057,0,0,0-.014-.111" transform="translate(-75.175 -302.744)" fill="#263238"/>
        <path id="Path_106223" data-name="Path 106223" d="M101.664,387.642a3.139,3.139,0,0,0-2.517,1.019c-.022.028.019.059.045.046a12.466,12.466,0,0,1,2.486-.954.057.057,0,0,0-.014-.111" transform="translate(-77.685 -303.751)" fill="#263238"/>
        <path id="Path_106224" data-name="Path 106224" d="M61.7,391.707a.787.787,0,0,0-.011,1.572.787.787,0,0,0,.011-1.572" transform="translate(-47.746 -306.936)" fill="#fff"/>
        <path id="Path_106225" data-name="Path 106225" d="M97.984,372.131c-.453-.383-1.031-.018-1.316.372a4.732,4.732,0,0,0-.841,2.3.024.024,0,0,0,.028.026.11.11,0,0,0,.161.074,7.876,7.876,0,0,0,1.884-1.449c.288-.364.513-.959.085-1.321m-1.124,1.906c-.313.223-.634.429-.938.664a14.15,14.15,0,0,1,.521-1.331,5.1,5.1,0,0,1,.335-.605c.2-.3,1.091-1.041,1.171-.059.044.541-.716,1.065-1.089,1.331" transform="translate(-75.088 -291.47)" fill="#263238"/>
        <path id="Path_106226" data-name="Path 106226" d="M81.989,380.847a7.871,7.871,0,0,0,2.368-.2.11.11,0,0,0,.069-.164.024.024,0,0,0,0-.038,4.732,4.732,0,0,0-2.17-1.13c-.474-.1-1.146.025-1.223.613-.072.556.5.844.953.918m-.539-.518c-.6-.779.559-.83.9-.746a5.07,5.07,0,0,1,.656.221,14.192,14.192,0,0,1,1.282.632c-.383.032-.759.1-1.141.142-.454.055-1.369.18-1.7-.249" transform="translate(-63.494 -297.203)" fill="#263238"/>
        <g id="Group_41717" data-name="Group 41717" transform="translate(12.363 82.767)" opacity="0.1">
          <g id="Group_41716" data-name="Group 41716">
            <g id="Group_41715" data-name="Group 41715" clip-path="url(#clip-path-7)">
              <path id="Path_106227" data-name="Path 106227" d="M64.272,387.225a55.285,55.285,0,0,1-6.806-.327,18.12,18.12,0,0,1-.338-4.452l1.234.009c1.363,1.108,4.248,3.43,5.91,4.77" transform="translate(-57.128 -382.447)"/>
            </g>
          </g>
        </g>
        <path id="Path_106228" data-name="Path 106228" d="M49.6,211.942h-9.59s1.931-22.4,1.856-22.789c-.1-.5-.662-2.768-1.416-5.73-.236-.927-.491-1.921-.756-2.951-.715-2.787-1.5-5.832-2.19-8.482-1.031-3.97-1.835-7.054-1.835-7.054h8.127s.947,3,2.141,6.909c1.945,6.349,4.544,15.087,4.8,17.212.416,3.43-1.139,22.884-1.139,22.884" transform="translate(-27.948 -129.242)" fill="#37474f"/>
        <path id="Path_106229" data-name="Path 106229" d="M66.875,374.326c-1.464-.031-1.044-.042-2.509-.056-.717-.007-5.427-.048-6.1.063a.016.016,0,0,0,0,.03c.67.111,5.38.07,6.1.063,1.465-.014,1.044-.026,2.509-.057a.021.021,0,0,0,0-.043" transform="translate(-45.651 -293.262)" fill="#263238"/>
        <path id="Path_106230" data-name="Path 106230" d="M49.675,195.155c-.314-1.386-.784-2.745-1.193-4.105q-1.247-4.147-2.508-8.29-.63-2.072-1.265-4.142-.322-1.045-.647-2.089c-.213-.681-.456-1.355-.649-2.042-.078-.279-.121-.126-.021.229.2.715.4,1.431.61,2.145q.619,2.12,1.247,4.237,1.247,4.214,2.516,8.422.633,2.11,1.269,4.22a17.246,17.246,0,0,1,.518,2.041,9.407,9.407,0,0,1,.085,2.184c-.092,1.467-.262,2.932-.4,4.4s-.271,2.934-.407,4.4q-.405,4.379-.8,8.758c-.033.37-.066.74-.094,1.111-.01.124.178.114.191,0,.316-2.886.558-5.782.829-8.673s.54-5.753.808-8.63c.068-.722.144-1.446.145-2.172a8.971,8.971,0,0,0-.234-1.994" transform="translate(-33.955 -136.612)" fill="#263238"/>
        <path id="Path_106231" data-name="Path 106231" d="M42.872,164.937c-.564,4.365-1.64,12.549-2.424,18.487-1.833-7.194-4.781-18.487-4.781-18.487Z" transform="translate(-27.949 -129.242)" fill="#263238"/>
        <path id="Path_106232" data-name="Path 106232" d="M25.137,356.4c-.467.152-13.782.028-14.286-.3a17.9,17.9,0,0,1-.336-4.411v-.074c-.011-.484-.019-.983-.022-1.488,0-.07,0-.139,0-.208-.031-3.39.213-6.908.213-6.908l8.7.057-.243,6.844-.009.271-.048,1.417,0,.146s5.076,2.327,5.592,2.745.911,1.758.444,1.908" transform="translate(-8.217 -268.78)" fill="#f7a9a0"/>
        <path id="Path_106233" data-name="Path 106233" d="M25.146,381.385c-.467.152-13.782.028-14.286-.3a17.9,17.9,0,0,1-.336-4.411V376.6c-.011-.484-.019-.983-.022-1.488,0-.07,0-.139,0-.208l8.674-.007-.009.271-.048,1.417,0,.146s5.076,2.327,5.592,2.745.911,1.758.444,1.908" transform="translate(-8.227 -293.765)" fill="#ebebeb"/>
        <path id="Path_106234" data-name="Path 106234" d="M25,387.525c-.471.153-13.908.024-14.417-.3a18.184,18.184,0,0,1-.337-4.451l8.663.058s5.122,2.35,5.642,2.771.92,1.775.449,1.927" transform="translate(-8.03 -299.933)" fill="#00a134"/>
        <path id="Path_106235" data-name="Path 106235" d="M28.362,401.822c-2.252-.077-11.342-.174-13.573-.079-.018,0-.018.013,0,.014,2.23.125,11.321.149,13.573.1.047,0,.048-.035,0-.037" transform="translate(-11.577 -314.77)" fill="#263238"/>
        <path id="Path_106236" data-name="Path 106236" d="M65.615,393.561a1.81,1.81,0,0,0-1.353.537,1.753,1.753,0,0,0-.515,1.2c0,.013.025.014.027,0a2.091,2.091,0,0,1,1.84-1.707.014.014,0,0,0,0-.028" transform="translate(-49.951 -308.387)" fill="#263238"/>
        <path id="Path_106237" data-name="Path 106237" d="M45.17,384.106a3.139,3.139,0,0,0-2.517,1.019c-.022.029.019.059.045.046a12.462,12.462,0,0,1,2.486-.953.057.057,0,0,0-.014-.111" transform="translate(-33.417 -300.98)" fill="#263238"/>
        <path id="Path_106238" data-name="Path 106238" d="M48.374,385.391a3.139,3.139,0,0,0-2.517,1.019c-.022.028.019.059.046.045a12.467,12.467,0,0,1,2.486-.954.057.057,0,0,0-.014-.111" transform="translate(-35.928 -301.987)" fill="#263238"/>
        <path id="Path_106239" data-name="Path 106239" d="M51.578,386.675a3.138,3.138,0,0,0-2.517,1.019c-.022.028.019.059.045.045a12.467,12.467,0,0,1,2.486-.953.057.057,0,0,0-.015-.111" transform="translate(-38.439 -302.993)" fill="#263238"/>
        <path id="Path_106240" data-name="Path 106240" d="M54.782,387.96a3.139,3.139,0,0,0-2.517,1.019c-.022.028.019.059.045.046a12.476,12.476,0,0,1,2.486-.954.057.057,0,0,0-.014-.111" transform="translate(-40.949 -304)" fill="#263238"/>
        <path id="Path_106241" data-name="Path 106241" d="M14.815,392.025A.787.787,0,0,0,14.8,393.6a.787.787,0,0,0,.011-1.572" transform="translate(-11.01 -307.186)" fill="#fff"/>
        <path id="Path_106242" data-name="Path 106242" d="M51.1,372.45c-.453-.383-1.031-.018-1.316.372a4.732,4.732,0,0,0-.841,2.3.024.024,0,0,0,.028.026.11.11,0,0,0,.161.074,7.871,7.871,0,0,0,1.884-1.449c.288-.364.513-.959.085-1.321m-1.124,1.906c-.312.223-.634.429-.938.664a14.173,14.173,0,0,1,.521-1.331,5.1,5.1,0,0,1,.335-.605c.2-.3,1.091-1.041,1.171-.059.044.541-.716,1.065-1.089,1.331" transform="translate(-38.352 -291.72)" fill="#263238"/>
        <path id="Path_106243" data-name="Path 106243" d="M35.107,381.164a7.871,7.871,0,0,0,2.368-.2.11.11,0,0,0,.069-.164.024.024,0,0,0,0-.038,4.732,4.732,0,0,0-2.17-1.13c-.474-.1-1.146.025-1.223.613-.072.556.5.844.953.918m-.539-.518c-.6-.779.559-.83.9-.746a5.056,5.056,0,0,1,.655.221,14.14,14.14,0,0,1,1.282.632c-.383.032-.759.1-1.14.142-.454.055-1.369.18-1.7-.249" transform="translate(-26.758 -297.452)" fill="#263238"/>
        <path id="Path_106244" data-name="Path 106244" d="M21.14,164.937a35.983,35.983,0,0,1-1.078,6.968c-.071.255-.149.505-.232.745a14.458,14.458,0,0,0-2.342,1.2s-.094,3.129-.187,6.618c-.1,3.9-.212,8.251-.189,9.174.082,3.453-.432,22.436-.432,22.436l-9.588.039s1.733-21.2,1.721-22.465c-.018-2.033.464-11.018.837-17.57.228-4.037.416-7.149.416-7.149Z" transform="translate(-5.557 -129.242)" fill="#37474f"/>
        <path id="Path_106245" data-name="Path 106245" d="M18.679,374.726c-1.465-.024-1.044-.038-2.509-.046-.717,0-5.427-.025-6.1.089a.016.016,0,0,0,0,.03c.67.108,5.38.047,6.1.037,1.465-.02,1.044-.031,2.508-.067a.021.021,0,0,0,0-.043" transform="translate(-7.885 -293.591)" fill="#263238"/>
        <path id="Path_106246" data-name="Path 106246" d="M15.776,171.234c-.176,5.349-.364,10.7-.6,16.045-.24,5.365-.564,10.728-1.012,16.08-.251,2.99-.487,7.2-.81,10.179,0,.02.029.027.031.007.7-5.306,1.087-11.867,1.43-17.207s.576-10.687.758-16.033c.1-3.025.182-6.05.272-9.075,0-.043-.065-.039-.067,0" transform="translate(-10.461 -134.15)" fill="#263238"/>
        <path id="Path_106247" data-name="Path 106247" d="M57.815,199.491a17.777,17.777,0,0,0-2.741,1.436.032.032,0,0,0,.029.056c.925-.449,1.869-.882,2.768-1.382a.062.062,0,0,0-.056-.11" transform="translate(-43.143 -156.315)" fill="#263238"/>
        <path id="Path_106248" data-name="Path 106248" d="M61.729,184.217c-.064.341-.146.678-.22,1.017-.069.318-.119.642-.2.956a1.629,1.629,0,0,1-.445.8c-.125.116-.262.219-.4.325-.072.057-.149.112-.224.17.01-.045.018-.091.026-.137q.034-.194.066-.388.072-.43.138-.862c.086-.565.166-1.137.284-1.7a.018.018,0,0,0-.035-.009c-.141.555-.3,1.1-.419,1.663-.06.274-.275,1.629-.285,1.725s-.018.2-.021.3a1.184,1.184,0,0,0,0,.3c.006.025.035.021.046,0h0a1.2,1.2,0,0,0,.086-.295c.025-.1.047-.195.064-.293.006-.035.011-.072.016-.108.134-.081.258-.188.382-.279s.271-.192.4-.3a1.527,1.527,0,0,0,.486-.76,5.56,5.56,0,0,0,.16-.973c.043-.385.074-.772.128-1.155,0-.023-.031-.032-.035-.009" transform="translate(-47.003 -144.339)" fill="#263238"/>
        <path id="Path_106249" data-name="Path 106249" d="M49.909,111.667c.744,2.237,4.067,9.344,5.464,9.841,1.454.516,7.07,1.159,8.317.177.61-.481.822-5.619,0-5.5a40.829,40.829,0,0,1-6.364.1c-.585-.21-4.525-5.939-6.122-7.326-2.754-2.392-1.7,1.5-1.295,2.706" transform="translate(-38.687 -84.783)" fill="#f7a9a0"/>
        <path id="Path_106250" data-name="Path 106250" d="M61.939,116.062l-.082,6.4s-5.758.015-7.293-.792-4.781-8.206-5.592-11.038.486-3.269,2.549-1.191,5.164,6.431,5.532,6.521,4.885.1,4.885.1" transform="translate(-38.183 -84.743)" fill="#00a134"/>
        <path id="Path_106251" data-name="Path 106251" d="M58.923,124.637a11.737,11.737,0,0,0-3.4,1.125c-.065.032-.13.067-.195.1-.05.024-.1.05-.145.078-.1.05-.188.1-.281.158-.013-.035-.028-.069-.041-.1.065-.039.132-.078.2-.115.048-.026.1-.052.143-.076.089-.05.18-.1.271-.145a10.85,10.85,0,0,1,1.712-.71,11.39,11.39,0,0,1,1.671-.4l.071.091m1.285,1.617a3.428,3.428,0,0,1-.314.145,3.213,3.213,0,0,1-.876.229c-.151.017-.3.043-.454.052l-.457.013a5.035,5.035,0,0,1-1.779-.377c-.34-.132-.671-.292-1-.452-.043-.017-.084-.039-.128-.058-.1-.048-.208-.1-.314-.143-.032-.015-.067-.03-.1-.043s-.063-.028-.1-.041c.013.03.024.061.037.091s.022.052.03.078h0a.054.054,0,0,1,.019.009c.093.041.186.082.279.126.041.019.082.041.126.061.359.171.721.353,1.1.5a5.178,5.178,0,0,0,1.827.387l.467-.011c.156-.009.312-.037.465-.054a3.39,3.39,0,0,0,.909-.236,3.466,3.466,0,0,0,.353-.162l-.091-.113M57.993,123.5a11.642,11.642,0,0,0-1.179.632,15.389,15.389,0,0,0-2.03,1.491l-.058.05c.011.026.022.052.03.078h0a.15.15,0,0,1,.006.017s.009-.009.013-.009c.037-.032.071-.065.108-.093a15.367,15.367,0,0,1,1.989-1.437,13.447,13.447,0,0,1,1.2-.636l-.078-.093" transform="translate(-42.853 -96.771)" fill="#fff"/>
        <path id="Path_106252" data-name="Path 106252" d="M101.943,148.3c0-.507.037-2.535.084-3.038,0-.008.014-.01.015,0,.049.489.076,2.491.072,3A27.7,27.7,0,0,1,102,151.3c0,.018-.032.022-.033,0-.076-1-.035-2-.025-3" transform="translate(-79.866 -113.818)" fill="#263238"/>
        <g id="Group_41720" data-name="Group 41720" transform="translate(10.544 23.405)" opacity="0.1">
          <g id="Group_41719" data-name="Group 41719">
            <g id="Group_41718" data-name="Group 41718" clip-path="url(#clip-path-8)">
              <path id="Path_106253" data-name="Path 106253" d="M48.968,110.638c.812,2.833,4.058,10.23,5.592,11.037a12.826,12.826,0,0,0,4.019.686l-9.042-14.2c-.773-.087-1.065.751-.569,2.48" transform="translate(-48.724 -108.152)"/>
            </g>
          </g>
        </g>
        <path id="Path_106254" data-name="Path 106254" d="M16.155,124.954c.035.034,14.084-.927,14.2-1.08.164-.216-4.282-14.492-5.4-16.589-.475-.894-2.746-1.022-3.645-.178-2.248,2.114-3.813,8.951-4.142,11-.546,3.378-1.144,6.722-1.019,6.846" transform="translate(-12.646 -83.483)" fill="#00a134"/>
        <path id="Path_106255" data-name="Path 106255" d="M31.572,160.369c-.132-.078-.262-.156-.394-.232a17.457,17.457,0,0,0-1.638-.842c-.1-.045-.206-.091-.307-.134l-.149-.061a10.592,10.592,0,0,0-1.27-.435,9.507,9.507,0,0,0-1.807-.309,11.793,11.793,0,0,0-3.638.4c-.071.019-.143.039-.212.061-.054.013-.106.028-.158.045a14.982,14.982,0,0,0-2.4.965c-.212.1-.424.212-.632.322l-.065.035-.238.128.019-.11c.08-.045.16-.089.24-.132.242-.132.487-.26.734-.379.2-.1.411-.2.619-.294a14.717,14.717,0,0,1,1.606-.619c.052-.015.106-.032.158-.045.1-.032.195-.061.294-.087a10.614,10.614,0,0,1,1.822-.344,11.264,11.264,0,0,1,1.852-.048,10.186,10.186,0,0,1,3.153.79c.048.022.1.041.147.065.087.037.173.076.258.115a17.073,17.073,0,0,1,1.638.857l.338.2c.009.03.017.058.026.087m-.727-2.387c-.359.212-.71.435-1.058.662-.208.134-.413.271-.621.4-.028.019-.054.037-.082.054-.283.182-.571.357-.863.522a5.573,5.573,0,0,1-1.7.654,3.267,3.267,0,0,1-.907.045c-.151-.015-.305-.019-.454-.041l-.45-.08a5.074,5.074,0,0,1-1.664-.734c-.305-.2-.6-.424-.889-.647-.037-.028-.074-.056-.113-.084-.091-.069-.184-.139-.277-.2-.03-.024-.058-.043-.089-.065l-.13-.089a3.255,3.255,0,0,0-1.759-.6,2.03,2.03,0,0,0-.727.149l-.019.117a2.03,2.03,0,0,1,.744-.156,3.127,3.127,0,0,1,1.69.6l.076.052.089.063c.082.058.164.119.245.182.039.028.076.056.113.084.318.242.634.493.974.714a5.176,5.176,0,0,0,1.705.753l.463.084c.154.022.309.028.465.043a3.509,3.509,0,0,0,.939-.045,5.631,5.631,0,0,0,1.742-.671c.322-.182.636-.379.946-.582.026-.015.054-.032.08-.05l.545-.357c.338-.223.68-.441,1.026-.649Zm-.238-.766a11.006,11.006,0,0,0-1.145-.3,8.574,8.574,0,0,0-1.85-.169,10.823,10.823,0,0,0-1.85.195,12.005,12.005,0,0,0-1.794.485,15.268,15.268,0,0,0-2.29,1.043c-.043.022-.084.045-.126.069-.307.171-.608.348-.907.532-.331.2-.66.413-.985.625-.253.162-.5.329-.755.493-.08.054-.162.106-.242.158-.006.035-.011.067-.015.1.32-.2.636-.411.954-.615.225-.145.45-.29.677-.431.136-.087.273-.171.411-.253.312-.188.63-.372.95-.548.041-.024.082-.045.126-.067a15.135,15.135,0,0,1,2.24-1,12,12,0,0,1,3.605-.688,8.542,8.542,0,0,1,1.833.156,10.844,10.844,0,0,1,1.192.312c-.011-.032-.022-.065-.03-.1" transform="translate(-14.612 -122.822)" fill="#fff"/>
        <path id="Path_106256" data-name="Path 106256" d="M7.574,111.073c-3.729,4.117-7.934,11.06-6.135,12.543,1.643,1.354,7.643.066,11.414-1.409.718-.281-2.193-6.632-2.926-6.254a20.817,20.817,0,0,1-2.387,1.074c-.207.056.927-1.329,2.19-4.658,1.283-3.384-.024-3.65-2.156-1.3" transform="translate(-0.791 -85.826)" fill="#f7a9a0"/>
        <path id="Path_106257" data-name="Path 106257" d="M49.815,131.342c0,.738-1.817.593-1.817.593a1.361,1.361,0,0,1,.554.742c.137.544-.656,1-.656,1a1.68,1.68,0,0,1,.46.876c.079.534-.656,1.106-.656,1.106a1.472,1.472,0,0,1-.081,1.025c-.433.841-1.888.859-2.786,1.047a19.143,19.143,0,0,0-2.948.939l-1.67-6.632s3.9-2.314,4.987-2.262c.918.044,4.606.44,4.612,1.568" transform="translate(-31.513 -101.688)" fill="#f7a9a0"/>
        <path id="Path_106258" data-name="Path 106258" d="M65.223,138.341a12.345,12.345,0,0,0-2.989-.366.017.017,0,0,0,0,.034c.989.025,2,.315,2.982.379a.024.024,0,0,0,.008-.047" transform="translate(-48.752 -108.115)" fill="#263238"/>
        <path id="Path_106259" data-name="Path 106259" d="M65.151,147.306a2.619,2.619,0,0,0-.684-.038q-.364,0-.728.022c-.485.022-.97.056-1.454.1-.021,0-.024.035,0,.034.484-.021.968-.036,1.452-.037q.364,0,.727,0a3.122,3.122,0,0,0,.685-.023.035.035,0,0,0,0-.066" transform="translate(-48.793 -115.394)" fill="#263238"/>
        <path id="Path_106260" data-name="Path 106260" d="M65.208,156.859a1.821,1.821,0,0,0-.618,0q-.331.022-.663.041c-.442.025-.884.049-1.327.058-.022,0-.023.035,0,.035.45-.007.9-.008,1.349-.019q.331-.008.662-.02a1.715,1.715,0,0,0,.6-.071.012.012,0,0,0,0-.022" transform="translate(-49.04 -122.89)" fill="#263238"/>
        <path id="Path_106261" data-name="Path 106261" d="M8.53,115.878l1.437,7.134s-8.931,2.33-9.857.07,4.325-10.649,7.352-13.043,1.892,1.378,1.8,1.679a44.038,44.038,0,0,1-2.313,4.834Z" transform="translate(-0.002 -85.605)" fill="#ffc727"/>
        <path id="Path_106262" data-name="Path 106262" d="M9.965,123.013s-8.931,2.331-9.858.071c-.5-1.216.792-4.2,2.56-7.081.009-.015.019-.03.028-.045s.024-.039.037-.058.024-.039.037-.058a35.683,35.683,0,0,1,2.069-2.984c.024-.032.05-.065.076-.1a16.729,16.729,0,0,1,2.547-2.718c3.025-2.394,1.891,1.376,1.8,1.679-.028.1-.065.2-.108.316-.017.043-.035.091-.054.139-.249.636-.66,1.493-1.054,2.281-.017.032-.032.065-.048.1-.006.011-.011.022-.015.03l-.026.05c-.513,1.011-.978,1.868-1.006,1.92l1.58-.671Z" transform="translate(0 -85.607)" fill="#00a134"/>
        <path id="Path_106263" data-name="Path 106263" d="M17.7,124.546c-.017.032-.032.065-.048.1-.006.011-.011.022-.015.03l-.108.069-.881.573a13.228,13.228,0,0,1-1.612.909,4.209,4.209,0,0,1-.885.294,1.826,1.826,0,0,1-.935-.028c-.076-.022-.154-.039-.227-.063l-.216-.093a3.056,3.056,0,0,1-.416-.221l-.032-.019c.009-.015.019-.03.028-.045s.024-.039.037-.058a.155.155,0,0,0,.032.024l.03.017a2.416,2.416,0,0,0,.368.2l.208.091.216.063a1.737,1.737,0,0,0,.887.032,4.172,4.172,0,0,0,.866-.281,13.388,13.388,0,0,0,1.608-.887l.7-.45.184-.119Zm-.208.132c-1.11.271-2.2.615-3.307.885-.58.145-1.169.273-1.759.368-.013.019-.026.039-.037.058s-.024.039-.037.058l.1-.017c.591-.1,1.177-.232,1.757-.379,1.041-.262,2.062-.586,3.1-.855.074-.019.147-.039.221-.056.026-.006.054-.015.082-.019l.026-.05c0-.009.009-.019.015-.03-.054.011-.108.024-.16.037m.071-1.8a5.166,5.166,0,0,1-.842.361,2.225,2.225,0,0,1-.887.113,2.864,2.864,0,0,1-1.264-.5c-.026.032-.052.065-.076.1a2.988,2.988,0,0,0,1.327.517,2.3,2.3,0,0,0,.933-.126,5.018,5.018,0,0,0,.855-.374,13.146,13.146,0,0,0,1.145-.7c.019-.048.037-.1.054-.139a13.979,13.979,0,0,1-1.244.753" transform="translate(-9.66 -95.697)" fill="#fff"/>
        <path id="Path_106264" data-name="Path 106264" d="M23.09,139.7a21.265,21.265,0,0,0-4.3,2.252c-.017.016,0,.044.021.031.581-.409,3.9-2.035,4.422-2.234a.687.687,0,0,0,.036.081c.017.025.031.01.03-.013a1.394,1.394,0,0,0-.039-.174l-.167.058" transform="translate(-14.716 -109.424)" fill="#263238"/>
        <path id="Path_106265" data-name="Path 106265" d="M33.269,147.483c-.1-.5-.47-2.492-.524-2.994,0-.008.012-.012.014,0,.146.469.572,2.426.669,2.925a27.682,27.682,0,0,1,.5,3c0,.018-.027.027-.032.008-.273-.963-.433-1.954-.624-2.935" transform="translate(-25.658 -113.213)" fill="#263238"/>
        <path id="Path_106266" data-name="Path 106266" d="M31.772,130.292c.28-.607.622-1.186.928-1.78s.626-1.179.912-1.781c0-.008.017,0,.014.006-.174.411-.348.818-.533,1.222.056-.064.109-.13.161-.2.094-.122.182-.249.267-.377a.008.008,0,0,1,.013.008,2.072,2.072,0,0,1-.248.4,2.7,2.7,0,0,1-.238.262c-.077.164-.155.328-.237.49a12.754,12.754,0,0,1-.934,1.744c-.013.018-.113.018-.1,0" transform="translate(-24.895 -99.302)" fill="#263238"/>
        <path id="Path_106267" data-name="Path 106267" d="M18,172.772c1.054-.014,5.033-.8,6.018-1-.013-.1-.009-.141-.026-.289,0-.019.028-.029.032-.008.028.14.122.419.082.434a36.076,36.076,0,0,1-6.107.9.022.022,0,0,1,0-.044" transform="translate(-14.088 -134.359)" fill="#263238"/>
        <path id="Path_106268" data-name="Path 106268" d="M67.6,136.879l7.409,1,2.811-10.3-7.409-1Z" transform="translate(-52.972 -99.188)" fill="#263238"/>
        <path id="Path_106269" data-name="Path 106269" d="M69.284,137.106l7.409,1,2.811-10.3-7.409-1Z" transform="translate(-54.29 -99.365)" fill="#37474f"/>
        <path id="Path_106270" data-name="Path 106270" d="M92.4,148.435a.81.81,0,0,1-.881.615.655.655,0,0,1-.561-.809.81.81,0,0,1,.881-.615.656.656,0,0,1,.561.809" transform="translate(-71.256 -115.673)" fill="#fff"/>
        <path id="Path_106271" data-name="Path 106271" d="M98.907,141.226c.308.867,1.192,1.994,1.2,2.678a.784.784,0,0,1-.517.78,1.167,1.167,0,0,1,.549,1.027c-.047.32-.6.527-.6.527a.936.936,0,0,1,.383.9c-.092.437-.632.578-.632.578a1.117,1.117,0,0,1,.087.971c-.479.842-4.291.454-4.738-1.01-.208-.682.718-.537.718-.537s-1.281-.53-1.221-1.319,1.252-.527,1.252-.527-1.237-.525-1.093-1.336c.15-.844,1.3-.378,1.3-.378s-.789-.661-.536-1.256c.417-.983,1.893.456,2.751.343l.6-1.334Z" transform="translate(-73.767 -110.663)" fill="#f7a9a0"/>
        <path id="Path_106272" data-name="Path 106272" d="M114.572,135.964c-.22-.846.892-1.75.8-2.59-.128-1.136-1.489-.174-1.931,1.412l-.127,1.291Z" transform="translate(-88.789 -104.122)" fill="#f7a9a0"/>
        <path id="Path_106273" data-name="Path 106273" d="M103.38,168.848a.01.01,0,0,1,0,.02,6.648,6.648,0,0,1-3.9-.634c-.038-.02-.021-.09.024-.076a13.607,13.607,0,0,0,3.877.689" transform="translate(-77.933 -131.765)" fill="#263238"/>
        <path id="Path_106274" data-name="Path 106274" d="M103.8,160.79c.015,0,.015.025,0,.027a6.227,6.227,0,0,1-4.215-.956c-.043-.029-.051-.1,0-.069a11.2,11.2,0,0,0,4.216,1" transform="translate(-78.002 -125.206)" fill="#263238"/>
        <path id="Path_106275" data-name="Path 106275" d="M100.426,151.642a8.555,8.555,0,0,0,4.013,1.211c.019,0,.015.028,0,.031a5.6,5.6,0,0,1-2.319-.231,3.831,3.831,0,0,1-1.72-.968c-.019-.019,0-.06.027-.043" transform="translate(-78.665 -118.822)" fill="#263238"/>
        <path id="Path_106276" data-name="Path 106276" d="M44.858,110.511a.005.005,0,0,0-.01,0c.026.64.046,2.122-.954,2.011a2.131,2.131,0,0,1-1.068-.557,5.658,5.658,0,0,1-.833-.879,8.3,8.3,0,0,1-.769-1.123c-.009-.017-.035,0-.025.017.23.4.42.8.687,1.178a4.9,4.9,0,0,0,.9.973,2.127,2.127,0,0,0,1.137.546.808.808,0,0,0,.834-.593,3.566,3.566,0,0,0,.1-1.575" transform="translate(-32.281 -86.161)" fill="#263238"/>
        <path id="Path_106277" data-name="Path 106277" d="M45.4,100.362c-.722.063-1.9-1.289-2.251-2.222-.023-.064.159-.675.345-1.428.111-.457.224-.969.294-1.444l2.871,1.158a7.643,7.643,0,0,0-.554,1.78,1.065,1.065,0,0,0-.008.2c0,.009,0,.02,0,.033.006.379,0,1.864-.7,1.925" transform="translate(-33.808 -74.651)" fill="#f7a9a0"/>
        <path id="Path_106278" data-name="Path 106278" d="M49.113,98.69c0,.008,0,.019,0,.032a1.9,1.9,0,0,1-.308-.027C47.088,98.4,46.99,96.237,47,95.632l.717.289,1.96.791a7.592,7.592,0,0,0-.553,1.78,1.027,1.027,0,0,0-.009.2" transform="translate(-36.827 -74.936)" fill="#263238"/>
        <path id="Path_106279" data-name="Path 106279" d="M44.313,73.779c-.3,1.074.342,4.141,1.118,4.808a2.453,2.453,0,0,0,3.74-.325c.788-1.3-.118-5.283-.98-5.886a2.66,2.66,0,0,0-3.877,1.4" transform="translate(-34.664 -56.409)" fill="#f7a9a0"/>
        <path id="Path_106280" data-name="Path 106280" d="M58.134,89.205c0-.008-.014.013-.012.021.049.205.07.449-.1.556-.005,0,0,.013,0,.011.222-.079.19-.4.111-.588" transform="translate(-45.46 -69.899)" fill="#263238"/>
        <path id="Path_106281" data-name="Path 106281" d="M56.757,88.382c-.338.043-.228.715.085.675s.2-.711-.085-.675" transform="translate(-44.312 -69.254)" fill="#263238"/>
        <path id="Path_106282" data-name="Path 106282" d="M63.99,88.13c0-.008.018.007.019.016.027.209.094.444.294.483.006,0,.007.012,0,.012-.235.005-.321-.308-.313-.51" transform="translate(-50.142 -69.056)" fill="#263238"/>
        <path id="Path_106283" data-name="Path 106283" d="M64.142,86.97c.331-.08.467.587.16.661s-.438-.594-.16-.661" transform="translate(-50.142 -68.143)" fill="#263238"/>
        <path id="Path_106284" data-name="Path 106284" d="M55.264,85.256a2.643,2.643,0,0,0,.245-.134.452.452,0,0,0,.224-.185.144.144,0,0,0-.051-.168.357.357,0,0,0-.361.022.526.526,0,0,0-.262.273.154.154,0,0,0,.2.193" transform="translate(-43.134 -66.392)" fill="#263238"/>
        <path id="Path_106285" data-name="Path 106285" d="M63.521,84.575a2.606,2.606,0,0,1-.279-.026.45.45,0,0,1-.279-.08.144.144,0,0,1-.02-.175.357.357,0,0,1,.34-.124.524.524,0,0,1,.349.146.154.154,0,0,1-.111.258" transform="translate(-49.306 -65.954)" fill="#263238"/>
        <path id="Path_106286" data-name="Path 106286" d="M58.631,98.2c.058.04.119.1.2.093a.552.552,0,0,0,.215-.089.007.007,0,0,1,.011.009.284.284,0,0,1-.246.156.225.225,0,0,1-.194-.157c0-.012.01-.019.019-.013" transform="translate(-45.927 -76.948)" fill="#263238"/>
        <path id="Path_106287" data-name="Path 106287" d="M59.22,86.216a.718.718,0,0,0,.525.238.9.9,0,0,0,.257-.03.249.249,0,0,0,.048-.013l.045-.014a.053.053,0,0,0,.034-.053v0a.1.1,0,0,0-.005-.021v0l0-.018c-.022-.161-.077-.4-.077-.4.063.02.384.105.366.022a10.786,10.786,0,0,0-.626-2.1.02.02,0,0,0-.037.012c.123.666.361,1.305.5,1.972a1.262,1.262,0,0,0-.351-.047c-.022.01.115.464.119.538a.031.031,0,0,1,0,.008,1,1,0,0,1-.771-.108c-.018-.009-.032.007-.016.022" transform="translate(-46.399 -65.671)" fill="#263238"/>
        <path id="Path_106288" data-name="Path 106288" d="M59.865,95.182a.836.836,0,0,1-.289.31.376.376,0,0,1-.224.051c-.17-.016-.2-.166-.19-.3a.907.907,0,0,1,.042-.208,1.083,1.083,0,0,0,.661.147" transform="translate(-46.358 -74.468)" fill="#263238"/>
        <path id="Path_106289" data-name="Path 106289" d="M59.576,96.243a.377.377,0,0,1-.224.051c-.17-.016-.2-.166-.189-.3a.389.389,0,0,1,.413.248" transform="translate(-46.358 -75.22)" fill="#ff9abb"/>
        <path id="Path_106290" data-name="Path 106290" d="M48.1,72.95c-.172-.242-.363-.482-.535-.5s-.193.4-.553.5c-.486.14-.822-.262-1.522-.161-1,.145-1.263,1.066-.984,2.476.249,1.259-.483,1.541-.483,1.541s-1.056-2.668-.473-3.752a3.038,3.038,0,0,1,3.675-1.259c.507.224.876,1.157.876,1.157" transform="translate(-33.991 -56.087)" fill="#263238"/>
        <path id="Path_106291" data-name="Path 106291" d="M43.919,89.81s-.741-.964-1.182-.7.148,1.688.688,1.861a.54.54,0,0,0,.709-.323Z" transform="translate(-33.368 -69.792)" fill="#f7a9a0"/>
        <path id="Path_106292" data-name="Path 106292" d="M44.1,91.147a.007.007,0,0,0,0,.014,1.364,1.364,0,0,1,.743.821.3.3,0,0,0-.449-.061c-.009.007,0,.022.011.019a.332.332,0,0,1,.37.1,1.6,1.6,0,0,1,.188.287c.019.032.078.012.064-.026l0-.008c-.012-.475-.411-1.121-.922-1.146" transform="translate(-34.548 -71.422)" fill="#263238"/>
        <path id="Path_106293" data-name="Path 106293" d="M42.636,70.176A4.541,4.541,0,0,0,41.327,70a5.2,5.2,0,0,0-2.321.737c-.318.364-.189,1.818-.166,2.03s.317,1.47.826,1.7.214-1.934.829-2.765a6.739,6.739,0,0,1,2.141-1.53" transform="translate(-30.399 -54.849)" fill="#00a134"/>
        <g id="Group_41723" data-name="Group 41723" transform="translate(8.776 15.166)" opacity="0.1">
          <g id="Group_41722" data-name="Group 41722">
            <g id="Group_41721" data-name="Group 41721" clip-path="url(#clip-path-9)">
              <path id="Path_106294" data-name="Path 106294" d="M44.014,70.238a6.731,6.731,0,0,0-2.141,1.53c-.616.83-.32,3-.83,2.765a1.024,1.024,0,0,1-.491-.614,5.335,5.335,0,0,1,.519-2.429,3.285,3.285,0,0,1,2.083-1.413,5.182,5.182,0,0,1,.859.161" transform="translate(-40.553 -70.077)"/>
            </g>
          </g>
        </g>
        <path id="Path_106295" data-name="Path 106295" d="M41.411,75.842a8.605,8.605,0,0,1,.77-3.2,4.814,4.814,0,0,1,2.456-1.806c.619-.061.8.211.888.141s-.634-.67-.823-.746a2.013,2.013,0,0,0-.881-.079,4.35,4.35,0,0,0-2.371,1.265c-.487.795-1.024,2.892-.79,3.37.056.115.229.167.307.33.1.214.19.466.283.613.074.118.166.161.162.11" transform="translate(-31.816 -54.957)" fill="#00a134"/>
        <path id="Path_106296" data-name="Path 106296" d="M45.147,77.828a2.965,2.965,0,0,1-.444-.23,2.138,2.138,0,0,1-.4-.311c-.008-.009-.023,0-.015.012a1.633,1.633,0,0,0,.374.36,1.391,1.391,0,0,0,.475.2c.019,0,.026-.024.009-.032" transform="translate(-34.703 -60.559)" fill="#263238"/>
        <path id="Path_106297" data-name="Path 106297" d="M41.714,90.567c-.023-.039-.056-.072-.082-.108a.725.725,0,0,1-.076-.134,1.315,1.315,0,0,0-.11-.269,1.043,1.043,0,0,0-.165-.171.389.389,0,0,1-.15-.216.01.01,0,0,0-.019,0c.027.175.164.281.263.415a1.861,1.861,0,0,1,.126.287.455.455,0,0,0,.19.217c.013.005.031-.009.023-.023" transform="translate(-32.215 -70.257)" fill="#263238"/>
        <path id="Path_106298" data-name="Path 106298" d="M41.919,87.875a2.556,2.556,0,0,1-.192-.17,1.853,1.853,0,0,1-.158-.2c-.048-.068-.09-.139-.137-.207s-.12-.156-.171-.239c-.006-.011-.022,0-.015.012.053.086.09.182.141.27a2.039,2.039,0,0,0,.147.218,1.3,1.3,0,0,0,.169.186.627.627,0,0,0,.211.135.005.005,0,0,0,.005-.009" transform="translate(-32.319 -68.218)" fill="#263238"/>
        <path id="Path_106299" data-name="Path 106299" d="M42.442,85.642a1.665,1.665,0,0,1-.369-.3c-.1-.117-.2-.24-.3-.364-.006-.008-.022,0-.016.01a1.975,1.975,0,0,0,.267.406,1.018,1.018,0,0,0,.176.159,1.086,1.086,0,0,0,.23.111c.01,0,.021-.011.01-.018" transform="translate(-32.721 -66.582)" fill="#263238"/>
        <path id="Path_106300" data-name="Path 106300" d="M43.146,82.964a.569.569,0,0,1-.177-.13c-.06-.057-.119-.115-.176-.175s-.111-.114-.165-.171a.568.568,0,0,1-.137-.2.01.01,0,0,0-.019.005.591.591,0,0,0,.1.215,1.525,1.525,0,0,0,.166.2,2.073,2.073,0,0,0,.192.175.382.382,0,0,0,.206.1c.015,0,.022-.02.007-.026" transform="translate(-33.281 -64.479)" fill="#263238"/>
        <path id="Path_106301" data-name="Path 106301" d="M43.908,80.477c-.062-.044-.123-.088-.181-.137s-.113-.1-.168-.152-.116-.108-.169-.166a.01.01,0,0,0-.015.012,1.541,1.541,0,0,0,.139.193,1.671,1.671,0,0,0,.168.164,1.828,1.828,0,0,0,.185.141.6.6,0,0,0,.208.1.014.014,0,0,0,.013-.022,1.133,1.133,0,0,0-.179-.134" transform="translate(-33.986 -62.701)" fill="#263238"/>
        <path id="Path_106302" data-name="Path 106302" d="M46.624,75.922c-.068-.062-.134-.122-.208-.178a2.542,2.542,0,0,0-.234-.155,2.489,2.489,0,0,0-.494-.231c-.01,0-.02.01-.01.017.309.19.627.368.934.562a.01.01,0,0,0,.012-.015" transform="translate(-35.789 -59.05)" fill="#263238"/>
        <path id="Path_106303" data-name="Path 106303" d="M48.51,74.155A1.2,1.2,0,0,0,48.285,74a2.6,2.6,0,0,0-.537-.2.01.01,0,0,0-.008.018c.165.076.331.149.492.234a2.47,2.47,0,0,1,.232.136c.075.051.136.116.208.17a.007.007,0,0,0,.011-.009.679.679,0,0,0-.174-.2" transform="translate(-37.405 -57.831)" fill="#263238"/>
        <path id="Path_106304" data-name="Path 106304" d="M50.905,72.815a1.279,1.279,0,0,0-.21-.157,1.472,1.472,0,0,0-.459-.181c-.011,0-.015.015-.005.018a2.913,2.913,0,0,1,.442.225c.071.044.139.092.207.138s.13.109.2.148c.006,0,.011,0,.007-.01a1.344,1.344,0,0,0-.185-.183" transform="translate(-39.356 -56.792)" fill="#263238"/>
        <path id="Path_106305" data-name="Path 106305" d="M53.177,71.763c-.068-.04-.138-.076-.209-.111a.739.739,0,0,0-.218-.081c-.012,0-.014.013-.005.018.133.075.264.154.4.232a2.024,2.024,0,0,1,.319.275s.012,0,.01-.007a.745.745,0,0,0-.292-.325" transform="translate(-41.327 -56.081)" fill="#263238"/>
        <path id="Path_106306" data-name="Path 106306" d="M55.123,71.068a1.2,1.2,0,0,0-.422-.179c-.011,0-.016.015-.005.019a1.468,1.468,0,0,1,.391.208,2.054,2.054,0,0,1,.33.3c0,.005.015,0,.011-.007a.994.994,0,0,0-.3-.339" transform="translate(-42.855 -55.548)" fill="#263238"/>
        <path id="Path_106307" data-name="Path 106307" d="M57.338,70.986a.774.774,0,0,0-.063-.08.988.988,0,0,0-.153-.137,2.085,2.085,0,0,0-.366-.2c-.011-.005-.019.013-.008.018a1.7,1.7,0,0,1,.347.211,1.35,1.35,0,0,1,.148.134c.023.023.043.048.064.073a.507.507,0,0,0,.061.074.01.01,0,0,0,.015-.009.266.266,0,0,0-.044-.084" transform="translate(-44.463 -55.296)" fill="#263238"/>
        <path id="Path_106308" data-name="Path 106308" d="M59.573,71.3a1.449,1.449,0,0,0-.126-.113,1.3,1.3,0,0,0-.138-.1c-.049-.03-.1-.058-.148-.09a.01.01,0,1,0-.01.016,1.013,1.013,0,0,1,.141.1l.127.1.126.1a1.544,1.544,0,0,0,.127.108.008.008,0,0,0,.011-.011.721.721,0,0,0-.111-.124" transform="translate(-46.346 -55.635)" fill="#263238"/>
      </g>
    </g>
    <g id="Group_41727" data-name="Group 41727" transform="translate(9347.056 5276)">
      <g id="Group_41726" data-name="Group 41726" clip-path="url(#clip-path)">
        <path id="Path_106309" data-name="Path 106309" d="M85.283,34.657a4.7,4.7,0,0,1-7.861,2.976l-2.354.345,1.178-2.035a4.705,4.705,0,1,1,9.037-1.287" transform="translate(-58.823 -23.086)" fill="#fff"/>
        <path id="Path_106310" data-name="Path 106310" d="M84.709,34.507a4.737,4.737,0,0,1-.95,2.385,4.246,4.246,0,0,1-.923.911,4.64,4.64,0,0,1-1.135.632,4.691,4.691,0,0,1-1.267.3,4.61,4.61,0,0,1-.654.012,4.087,4.087,0,0,1-.651-.068A4.747,4.747,0,0,1,76.8,37.533l.056.017-2.352.361-.171.026.087-.15,1.171-2.039-.005.081a4.758,4.758,0,0,1,.29-4.193,4.813,4.813,0,0,1,1.474-1.569,4.786,4.786,0,0,1,4.135-.557A4.8,4.8,0,0,1,83.3,30.622a4.733,4.733,0,0,1,1.408,3.885m0,0a4.654,4.654,0,0,0-5.335-5.092,4.623,4.623,0,0,0-1.943.767,4.848,4.848,0,0,0-1.408,1.535,4.645,4.645,0,0,0-.6,1.991,4.7,4.7,0,0,0,.331,2.05l.017.042-.023.039-1.185,2.031-.084-.124,2.356-.33.032,0,.023.022a4.635,4.635,0,0,0,2.253,1.16,4.057,4.057,0,0,0,.638.078,4.566,4.566,0,0,0,.644,0,4.632,4.632,0,0,0,1.256-.277,4.385,4.385,0,0,0,1.135-.612,4.226,4.226,0,0,0,.925-.9,4.727,4.727,0,0,0,.964-2.374" transform="translate(-58.249 -22.936)" fill="#263238"/>
        <path id="Path_106311" data-name="Path 106311" d="M90.825,44.283l-2.01-2.034.675-.667,1.174,1.188L93.1,38.947l.8.51Z" transform="translate(-69.594 -30.518)" fill="#ffc727"/>
      </g>
    </g>
    <rect id="Rectangle_11801" data-name="Rectangle 11801" width="88.114" height="90.773" transform="translate(9347.056 5276)" fill="none"/>
  </g>
</svg>
