<svg id="空專案_將到期" xmlns="http://www.w3.org/2000/svg" width="75" height="75" viewBox="0 0 75 75">
  <g id="Group_41475" data-name="Group 41475" transform="translate(-809 -333)">
    <g id="Group_41462" data-name="Group 41462" transform="translate(809 333)">
      <g id="Group_41460" data-name="Group 41460" transform="translate(0)">
        <g id="Union_4" data-name="Union 4" fill="#fff">
          <path d="M 62.99999618530273 67.50019836425781 L 5.000396251678467 67.50019836425781 C 3.621674299240112 67.50019836425781 2.499996423721313 66.37852478027344 2.499996423721313 64.99980163574219 L 2.499996423721313 26.84700012207031 C 2.499996423721313 25.86285400390625 3.080796480178833 24.96666526794434 3.979663133621216 24.56387710571289 L 4.210052013397217 24.46063232421875 L 4.415141105651855 24.31342124938965 L 34.00018692016602 3.07738208770752 L 63.5838508605957 24.31303215026855 L 63.7890739440918 24.4603443145752 L 64.01961517333984 24.56362152099609 C 64.91861724853516 24.96635437011719 65.49950408935547 25.86263275146484 65.49950408935547 26.84700012207031 L 65.49950408935547 64.99980163574219 C 65.49950408935547 66.37852478027344 64.37822723388672 67.50019836425781 62.99999618530273 67.50019836425781 Z" stroke="none"/>
          <path d="M 63.00000381469727 65.00020599365234 L 62.99951171875 65.00020599365234 C 62.99951171875 65.00007629394531 62.99951171875 64.99993896484375 62.99951171875 64.99980926513672 L 62.99951171875 26.84720993041992 C 62.9985466003418 26.84617042541504 62.99771881103516 26.84534072875977 62.99753952026367 26.84515190124512 L 62.53645706176758 26.63859176635742 L 34.00016403198242 6.154767036437988 L 5.464272022247314 26.63805961608887 L 5.003498554229736 26.84453964233398 C 5.002546310424805 26.84511375427246 5.001241207122803 26.84622383117676 5.00000524520874 26.84700584411621 L 5.00000524520874 64.99980926513672 C 5.00000524520874 64.99999237060547 4.999951362609863 65.00020599365234 5.000405311584473 65.00020599365234 L 63.00000381469727 65.00020599365234 M 63.00000381469727 70.00020599365234 L 5.000405311584473 70.00020599365234 C 2.238298654556274 70.00020599365234 5.378010882850504e-06 67.76190185546875 5.378010882850504e-06 64.99980926513672 L 5.378010882850504e-06 26.84700584411621 C 5.378010882850504e-06 24.81351280212402 1.214205384254456 23.0635929107666 2.957325458526611 22.28247261047363 L 34.00020599365234 5.84879535381333e-06 L 65.04170227050781 22.2820987701416 C 66.78492736816406 23.06303215026855 67.99951171875 24.81317901611328 67.99951171875 26.84700584411621 L 67.99951171875 64.99980926513672 C 67.99951171875 67.76190185546875 65.76120758056641 70.00020599365234 63.00000381469727 70.00020599365234 Z" stroke="none" fill="#bbb"/>
        </g>
        <path id="Path_106173" data-name="Path 106173" d="M120,1602.5l30.5,12.849,32.565-12.849" transform="translate(-116.303 -1577.36)" fill="none" stroke="#bbb" stroke-width="3"/>
        <g id="Group_41459" data-name="Group 41459" transform="translate(29.849 50.583)">
          <path id="Path_106174" data-name="Path 106174" d="M177,1667.826s4.108-5.517,9.625,0" transform="translate(-177 -1665.374)" fill="none" stroke="#bbb" stroke-linecap="round" stroke-width="3"/>
        </g>
      </g>
      <g id="Group_41461" data-name="Group 41461" transform="translate(27.509 42)">
        <ellipse id="Ellipse_967" data-name="Ellipse 967" cx="2" cy="2.5" rx="2" ry="2.5" transform="translate(10)" fill="#bbb"/>
        <ellipse id="Ellipse_968" data-name="Ellipse 968" cx="2" cy="2.5" rx="2" ry="2.5" transform="translate(0)" fill="#bbb"/>
      </g>
    </g>
    <circle id="Ellipse_969" data-name="Ellipse 969" cx="17" cy="17" r="17" transform="translate(850 374)" fill="#fff"/>
  </g>
  <path id="Icon_material-timer" data-name="Icon material-timer" d="M21.327,1.5H12.913V4.3h8.413ZM15.718,19.729h2.8V11.316h-2.8Zm11.26-9.269,1.991-1.991a15.492,15.492,0,0,0-1.977-1.977L25,8.483a12.619,12.619,0,1,0,1.977,1.977ZM17.12,28.142a9.816,9.816,0,1,1,9.816-9.816A9.808,9.808,0,0,1,17.12,28.142Z" transform="translate(39.522 41.053)" fill="#bbb"/>
</svg>
