<svg id="空專案" xmlns="http://www.w3.org/2000/svg" width="70" height="70" viewBox="0 0 70 70">
  <g id="Group_41462" data-name="Group 41462" transform="translate(-707 -333.41)">
    <g id="Group_41460" data-name="Group 41460" transform="translate(709 333)">
      <g id="Union_4" data-name="Union 4" transform="translate(0 0.41)" fill="#fff">
        <path d="M 62.00010299682617 67.50019836425781 L 5.000401496887207 67.50019836425781 C 3.621679306030273 67.50019836425781 2.500001668930054 66.37852478027344 2.500001668930054 64.99980163574219 L 2.500001668930054 26.84700012207031 C 2.500001668930054 25.87658882141113 3.044012784957886 25.01238822937012 3.919746160507202 24.59164428710938 L 4.125057220458984 24.49300003051758 L 4.309157371520996 24.35887718200684 L 33.49980163574219 3.093065738677979 L 62.68983459472656 24.35843276977539 L 62.87404632568359 24.49264335632324 L 63.07950210571289 24.59132194519043 C 63.94218063354492 25.00567626953125 64.49960327148438 25.89107704162598 64.49960327148438 26.84700012207031 L 64.49960327148438 64.99980163574219 C 64.49960327148438 66.37852478027344 63.37833404541016 67.50019836425781 62.00010299682617 67.50019836425781 Z" stroke="none"/>
        <path d="M 62.00010681152344 65.00020599365234 L 61.99959945678711 65.00020599365234 C 61.99959945678711 65.00007629394531 61.99960327148438 64.99993896484375 61.99960327148438 64.99980926513672 L 61.99960327148438 26.84719276428223 C 61.99853897094727 26.84609031677246 61.99754333496094 26.84516143798828 61.99709320068359 26.84484672546387 L 61.58620071411133 26.64748573303223 L 33.49980163574219 6.186142444610596 L 5.41398811340332 26.64725875854492 L 5.003361701965332 26.84453964233398 C 5.002448081970215 26.84510040283203 5.001195907592773 26.84616279602051 5.000001430511475 26.84700584411621 L 5.000001430511475 64.99980926513672 C 5.000001430511475 64.99999237060547 4.999948978424072 65.00020599365234 5.000401496887207 65.00020599365234 L 62.00010681152344 65.00020599365234 M 62.00010681152344 70.00020599365234 L 5.000401496887207 70.00020599365234 C 2.238308191299438 70.00020599365234 1.635742137295892e-06 67.76190185546875 1.635742137295892e-06 64.99980926513672 L 1.635742137295892e-06 26.84700584411621 C 1.635742137295892e-06 24.86053848266602 1.158535003662109 23.14469909667969 2.837081670761108 22.33823204040527 L 33.49980163574219 5.84879535381333e-06 L 64.16191101074219 22.33779335021973 C 65.840576171875 23.14408493041992 66.99960327148438 24.86019325256348 66.99960327148438 26.84700584411621 L 66.99960327148438 64.99980926513672 C 66.99960327148438 67.76190185546875 64.76129150390625 70.00020599365234 62.00010681152344 70.00020599365234 Z" stroke="none" fill="#bbb"/>
      </g>
      <path id="Path_106173" data-name="Path 106173" d="M120,1602.5l30.013,12.849,32.049-12.849" transform="translate(-116.303 -1576.95)" fill="none" stroke="#bbb" stroke-width="3"/>
      <g id="Group_41459" data-name="Group 41459" transform="translate(29.338 50.993)">
        <path id="Path_106174" data-name="Path 106174" d="M177,1667.826s4.108-5.517,9.625,0" transform="translate(-177 -1665.374)" fill="none" stroke="#bbb" stroke-linecap="round" stroke-width="3"/>
      </g>
    </g>
    <g id="Group_41461" data-name="Group 41461" transform="translate(735.823 375.749)">
      <ellipse id="Ellipse_967" data-name="Ellipse 967" cx="2" cy="2.5" rx="2" ry="2.5" transform="translate(10.177 -0.339)" fill="#bbb"/>
      <ellipse id="Ellipse_968" data-name="Ellipse 968" cx="2" cy="2.5" rx="2" ry="2.5" transform="translate(0.177 -0.339)" fill="#bbb"/>
    </g>
  </g>
  <rect id="Rectangle_11762" data-name="Rectangle 11762" width="70" height="70" fill="none"/>
</svg>
