<svg xmlns="http://www.w3.org/2000/svg" width="18" height="18" viewBox="0 0 18 18">
  <g id="Group_40688" data-name="Group 40688" transform="translate(-305 -530)">
    <g id="Group_39443" data-name="Group 39443" transform="translate(48.5 -152.003)">
      <path id="Icon_awesome-fingerprint" data-name="Icon awesome-fingerprint" d="M6.249,6a.586.586,0,0,0-.586.586,17.84,17.84,0,0,1-.676,5.161.585.585,0,1,0,1.127.316,18.883,18.883,0,0,0,.719-5.478A.585.585,0,0,0,6.249,6ZM6.228,4.007A2.44,2.44,0,0,0,3.711,6.473a16.007,16.007,0,0,1-.326,3.478.585.585,0,1,0,1.147.237,17.177,17.177,0,0,0,.351-3.733A1.271,1.271,0,0,1,6.211,5.178,1.412,1.412,0,0,1,7.617,6.531a19.614,19.614,0,0,1-.259,3.5.585.585,0,1,0,1.155.191,20.811,20.811,0,0,0,.275-3.711A2.592,2.592,0,0,0,6.228,4.007Zm-2.7-.483a.586.586,0,0,0-.824.085,4.232,4.232,0,0,0-.945,2.733,14.169,14.169,0,0,1-.222,2.734.586.586,0,0,0,1.153.208,15.345,15.345,0,0,0,.241-2.96,3.015,3.015,0,0,1,.683-1.975A.586.586,0,0,0,3.528,3.524ZM6.2,2a4.361,4.361,0,0,0-1.117.121.586.586,0,0,0,.27,1.14,3.5,3.5,0,0,1,.83-.09A3.415,3.415,0,0,1,9.569,6.458,21.5,21.5,0,0,1,9.433,9.23a.586.586,0,1,0,1.164.133A22.667,22.667,0,0,0,10.74,6.44,4.6,4.6,0,0,0,6.2,2Zm6.15,2.963a.586.586,0,1,0-1.144.252,6.084,6.084,0,0,1,.115,1.5.585.585,0,0,0,.581.59h0a.585.585,0,0,0,.586-.581A7.25,7.25,0,0,0,12.348,4.967Zm-.979-2.213A6.49,6.49,0,0,0,6.168,0,6.111,6.111,0,0,0,1.719,1.78,5.819,5.819,0,0,0,0,6.018l0,.524a.585.585,0,0,0,.568.6H.586a.586.586,0,0,0,.585-.568l0-.577A4.654,4.654,0,0,1,2.548,2.608a4.944,4.944,0,0,1,3.6-1.436,5.315,5.315,0,0,1,4.26,2.254.585.585,0,1,0,.958-.673Z" transform="translate(259.941 683.003)" />
      <line id="Line_1582" data-name="Line 1582" x2="18" transform="translate(256.5 698.295)" fill="none" stroke="#000" stroke-width="2"/>
    </g>
    <rect id="Rectangle_11067" data-name="Rectangle 11067" width="18" height="18" transform="translate(305 530)" fill="none"/>
  </g>
</svg>
