<?xml version="1.0" encoding="utf-8"?>
<!-- Generator: Adobe Illustrator 27.9.0, SVG Export Plug-In . SVG Version: 6.00 Build 0)  -->
<svg version="1.1" id="圖層_1" xmlns="http://www.w3.org/2000/svg" xmlns:xlink="http://www.w3.org/1999/xlink" x="0px" y="0px"
	 viewBox="0 0 24.15 24" style="enable-background:new 0 0 24.15 24;" xml:space="preserve">
<style type="text/css">
	.st0{fill:currentColor;}
	.st1{fill:none;}
</style>
<g id="Group_39111" transform="translate(-2184 2437)">
	<g id="Group_39109" transform="translate(-2609.698 -5238.824)">
		<path id="Icon_awesome-stamp" class="st0" d="M4794.35,2810.94h7.09v-1.01h-7.09V2810.94z M4800.44,2806.88h-1.05
			c-0.26,0-0.47-0.21-0.47-0.47v-0.15c0.01-0.43,0.13-0.85,0.34-1.23c0.15-0.29,0.2-0.63,0.14-0.96c-0.15-0.83-0.94-1.38-1.77-1.23
			c-0.73,0.13-1.25,0.76-1.25,1.5c0,0.22,0.05,0.43,0.14,0.63c0.23,0.45,0.35,0.94,0.37,1.44l0,0c0,0.26-0.21,0.47-0.47,0.47
			c0,0,0,0,0,0h-1.06c-0.84,0-1.52,0.68-1.52,1.52c0,0,0,0,0,0v0.51c0,0.28,0.23,0.51,0.51,0.51h7.09c0.28,0,0.51-0.23,0.51-0.51
			l0,0v-0.51C4801.96,2807.56,4801.28,2806.88,4800.44,2806.88z"/>
		<path id="Icon_awesome-pen" class="st0" d="M4814.34,2804.3l2.03,2.03l-4.4,4.4l-1.81,0.2c-0.21,0.03-0.4-0.12-0.43-0.33
			c0-0.03,0-0.06,0-0.09l0.2-1.81L4814.34,2804.3L4814.34,2804.3z M4817.62,2804l-0.95-0.95c-0.3-0.3-0.78-0.3-1.08,0l-0.9,0.9
			l2.03,2.02l0.9-0.9C4817.93,2804.77,4817.93,2804.29,4817.62,2804L4817.62,2804z"/>
		<path id="Icon_awesome-hand-point-up" class="st0" d="M4804.35,2809.56c0.72,0.02,1.3,0.61,1.31,1.33v2.98
			c0.61-0.53,1.53-0.47,2.07,0.14c0.02,0.02,0.03,0.04,0.04,0.05c0.65-0.37,1.48-0.15,1.86,0.49c1.47-0.27,2.12,0.65,2.12,2.16
			c0,0.08-0.01,0.4-0.01,0.48c0,1.85-0.93,2.29-1.14,3.69c-0.06,0.35-0.36,0.6-0.71,0.6h-5.11c-0.56,0-1.08-0.33-1.31-0.85
			c-0.39-0.86-1.46-2.84-2.3-3.2c-0.51-0.17-0.86-0.65-0.87-1.19c0-0.79,0.64-1.43,1.43-1.43c0.19,0,0.38,0.04,0.56,0.11
			c0.26,0.11,0.51,0.26,0.74,0.42v-4.45C4803.06,2810.18,4803.63,2809.59,4804.35,2809.56z M4804.36,2821.96h5.72
			c0.4,0,0.72,0.32,0.72,0.72l0,0v1.43c0,0.4-0.32,0.72-0.72,0.72l0,0h-5.72c-0.4,0-0.72-0.32-0.72-0.72l0,0v-1.43
			C4803.64,2822.28,4803.96,2821.96,4804.36,2821.96L4804.36,2821.96L4804.36,2821.96z M4809.37,2822.8c-0.33,0-0.6,0.27-0.6,0.6
			s0.27,0.6,0.6,0.6s0.6-0.27,0.6-0.6C4809.97,2823.07,4809.7,2822.8,4809.37,2822.8C4809.37,2822.8,4809.37,2822.8,4809.37,2822.8
			L4809.37,2822.8z"/>
	</g>
	<rect id="Rectangle_10245" x="2184" y="-2437" class="st1" width="24" height="24"/>
</g>
</svg>
