<svg xmlns="http://www.w3.org/2000/svg" width="18" height="18" viewBox="0 0 18 18">
  <g id="Group_40695" data-name="Group 40695" transform="translate(-116 -727)">
    <g id="Group_40694" data-name="Group 40694" transform="translate(2 -1)">
      <g id="Group_40693" data-name="Group 40693" transform="translate(-190 134)">
        <g id="Group_39447" data-name="Group 39447" transform="translate(40.695 -94)">
          <path id="Subtraction_3" data-name="Subtraction 3" d="M5.8,8.194H.512V7.17H5.8V8.193Zm0-1.536H.512A.513.513,0,0,1,0,6.146V5.634A1.538,1.538,0,0,1,1.536,4.1H2.6a.471.471,0,0,0,.471-.471A3.445,3.445,0,0,0,2.7,2.17a1.5,1.5,0,0,1-.139-.634A1.538,1.538,0,0,1,4.1,0a1.615,1.615,0,0,1,.277.024A1.545,1.545,0,0,1,5.61,1.264a1.519,1.519,0,0,1-.145.967,2.7,2.7,0,0,0-.343,1.244v.151a.471.471,0,0,0,.471.471H6.658a1.54,1.54,0,0,1,1.4.9H6.8a1,1,0,0,0-1,1v.657Z" transform="translate(264.501 689)" fill="#666"/>
        </g>
        <rect id="Rectangle_11069" data-name="Rectangle 11069" width="18" height="18" transform="translate(304 594)" fill="none"/>
      </g>
    </g>
    <path id="Icon_material-assignment-ind" data-name="Icon material-assignment-ind" d="M13.074,2.572h-2.24a1.6,1.6,0,0,0-3.022,0H5.572A1.075,1.075,0,0,0,4.5,3.644v7.5a1.075,1.075,0,0,0,1.072,1.072h7.5a1.075,1.075,0,0,0,1.072-1.072v-7.5A1.075,1.075,0,0,0,13.074,2.572Zm-3.751,0a.536.536,0,1,1-.536.536A.537.537,0,0,1,9.323,2.572Zm0,2.144A1.608,1.608,0,1,1,7.715,6.323,1.606,1.606,0,0,1,9.323,4.715Zm3.215,6.431H6.108V10.4c0-1.072,2.144-1.661,3.215-1.661s3.215.589,3.215,1.661Z" transform="translate(119.854 731.511)" fill="#666"/>
  </g>
</svg>
