<svg xmlns="http://www.w3.org/2000/svg" width="18" height="18" viewBox="0 0 18 18">
  <g id="Group_40690" data-name="Group 40690" transform="translate(-304 -594)">
    <g id="Group_39447" data-name="Group 39447" transform="translate(40.695 -94)">
      <path id="Subtraction_3" data-name="Subtraction 3" d="M4.41,8.194H.512V7.17H4.976A4.71,4.71,0,0,0,4.41,8.194ZM5.4,6.658H.512A.513.513,0,0,1,0,6.146V5.634A1.538,1.538,0,0,1,1.536,4.1H2.6a.471.471,0,0,0,.471-.471A3.445,3.445,0,0,0,2.7,2.17a1.5,1.5,0,0,1-.139-.634A1.538,1.538,0,0,1,4.1,0a1.615,1.615,0,0,1,.277.024A1.545,1.545,0,0,1,5.61,1.264a1.519,1.519,0,0,1-.145.967,2.7,2.7,0,0,0-.343,1.244v.151a.471.471,0,0,0,.471.471H6.658a1.529,1.529,0,0,1,1.429.972A5.887,5.887,0,0,0,5.4,6.658Z" transform="translate(264.501 689)" fill="#666"/>
      <path id="Icon_awesome-fingerprint" data-name="Icon awesome-fingerprint" d="M5.57,5.349a.522.522,0,0,0-.522.522,15.9,15.9,0,0,1-.6,4.6.522.522,0,1,0,1,.282A16.83,16.83,0,0,0,6.092,5.87a.522.522,0,0,0-.522-.522ZM5.551,3.571a2.175,2.175,0,0,0-2.243,2.2,14.267,14.267,0,0,1-.291,3.1.522.522,0,1,0,1.022.211,15.31,15.31,0,0,0,.312-3.328A1.133,1.133,0,0,1,5.536,4.615,1.259,1.259,0,0,1,6.789,5.821a17.482,17.482,0,0,1-.231,3.122.522.522,0,1,0,1.029.17A18.549,18.549,0,0,0,7.833,5.8,2.31,2.31,0,0,0,5.551,3.571Zm-2.407-.43a.522.522,0,0,0-.734.076,3.772,3.772,0,0,0-.843,2.436,12.629,12.629,0,0,1-.2,2.437A.522.522,0,0,0,2.4,8.274a13.678,13.678,0,0,0,.214-2.638A2.687,2.687,0,0,1,3.22,3.875.522.522,0,0,0,3.144,3.141Zm2.38-1.355a3.887,3.887,0,0,0-1,.108A.522.522,0,0,0,4.77,2.91a3.121,3.121,0,0,1,.739-.08,3.044,3.044,0,0,1,3.02,2.927,19.159,19.159,0,0,1-.121,2.471.522.522,0,0,0,1.037.119A20.2,20.2,0,0,0,9.573,5.74,4.1,4.1,0,0,0,5.525,1.786Zm5.481,2.641a.522.522,0,1,0-1.019.225,5.423,5.423,0,0,1,.1,1.34.522.522,0,0,0,.518.526h0A.522.522,0,0,0,11.133,6,6.462,6.462,0,0,0,11.006,4.427Zm-.872-1.973A5.784,5.784,0,0,0,5.5,0,5.447,5.447,0,0,0,1.533,1.586,5.186,5.186,0,0,0,0,5.364L0,5.83a.522.522,0,0,0,.506.537H.523a.522.522,0,0,0,.521-.507l0-.514A4.148,4.148,0,0,1,2.271,2.324a4.407,4.407,0,0,1,3.211-1.28,4.737,4.737,0,0,1,3.8,2.009.522.522,0,1,0,.854-.6Z" transform="translate(269.564 694.866)" fill="#666"/>
    </g>
    <rect id="Rectangle_11069" data-name="Rectangle 11069" width="18" height="18" transform="translate(304 594)" fill="none"/>
  </g>
</svg>
